<svg width="24" height="24" viewBox="0 0 24 24" fill="none" xmlns="http://www.w3.org/2000/svg">
<path d="M4.5 13.8999C4.63261 13.8999 4.75979 13.9526 4.85355 14.0463C4.94732 14.1401 5 14.2673 5 14.3999V16.8999C5 17.1651 5.10536 17.4195 5.29289 17.607C5.48043 17.7945 5.73478 17.8999 6 17.8999H18C18.2652 17.8999 18.5196 17.7945 18.7071 17.607C18.8946 17.4195 19 17.1651 19 16.8999V14.3999C19 14.2673 19.0527 14.1401 19.1464 14.0463C19.2402 13.9526 19.3674 13.8999 19.5 13.8999C19.6326 13.8999 19.7598 13.9526 19.8536 14.0463C19.9473 14.1401 20 14.2673 20 14.3999V16.8999C20 17.4303 19.7893 17.939 19.4142 18.3141C19.0391 18.6892 18.5304 18.8999 18 18.8999H6C5.46957 18.8999 4.96086 18.6892 4.58579 18.3141C4.21071 17.939 4 17.4303 4 16.8999V14.3999C4 14.2673 4.05268 14.1401 4.14645 14.0463C4.24021 13.9526 4.36739 13.8999 4.5 13.8999Z" fill="#3A643B"/>
<path d="M11.6457 15.854C11.6921 15.9006 11.7473 15.9375 11.808 15.9627C11.8688 15.9879 11.9339 16.0009 11.9997 16.0009C12.0654 16.0009 12.1305 15.9879 12.1913 15.9627C12.252 15.9375 12.3072 15.9006 12.3537 15.854L15.3537 12.854C15.4475 12.7601 15.5003 12.6328 15.5003 12.5C15.5003 12.3672 15.4475 12.2399 15.3537 12.146C15.2598 12.0521 15.1324 11.9994 14.9997 11.9994C14.8669 11.9994 14.7395 12.0521 14.6457 12.146L12.4997 14.293V5.5C12.4997 5.36739 12.447 5.24021 12.3532 5.14645C12.2594 5.05268 12.1323 5 11.9997 5C11.867 5 11.7399 5.05268 11.6461 5.14645C11.5523 5.24021 11.4997 5.36739 11.4997 5.5V14.293L9.35366 12.146C9.25977 12.0521 9.13243 11.9994 8.99966 11.9994C8.86688 11.9994 8.73954 12.0521 8.64566 12.146C8.55177 12.2399 8.49902 12.3672 8.49902 12.5C8.49902 12.6328 8.55177 12.7601 8.64566 12.854L11.6457 15.854Z" fill="#3A643B"/>
</svg>
