<svg width="49" height="49" viewBox="0 0 49 49" fill="none" xmlns="http://www.w3.org/2000/svg">
<path d="M24.154 9.27734C20.1024 9.27734 16.8066 12.5731 16.8066 16.6247C16.8066 20.6763 20.1024 23.9721 24.154 23.9721C28.2056 23.9721 31.5014 20.6763 31.5014 16.6247C31.5014 12.5731 28.2056 9.27734 24.154 9.27734Z" fill="#69906D"/>
<path d="M24.1543 0.15625C10.9205 0.15625 0.154297 10.9224 0.154297 24.1562C0.154297 31.0791 3.14382 37.6625 8.35621 42.2245L8.72196 42.5889H8.78348C13.09 46.1828 18.5275 48.1562 24.1543 48.1562C29.9528 48.1562 35.5506 46.0605 39.9152 42.255C45.1519 37.6929 48.1543 31.0966 48.1543 24.1562C48.1543 10.9224 37.3881 0.15625 24.1543 0.15625ZM39.5515 38.8584C38.4995 31.1359 31.9979 25.1703 24.1543 25.1703C16.3932 25.1703 9.81176 31.144 8.65503 38.7516C4.95159 34.8177 2.85852 29.6073 2.85852 24.1562C2.85852 12.4138 12.4119 2.86048 24.1543 2.86048C35.8967 2.86048 45.4501 12.4138 45.4501 24.1562C45.4501 29.658 43.3185 34.913 39.5515 38.8584Z" fill="#69906D"/>
</svg>
