<svg width="64" height="64" viewBox="0 0 64 64" fill="none" xmlns="http://www.w3.org/2000/svg">
<circle cx="32" cy="32" r="32" fill="#E0E8E2"/>
<path d="M15.4274 23.3624L15.2252 23.2174L15.4274 23.3624C15.9187 22.6772 16.3845 21.9587 16.8525 21.2369C17.1433 20.7885 17.4349 20.3387 17.734 19.8949C17.9135 19.904 18.0569 19.9845 18.2393 20.1044C18.9821 20.5926 19.7249 21.0811 20.4676 21.5697C23.2934 23.4285 26.12 25.2878 28.9572 27.129C30.1437 27.899 30.9758 28.9098 31.2888 30.3464C31.4105 30.905 31.6321 31.4797 32.1195 31.8959C33.2038 32.8218 34.8148 32.4114 35.4161 31.0564C35.8038 30.1829 36.1949 29.3788 36.8183 28.7073C37.4713 28.004 37.4025 27.1321 37.0959 26.3705C36.7765 25.577 36.1303 25.1935 35.3392 25.1313C34.8941 25.0963 34.479 25.1929 34.0911 25.303C33.202 25.5553 32.3768 25.4602 31.5801 24.9455C29.4314 23.5573 27.2993 22.1506 25.1661 20.7432C23.4483 19.6099 21.7297 18.4761 20.0011 17.351C19.8691 17.265 19.7649 17.1893 19.6834 17.0656C20.1645 16.2857 20.6553 15.5315 21.1454 14.7783C21.4172 14.3605 21.6889 13.943 21.9586 13.5216C22.0218 13.4229 22.068 13.3555 22.1093 13.3085C22.1496 13.2626 22.1703 13.2537 22.1759 13.2518C22.1798 13.2505 22.2431 13.2289 22.4905 13.3891L22.6263 13.1792L22.4905 13.3891C24.3659 14.6032 26.2458 15.7914 28.1244 16.9788C30.3238 18.369 32.5215 19.758 34.708 21.1862C35.2936 21.5687 35.8858 21.929 36.4742 22.287C37.9079 23.1593 39.3187 24.0177 40.5556 25.1493C41.9542 26.4288 42.8869 28.0946 43.39 30.0137C43.9865 32.2885 43.6255 34.5255 43.1664 36.8225C42.8187 38.5624 42.484 40.306 42.1496 42.0485C41.9838 42.912 41.8181 43.7752 41.651 44.6376C41.5026 45.4029 41.353 46.1683 41.2034 46.9338C40.7731 49.1361 40.3424 51.3402 39.9385 53.549C39.9119 53.6948 39.8827 53.738 39.8756 53.7469C39.8725 53.7476 39.8668 53.7487 39.8576 53.7494C39.831 53.7513 39.7903 53.7491 39.7244 53.7392C37.9533 53.4721 36.1825 53.2026 34.3465 52.9201C34.2444 52.8142 34.2045 52.7075 34.1907 52.5957C34.1729 52.4518 34.1968 52.297 34.2277 52.0983C34.6785 49.2074 35.1392 46.3181 35.6089 43.4305C35.8677 41.839 36.6131 40.5083 37.6695 39.3235C38.0607 38.8848 38.2976 38.493 38.2696 38.0632C38.2424 37.6443 37.9658 37.267 37.5754 36.8472C36.6616 35.8645 35.4792 35.5039 34.3762 35.1675C34.2642 35.1334 34.153 35.0994 34.043 35.0652C33.2625 34.8219 32.5215 35.1365 32.0327 35.8369C31.7882 36.1873 31.6423 36.556 31.6172 36.9423C31.5921 37.3293 31.6894 37.7148 31.9004 38.0962C31.9816 38.243 32.0671 38.3859 32.1508 38.525L32.1737 38.5632C32.25 38.69 32.3244 38.8136 32.3957 38.9391C32.8844 39.7994 33.0795 40.7145 32.9206 41.6957C32.8143 42.3518 32.7086 43.0078 32.603 43.6637C32.1737 46.3288 31.7447 48.9917 31.276 51.6477C31.2715 51.6731 31.2673 51.6978 31.2631 51.7219C31.2148 52.0015 31.1811 52.1965 31.0055 52.3609C30.1634 52.3944 29.3664 52.2575 28.5472 52.1167C28.3559 52.0838 28.1634 52.0508 27.9688 52.0196C27.6903 51.975 27.3996 51.9355 27.114 51.8967C26.9145 51.8696 26.7174 51.8428 26.5287 51.8148C26.3975 51.7954 26.3255 51.7741 26.2882 51.7574C26.2903 51.7442 26.2941 51.7246 26.3013 51.6967C26.3101 51.6628 26.3216 51.6247 26.3361 51.5773C26.3501 51.5313 26.3665 51.4781 26.3825 51.4206C27.2379 48.3588 28.0179 45.246 27.8397 41.9586C27.8246 41.6792 27.7843 41.4059 27.746 41.1455C27.7416 41.1155 27.7372 41.0857 27.7329 41.056C27.6904 40.7644 27.6536 40.4865 27.651 40.2033C27.6308 38.0024 28.3272 36.0034 29.3127 34.0938C29.3881 33.9478 29.4396 33.8164 29.4581 33.697C29.4778 33.5703 29.4616 33.444 29.3865 33.3345C29.318 33.2346 29.2206 33.18 29.1499 33.1465C29.1098 33.1274 29.0526 33.1046 29.0046 33.0855C28.9798 33.0755 28.9574 33.0666 28.941 33.0597C27.5108 32.4522 26.1014 31.8092 24.7616 31.0377C22.0634 29.4841 19.4303 27.8642 17.1217 25.7343C16.815 25.4513 16.5239 25.1684 16.2303 24.8831C15.998 24.6574 15.7642 24.4301 15.5198 24.2001C15.3393 24.0302 15.2694 23.915 15.2537 23.8174C15.2394 23.7283 15.2616 23.5935 15.4274 23.3624Z" fill="#FDF8E5" stroke="#3A643C" stroke-width="0.5"/>
<path d="M18.0264 19.5752C18.471 18.7947 18.9358 18.0479 19.437 17.2842C20.3258 17.6975 21.1173 18.2442 21.9252 18.8023C22.2468 19.0245 22.571 19.2484 22.905 19.4665C25.414 21.1046 27.9041 22.7752 30.3957 24.4467C30.7199 24.6642 31.0442 24.8817 31.3685 25.0992C32.248 25.6889 33.1714 25.7439 34.1146 25.4025C35.1582 25.0247 36.1157 25.3166 36.5852 26.083C36.8632 26.537 36.964 27.0156 36.8974 27.4837C36.8306 27.9531 36.5928 28.4291 36.1644 28.8696C35.6545 29.3939 35.3997 30.0493 35.1632 30.6574C35.1272 30.7499 35.0917 30.8413 35.0558 30.9309C34.7433 31.7105 34.0227 32.1876 33.2788 32.1464C32.8584 32.1231 32.4684 32.02 32.1725 31.8274C31.8836 31.6395 31.6768 31.3626 31.6121 30.9608C31.1795 28.2765 29.298 27.0622 27.4744 25.8854C27.3947 25.8339 27.3151 25.7826 27.2357 25.7311C25.0494 24.3147 22.8823 22.8664 20.7136 21.417C19.9108 20.8805 19.1078 20.3438 18.3035 19.8086C18.2133 19.7486 18.1286 19.6743 18.0264 19.5752Z" fill="#E0E8E2" stroke="#3A643C" stroke-width="0.5"/>
<path d="M33.8259 52.8493C32.9426 52.7692 32.0566 52.6424 31.12 52.5017C31.481 50.2141 31.8729 47.9346 32.265 45.6535C32.4978 44.2996 32.7306 42.9452 32.9571 41.5882C33.1696 40.3158 32.5967 39.2524 31.9274 38.2956C31.5374 37.7382 31.4512 37.1406 31.598 36.6285C31.7449 36.116 32.1311 35.6673 32.7293 35.4189C32.9725 35.3179 33.1923 35.27 33.3959 35.3037C35.2138 35.6042 36.8449 36.1841 37.9916 37.6282C38.1609 37.8414 38.261 38.074 38.2732 38.2847C38.2848 38.485 38.219 38.68 38.0242 38.8499C36.0042 40.6113 35.3551 42.9316 35.0189 45.3798C34.7864 47.0733 34.5049 48.7573 34.2194 50.4653C34.0877 51.2537 33.955 52.0473 33.8259 52.8493Z" fill="#E0E8E2" stroke="#3A643C" stroke-width="0.5"/>
<path d="M46.6151 28.1046C47.4842 27.7897 48.2917 27.4781 49.1014 27.1732C49.3851 27.0664 49.6891 27.0523 49.7892 27.4208C49.8825 27.7647 49.855 28.1135 49.4301 28.2513C48.5858 28.525 47.7465 28.8177 46.9085 29.1135C46.4926 29.2603 45.9954 29.5645 45.7981 28.8985C45.6086 28.2589 46.2015 28.267 46.6151 28.1046Z" fill="#3A643C"/>
<path d="M45.5538 25.1023C46.2621 24.4874 46.9372 23.9276 47.5804 23.3249C47.8685 23.0549 48.0614 23.0918 48.3052 23.369C48.5818 23.6834 48.4961 23.9395 48.2422 24.1749C47.3767 24.9772 46.5141 25.784 45.6294 26.559C45.4513 26.7151 45.1749 26.7137 44.9913 26.4828C44.8157 26.2619 44.8186 25.9882 44.9663 25.7652C45.1194 25.534 45.3249 25.3465 45.5538 25.1023Z" fill="#3A643C"/>
<path d="M47.8742 32.2277C47.3752 32.3287 46.9939 32.0442 46.5693 32.0465C46.238 32.0482 46.2327 31.738 46.2164 31.4508C46.1952 31.0796 46.3985 31.0592 46.6398 31.083C47.7394 31.1913 48.8392 31.2976 49.9376 31.4193C50.2694 31.4561 50.2696 31.7423 50.285 32.0288C50.3052 32.4075 50.0901 32.3873 49.8551 32.3938C49.2118 32.4117 48.5729 32.3862 47.8742 32.2277Z" fill="#3A643C"/>
<path d="M38.7046 30.9482L38.7046 30.9482C38.8731 30.7174 38.9936 30.6941 39.0297 30.6934C39.0634 30.6927 39.1803 30.7091 39.3504 30.9314C39.8128 31.5359 40.2472 32.162 40.6054 32.8251L40.6054 32.8251C40.7763 33.1414 40.749 33.3531 40.7002 33.4528C40.6587 33.5376 40.5514 33.645 40.2829 33.6503L40.2829 33.6503L40.2696 33.6505C39.5772 33.6641 38.9195 33.677 38.2764 33.6047C37.8521 33.557 37.7409 33.4237 37.7039 33.3424C37.6499 33.2241 37.6278 32.9598 37.8207 32.4528C37.9319 32.2602 38.0303 32.0808 38.123 31.9116C38.3188 31.5544 38.4896 31.2427 38.7046 30.9482Z" fill="#E0E8E2" stroke="#3A643C"/>
</svg>
