<svg width="19" height="23" viewBox="0 0 19 23" fill="currentColor" xmlns="http://www.w3.org/2000/svg">
	<path
		d="M18.0687 0H0.956954C0.454159 0 0.0467529 0.36354 0.0467529 0.812199V21.906C0.0467529 22.2211 0.251366 22.508 0.571029 22.6415C0.890692 22.775 1.26861 22.7315 1.53985 22.5294L9.51285 16.5939L17.4855 22.5294C17.6522 22.6539 17.8594 22.7182 18.0687 22.7182C18.1994 22.7182 18.3312 22.6929 18.4543 22.6415C18.7743 22.508 18.9786 22.2211 18.9786 21.906V0.812199C18.9789 0.36354 18.5715 0 18.0687 0ZM17.4388 20.1705L10.0961 14.9126C9.92717 14.7869 9.72001 14.7239 9.51285 14.7239C9.30568 14.7239 9.09852 14.7866 8.92959 14.9126L1.58654 20.1705V10.8974V1.6244H17.4388V10.8974V20.1705Z"
		fill="currentColor" />
</svg>