<svg width="11" height="12" viewBox="0 0 11 12" fill="none" xmlns="http://www.w3.org/2000/svg">
<g clip-path="url(#clip0_293_6590)">
<path d="M9.61616 7.87883C9.30974 7.83559 9.0031 7.77018 8.70458 7.68414C8.21313 7.54432 7.70828 7.7546 7.53049 8.17318L7.28838 8.77438C7.2739 8.81192 7.23636 8.83343 7.20761 8.84462C7.12112 8.87865 7.00084 8.86745 6.89328 8.81521C5.18778 7.9888 3.79375 6.59477 2.96712 4.88927C2.9151 4.78215 2.90391 4.66165 2.93793 4.57516C2.94934 4.54619 2.97063 4.50866 3.0108 4.49307L3.60959 4.25206C4.02817 4.07427 4.23823 3.56964 4.09841 3.07731C4.01259 2.77945 3.9474 2.47281 3.90372 2.16507C3.80626 1.50109 3.32885 1.00854 2.76277 0.994052L1.92099 0.994491C1.49692 0.967932 1.09305 1.17185 0.778724 1.56431C0.265098 2.20612 0.116059 3.19518 0.389993 4.14539C1.38827 7.61741 4.16514 10.3945 7.63738 11.3928C7.95236 11.4834 8.27129 11.5278 8.58079 11.5278C9.20504 11.5278 9.78956 11.3473 10.2187 11.0036C10.6111 10.6895 10.8135 10.2839 10.7887 9.87451V9.01408C10.7742 8.45326 10.2815 7.97585 9.61638 7.87839L9.61616 7.87883Z" fill="#3A643C"/>
<path d="M10.9481 6.42257C10.573 3.5061 8.27418 1.2073 5.35771 0.832173C5.12109 0.799248 4.89721 0.970896 4.86648 1.21169C4.83531 1.45226 5.00542 1.67219 5.24599 1.70292C7.76627 2.02734 9.75316 4.01402 10.0776 6.53452C10.1061 6.75599 10.2949 6.91754 10.5122 6.91754C10.5311 6.91754 10.5499 6.91644 10.5688 6.91381C10.8094 6.88286 10.9791 6.66292 10.9481 6.42257Z" fill="#3A643C"/>
<path d="M5.22928 3.08287C7.00809 3.38007 8.40256 4.77476 8.69998 6.55358C8.73576 6.76825 8.92189 6.92014 9.13261 6.92014C9.15654 6.92014 9.1809 6.91816 9.20549 6.91421C9.44452 6.87426 9.60585 6.64796 9.56612 6.40871C9.20702 4.2607 7.52237 2.57605 5.37436 2.21695C5.13401 2.17722 4.90881 2.33855 4.86886 2.57759C4.82891 2.81684 4.99046 3.04314 5.2295 3.08309L5.22928 3.08287Z" fill="#3A643C"/>
<path d="M5.19911 4.46384C6.2358 4.71385 7.06704 5.54508 7.31682 6.58156C7.36533 6.78262 7.5451 6.91761 7.74309 6.91761C7.77711 6.91761 7.81179 6.91366 7.84647 6.90532C8.08199 6.84847 8.22708 6.61141 8.17045 6.37567C7.83901 5.00095 6.77949 3.94143 5.40478 3.60999C5.17013 3.55314 4.93198 3.69823 4.87513 3.93397C4.81828 4.16971 4.96336 4.40699 5.19911 4.46384Z" fill="#3A643C"/>
</g>
<defs>
<clipPath id="clip0_293_6590">
<rect width="10.7554" height="10.7554" fill="white" transform="translate(0.22583 0.800781)"/>
</clipPath>
</defs>
</svg>
