<svg width="26" height="23" viewBox="0 0 26 23" fill="none" xmlns="http://www.w3.org/2000/svg">
<path d="M24.8059 5.14633C24.5471 4.84377 24.2257 4.60093 23.864 4.43453C23.5023 4.26812 23.1088 4.18212 22.7106 4.18245H6.02541L5.64427 2.02177C5.56915 1.59536 5.34616 1.20907 5.01448 0.930756C4.6828 0.652446 4.26364 0.499928 3.83067 0.5H0.920612C0.676451 0.5 0.442289 0.596993 0.269641 0.769641C0.0969928 0.94229 0 1.17645 0 1.42061C0 1.66477 0.0969928 1.89893 0.269641 2.07158C0.442289 2.24423 0.676451 2.34122 0.920612 2.34122H3.83067L6.1902 15.7104C6.3048 16.362 6.65064 16.9504 7.1642 17.3675C6.70147 17.9335 6.44731 18.6414 6.44429 19.3726C6.44429 20.2271 6.78376 21.0467 7.38803 21.651C7.9923 22.2552 8.81186 22.5947 9.66643 22.5947C10.521 22.5947 11.3406 22.2552 11.9448 21.651C12.5491 21.0467 12.8886 20.2271 12.8886 19.3726C12.8859 18.8938 12.7754 18.4219 12.5654 17.9916H17.8129C17.6036 18.422 17.4938 18.894 17.4916 19.3726C17.4868 19.8906 17.6069 20.4023 17.8419 20.8641C18.0768 21.3258 18.4197 21.7241 18.8413 22.0252C19.263 22.3263 19.7511 22.5212 20.2641 22.5935C20.7772 22.6658 21.3001 22.6133 21.7885 22.4404C22.277 22.2676 22.7165 21.9795 23.0699 21.6006C23.4233 21.2217 23.6801 20.7632 23.8186 20.2639C23.9571 19.7646 23.9731 19.2393 23.8653 18.7325C23.7575 18.2258 23.5291 17.7524 23.1994 17.3527C23.7176 16.9219 24.0596 16.3159 24.1605 15.6496L25.4356 7.36409C25.4972 6.97088 25.4728 6.56898 25.3641 6.18611C25.2554 5.80324 25.065 5.44849 24.8059 5.14633ZM11.0473 19.3726C11.0473 19.6457 10.9664 19.9127 10.8146 20.1397C10.6629 20.3668 10.4472 20.5438 10.1949 20.6484C9.94255 20.7529 9.6649 20.7802 9.39703 20.7269C9.12915 20.6737 8.8831 20.5421 8.68997 20.349C8.49685 20.1559 8.36533 19.9098 8.31204 19.642C8.25876 19.3741 8.28611 19.0964 8.39063 18.8441C8.49514 18.5918 8.67214 18.3761 8.89923 18.2244C9.12632 18.0726 9.39331 17.9916 9.66643 17.9916C10.0327 17.9916 10.3839 18.1371 10.6429 18.3961C10.9019 18.6551 11.0473 19.0063 11.0473 19.3726ZM20.7138 20.7535C20.4407 20.7535 20.1737 20.6725 19.9466 20.5207C19.7195 20.369 19.5425 20.1533 19.438 19.901C19.3335 19.6487 19.3061 19.371 19.3594 19.1031C19.4127 18.8353 19.5442 18.5892 19.7373 18.3961C19.9304 18.203 20.1765 18.0714 20.4444 18.0182C20.7122 17.9649 20.9899 17.9922 21.2422 18.0968C21.4946 18.2013 21.7102 18.3783 21.862 18.6054C22.0137 18.8324 22.0947 19.0994 22.0947 19.3726C22.0947 19.7388 21.9492 20.09 21.6902 20.349C21.4313 20.608 21.08 20.7535 20.7138 20.7535ZM22.3451 15.3697C22.3117 15.587 22.2016 15.7852 22.0348 15.9284C21.868 16.0716 21.6554 16.1503 21.4355 16.1504H8.90969C8.69311 16.1507 8.48336 16.0746 8.31734 15.9355C8.15132 15.7964 8.03965 15.6033 8.00196 15.39L6.35222 6.02367H22.7106C22.8433 6.02372 22.9744 6.05246 23.095 6.10792C23.2155 6.16337 23.3227 6.24423 23.409 6.34496C23.4954 6.44569 23.559 6.5639 23.5955 6.6915C23.6319 6.8191 23.6403 6.95306 23.6201 7.08422L22.3451 15.3697Z" fill="#3A643B"/>
<path d="M24 5.5L5.5 5L8 17H22.5L24 5.5Z" fill="#3A643B"/>
</svg>
