
<svg width="40" height="40" viewBox="0 0 40 40" fill="none" xmlns="http://www.w3.org/2000/svg">
<rect width="40" height="40" rx="8" fill="#F4F5FA"/>
<g clip-path="url(#clip0_4072_2472)">
<g clip-path="url(#clip1_4072_2472)">
<path d="M11.7344 20.8057V15.8224C11.7344 13.5224 13.601 11.6641 15.901 11.6641H24.2344C26.5344 11.6641 28.4011 13.5224 28.4011 15.8224V21.6391C28.4011 23.9307 26.5344 25.7891 24.2344 25.7891H22.9844C22.7261 25.7891 22.4761 25.9141 22.3177 26.1224L21.0677 27.7807C20.5177 28.5141 19.6177 28.5141 19.0677 27.7807L17.8177 26.1224C17.6844 25.9391 17.3844 25.7891 17.151 25.7891H15.901C13.601 25.7891 11.7344 23.9307 11.7344 21.6391V20.8057Z" fill="#9DB29D"/>
<path d="M20.0677 20.0026C19.6011 20.0026 19.2344 19.6276 19.2344 19.1693C19.2344 18.7109 19.6094 18.3359 20.0677 18.3359C20.5261 18.3359 20.9011 18.7109 20.9011 19.1693C20.9011 19.6276 20.5344 20.0026 20.0677 20.0026Z" fill="#3A643B"/>
<path d="M23.3997 20.0026C22.933 20.0026 22.5664 19.6276 22.5664 19.1693C22.5664 18.7109 22.9414 18.3359 23.3997 18.3359C23.858 18.3359 24.233 18.7109 24.233 19.1693C24.233 19.6276 23.8664 20.0026 23.3997 20.0026Z" fill="#3A643B"/>
<path d="M16.7337 20.0026C16.2671 20.0026 15.9004 19.6276 15.9004 19.1693C15.9004 18.7109 16.2754 18.3359 16.7337 18.3359C17.1921 18.3359 17.5671 18.7109 17.5671 19.1693C17.5671 19.6276 17.2004 20.0026 16.7337 20.0026Z" fill="#3A643B"/>
</g>
</g>
<defs>
<clipPath id="clip0_4072_2472">
<rect width="21" height="20" fill="white" transform="translate(9.5 10)"/>
</clipPath>
<clipPath id="clip1_4072_2472">
<rect width="21" height="20" fill="white" transform="translate(9.5 10)"/>
</clipPath>
</defs>
</svg>
