<svg width="16" height="16" viewBox="0 0 16 16" fill="#3A643B" xmlns="http://www.w3.org/2000/svg">
<path id="Vector" fill-rule="evenodd" clip-rule="evenodd" d="M4.86817 4.10559C4.74629 3.89371 4.81844 3.62326 5.03017 3.50108C5.24189 3.37859 5.51234 3.45135 5.63452 3.66323C5.7567 3.8748 5.68425 4.14525 5.47268 4.26774C5.26096 4.38946 4.9902 4.31716 4.86817 4.10559ZM3.90733 5.83263C3.78484 6.0442 3.51439 6.11681 3.30282 5.99478C3.09125 5.87275 3.01864 5.60184 3.14098 5.39057C3.26301 5.1787 3.53331 5.10639 3.74518 5.22843C3.95675 5.35061 4.02936 5.62152 3.90733 5.83263ZM2.89173 8.41358C2.64721 8.41358 2.44922 8.21543 2.44922 7.97122C2.44922 7.727 2.64736 7.52886 2.89173 7.52886C3.13594 7.52886 3.33394 7.727 3.33394 7.97122C3.33394 8.21543 3.13594 8.41358 2.89173 8.41358ZM3.90733 10.1093C4.02951 10.3212 3.95675 10.5917 3.74518 10.7139C3.53331 10.836 3.26301 10.7633 3.14098 10.552C3.01849 10.3401 3.09125 10.0697 3.30282 9.94751C3.51439 9.82532 3.78484 9.89824 3.90733 10.1093ZM5.63437 12.2792C5.51219 12.4911 5.24174 12.5634 5.03001 12.441C4.81829 12.3189 4.74629 12.0487 4.86802 11.8368C4.9902 11.6253 5.2608 11.553 5.47253 11.675C5.6841 11.7975 5.75655 12.0676 5.63437 12.2792ZM8.05332 12.6903C8.05332 12.9347 7.85502 13.1327 7.61096 13.1327C7.36644 13.1327 7.1686 12.9345 7.1686 12.6903C7.1686 12.4461 7.3666 12.2479 7.61096 12.2479C7.85518 12.2479 8.05332 12.4461 8.05332 12.6903ZM10.3536 11.8368C10.4756 12.0487 10.4032 12.3189 10.1916 12.441C9.97973 12.5635 9.70928 12.4911 9.5871 12.2792C9.46491 12.0676 9.53737 11.7975 9.74924 11.675C9.96081 11.5528 10.2314 11.6253 10.3536 11.8368ZM12.0809 10.5522C11.9588 10.7634 11.6883 10.836 11.4766 10.714C11.2649 10.592 11.1926 10.3214 11.3146 10.1095C11.4366 9.89824 11.7075 9.82563 11.9188 9.94766C12.1307 10.0698 12.2033 10.3403 12.0809 10.5522ZM12.7726 7.97122C12.7726 8.21558 12.5743 8.41358 12.3303 8.41358C12.0857 8.41358 11.8878 8.21543 11.8878 7.97122C11.8878 7.727 12.0858 7.52886 12.3303 7.52886C12.5743 7.5287 12.7726 7.72685 12.7726 7.97122ZM11.3146 5.83263C11.1924 5.62136 11.2649 5.35061 11.4766 5.22843C11.6883 5.10624 11.9588 5.1787 12.0809 5.39057C12.2034 5.60184 12.1307 5.87259 11.9188 5.99478C11.7075 6.11696 11.4366 6.0442 11.3146 5.83263ZM10.3536 4.10559C10.2313 4.31716 9.96081 4.38946 9.74924 4.26774C9.53737 4.14525 9.46507 3.8748 9.5871 3.66323C9.70928 3.45135 9.97973 3.37875 10.1916 3.50108C10.4033 3.62326 10.4756 3.89371 10.3536 4.10559ZM7.1686 3.25199C7.1686 3.00823 7.36751 2.80962 7.61096 2.80962C7.85441 2.80962 8.05332 3.00838 8.05332 3.25199C8.05332 3.49559 7.85441 3.69435 7.61096 3.69435C7.36751 3.69435 7.1686 3.49574 7.1686 3.25199ZM8.44001 7.66934C8.3462 7.5072 8.14805 7.44359 7.97965 7.5133V4.58822C7.97965 4.38443 7.8146 4.21938 7.61096 4.21938C7.40732 4.21938 7.24228 4.38443 7.24228 4.58822V7.93507L5.11833 9.16163C4.94184 9.26322 4.88144 9.48852 4.98334 9.66485C5.05152 9.78307 5.17553 9.84927 5.30306 9.84927C5.36544 9.84927 5.42875 9.83341 5.48702 9.80015L7.24579 8.78486C7.26928 8.96577 7.42349 9.10549 7.61096 9.10549C7.8146 9.10549 7.97965 8.94045 7.97965 8.73696V8.36126L8.30486 8.17333C8.48135 8.07159 8.54175 7.84583 8.44001 7.66934ZM7.61096 13.6783C10.6604 13.6783 13.1412 11.1977 13.1412 8.14816C13.1412 5.09892 10.6604 2.61773 7.61096 2.61773C4.56157 2.61773 2.08068 5.09892 2.08068 8.14816C2.08068 11.1977 4.56157 13.6783 7.61096 13.6783ZM7.61096 1.88067C4.1552 1.88067 1.34331 4.69225 1.34331 8.14816C1.34331 11.6041 4.1552 14.4157 7.61096 14.4157C11.0669 14.4157 13.8783 11.6041 13.8783 8.14816C13.8783 4.69225 11.0669 1.88067 7.61096 1.88067ZM7.61096 14.932C11.3514 14.932 14.3945 11.8887 14.3945 8.14816C14.3945 4.40762 11.3512 1.36432 7.61096 1.36432C3.87042 1.36432 0.827123 4.40777 0.827123 8.14816C0.827123 11.8886 3.87042 14.932 7.61096 14.932ZM7.61096 0.626953C3.4636 0.626953 0.0895996 4.0011 0.0895996 8.14816C0.0895996 12.2952 3.4636 15.6694 7.61096 15.6694C11.7582 15.6694 15.1317 12.2954 15.1317 8.14816C15.1317 4.00095 11.758 0.626953 7.61096 0.626953Z" />
</svg>
