<svg width="15" height="16" viewBox="0 0 15 16" fill="#8D8D8D" xmlns="http://www.w3.org/2000/svg">
<path id="Vector" d="M7.54305 15.0806C7.2281 15.0806 6.91315 15.0646 6.61419 15.0179C3.41727 14.6084 0.91308 12.0902 0.51939 8.91124C0.251806 6.70788 0.975819 4.55188 2.53524 2.99332C4.09462 1.43548 6.252 0.69584 8.45667 0.978657C11.6375 1.37212 14.1572 3.87482 14.5669 7.06986C14.7718 8.67501 14.4408 10.2649 13.622 11.634C13.5119 11.8227 13.4959 12.0434 13.5907 12.2475L14.5515 14.1674C14.6776 14.4035 14.6303 14.7023 14.4414 14.8916C14.2526 15.0804 13.953 15.1277 13.7168 15.0017L11.7951 14.0574C11.6062 13.9627 11.37 13.9787 11.1812 14.0887C10.0789 14.7343 8.83448 15.0804 7.54317 15.0804L7.54305 15.0806ZM7.54305 2.17515C5.99966 2.17515 4.51967 2.77334 3.41733 3.87505C2.14152 5.1501 1.52762 6.92797 1.76383 8.73787C2.09478 11.366 4.15731 13.428 6.77173 13.7581C8.09428 13.9315 9.40143 13.6634 10.5351 12.9872C11.1023 12.6564 11.7789 12.625 12.3621 12.9085L12.5984 13.0345L12.4723 12.7984C12.1887 12.2162 12.2047 11.5394 12.551 10.9725C13.2283 9.83943 13.4958 8.54907 13.3224 7.21132C12.9914 4.58317 10.9128 2.53719 8.29919 2.20637C8.04698 2.19101 7.7954 2.17502 7.54318 2.17502L7.54305 2.17515Z" />
</svg>
