<svg width="19" height="19" viewBox="0 0 19 19" fill="none" xmlns="http://www.w3.org/2000/svg">
<g clip-path="url(#clip0_3915_2497)">
<path d="M16.813 13.1877C17.1796 12.505 17.483 11.7971 17.6853 11.0765C18.1784 9.34468 17.9002 7.68866 17.129 6.29811C16.2441 4.71793 14.8913 3.6687 12.9191 3.65606H11.3009L10.2516 5.74188L8.59545 0.634766L7.1795 3.65606H5.64978C3.43736 3.79511 2.32484 4.71793 1.43987 6.29811C0.668686 7.68866 0.390554 9.34468 0.883606 11.0765C1.33873 12.682 2.27427 14.2116 3.27301 15.4631C3.75342 16.0699 4.29704 16.6135 4.86595 17.1191C4.99237 17.2329 5.38429 17.5237 5.76356 17.7891C6.30718 18.181 6.9393 18.3833 7.58406 18.3833H7.81162C8.62073 18.3833 9.27814 17.6627 9.27814 16.7652V15.0207" fill="#3A643B"/>
<path d="M16.813 13.1877C17.1796 12.505 17.483 11.7971 17.6853 11.0765C18.1784 9.34468 17.9002 7.68866 17.129 6.29811C16.2441 4.71793 14.8913 3.6687 12.9191 3.65606H11.3009L10.2516 5.74188L8.59545 0.634766L7.1795 3.65606H5.64978C3.43736 3.79511 2.32484 4.71793 1.43987 6.29811C0.668686 7.68866 0.390554 9.34468 0.883606 11.0765C1.33873 12.682 2.27427 14.2116 3.27301 15.4631C3.75342 16.0699 4.29704 16.6135 4.86595 17.1191C4.99237 17.2329 5.38429 17.5237 5.76356 17.7891C6.30718 18.181 6.9393 18.3833 7.58406 18.3833H7.81162C8.62073 18.3833 9.27814 17.6627 9.27814 16.7652V15.0207" stroke="#9DB29D" stroke-width="1.5" stroke-linecap="round" stroke-linejoin="round"/>
<path d="M5.65258 10.1634C6.32985 10.1634 6.87889 9.61437 6.87889 8.93715C6.87889 8.25993 6.32985 7.71094 5.65258 7.71094C4.97531 7.71094 4.42627 8.25993 4.42627 8.93715C4.42627 9.61437 4.97531 10.1634 5.65258 10.1634Z" stroke="#9DB29D" stroke-width="1.5" stroke-linecap="round" stroke-linejoin="round"/>
<path d="M12.9075 10.1634C13.5847 10.1634 14.1338 9.61437 14.1338 8.93715C14.1338 8.25993 13.5847 7.71094 12.9075 7.71094C12.2302 7.71094 11.6812 8.25993 11.6812 8.93715C11.6812 9.61437 12.2302 10.1634 12.9075 10.1634Z" stroke="#9DB29D" stroke-width="1.5" stroke-linecap="round" stroke-linejoin="round"/>
<path d="M15.7822 16.3171C16.7458 16.3171 17.5269 15.5361 17.5269 14.5726C17.5269 13.6092 16.7458 12.8281 15.7822 12.8281C14.8187 12.8281 14.0376 13.6092 14.0376 14.5726C14.0376 15.5361 14.8187 16.3171 15.7822 16.3171Z" fill="#3A643B" stroke="#9DB29D" stroke-width="1.5" stroke-linecap="round" stroke-linejoin="round"/>
<path d="M5.65088 10.1758C5.90373 12.4133 7.0289 13.551 9.27924 14.6635C11.479 13.728 12.6927 12.6535 12.9076 10.1758" stroke="#9DB29D" stroke-width="1.5" stroke-linecap="round" stroke-linejoin="round"/>
</g>
<defs>
<clipPath id="clip0_3915_2497">
<rect width="18.5716" height="19" fill="white"/>
</clipPath>
</defs>
</svg>
