<svg width="40" height="40" viewBox="0 0 40 40" fill="none" xmlns="http://www.w3.org/2000/svg">
<rect width="40" height="40" rx="8" fill="#F4F5FA"/>
<g clip-path="url(#clip0_4072_2452)">
<g clip-path="url(#clip1_4072_2452)">
<path d="M27.9837 19.0807V13.4141C27.9837 12.1641 27.4504 11.6641 26.1254 11.6641H22.7587C21.4337 11.6641 20.9004 12.1641 20.9004 13.4141V19.0807C20.9004 20.3307 21.4337 20.8307 22.7587 20.8307H26.1254C27.4504 20.8307 27.9837 20.3307 27.9837 19.0807Z" fill="#3A643B"/>
<path d="M19.2337 20.9141V26.5807C19.2337 27.8307 18.7004 28.3307 17.3754 28.3307H14.0087C12.6837 28.3307 12.1504 27.8307 12.1504 26.5807V20.9141C12.1504 19.6641 12.6837 19.1641 14.0087 19.1641H17.3754C18.7004 19.1641 19.2337 19.6641 19.2337 20.9141Z" fill="#3A643B"/>
<path d="M27.9837 26.5833V24.25C27.9837 23 27.4504 22.5 26.1254 22.5H22.7587C21.4337 22.5 20.9004 23 20.9004 24.25V26.5833C20.9004 27.8333 21.4337 28.3333 22.7587 28.3333H26.1254C27.4504 28.3333 27.9837 27.8333 27.9837 26.5833Z" fill="#9DB29D"/>
<path d="M19.2337 15.7474V13.4141C19.2337 12.1641 18.7004 11.6641 17.3754 11.6641H14.0087C12.6837 11.6641 12.1504 12.1641 12.1504 13.4141V15.7474C12.1504 16.9974 12.6837 17.4974 14.0087 17.4974H17.3754C18.7004 17.4974 19.2337 16.9974 19.2337 15.7474Z" fill="#9DB29D"/>
</g>
</g>
<defs>
<clipPath id="clip0_4072_2452">
<rect width="21" height="20" fill="white" transform="translate(9.5 10)"/>
</clipPath>
<clipPath id="clip1_4072_2452">
<rect width="21" height="20" fill="white" transform="translate(9.5 10)"/>
</clipPath>
</defs>
</svg>