<svg width="65" height="64" viewBox="0 0 65 64" fill="none" xmlns="http://www.w3.org/2000/svg">
<circle cx="33" cy="32" r="32" fill="#E0E8E2"/>
<path d="M37.531 18.2588C34.8063 19.2316 30.912 19.2316 28.1873 18.2588C26.1619 17.5357 23.9046 17.4717 21.8293 18.224L21.6589 17.7539L21.8293 18.224C17.4704 19.804 15.5311 24.3979 17.4232 28.552L37.531 18.2588ZM37.531 18.2588C39.5565 17.5357 41.8138 17.4717 43.8891 18.224L44.0595 17.7539M37.531 18.2588L44.0595 17.7539M44.0595 17.7539L43.8891 18.224C48.2481 19.804 50.1874 24.3979 48.2953 28.552C48.2952 28.5522 48.2951 28.5524 48.295 28.5526L47.6838 29.6601C45.5383 33.5479 43.9201 37.6251 42.8604 41.8158L41.8658 45.7494C41.5939 46.6219 40.6094 47.3125 39.3838 47.3125C38.058 47.3125 37.0373 46.5124 36.8552 45.5642L35.4486 38.2403C35.2267 37.0847 34.0787 36.3378 32.8592 36.3378C31.6398 36.3378 30.4918 37.0847 30.2699 38.2403L28.8633 45.5642C28.6811 46.5124 27.6605 47.3125 26.3347 47.3125C25.109 47.3125 24.1245 46.6219 23.8527 45.7494L22.858 41.8158C21.7984 37.6251 20.1802 33.5479 18.0346 29.6601L17.4234 28.5526M44.0595 17.7539L17.4234 28.5526M17.4234 28.5526C17.4234 28.5524 17.4233 28.5522 17.4232 28.552L17.4234 28.5526Z" fill="#FDF8E5" stroke="#3A643C"/>
<path d="M21.8038 20.8804L21.732 20.5949C21.644 20.2452 21.3296 20 20.9689 20C20.5961 20 20.2744 20.2617 20.1986 20.6268L20.1471 20.875C19.824 22.4309 18.577 23.6276 17.0092 23.8864L15.4823 24.1384C15.2046 24.1842 15.0009 24.4243 15.0009 24.7057C15.0009 24.9944 15.215 25.2383 15.5013 25.2758L16.8577 25.4534C18.5034 25.669 19.8286 26.9096 20.1519 28.5376L20.2041 28.8007C20.2766 29.1654 20.5966 29.4281 20.9684 29.4281C21.3285 29.4281 21.6417 29.1813 21.726 28.8312L21.7976 28.5334C22.192 26.894 23.5525 25.665 25.2234 25.4387L26.4099 25.278C26.6964 25.2392 26.9102 24.9946 26.9102 24.7054C26.9102 24.4238 26.7071 24.1832 26.4295 24.1358L25.0707 23.9039C23.4789 23.6323 22.1976 22.4465 21.8038 20.8804Z" fill="#3A643C"/>
<path d="M21.5704 22.0786L21.2973 20.2887C21.272 20.1227 21.1292 20 20.9612 20C20.7884 20 20.643 20.1297 20.6234 20.3014L20.4209 22.0749C20.2958 23.1707 19.4226 24.0304 18.325 24.1385L15.2441 24.442C15.1061 24.4556 15.0009 24.5717 15.0009 24.7103C15.0009 24.8521 15.1107 24.9697 15.2522 24.9793L18.2148 25.1817C19.3675 25.2605 20.2982 26.1537 20.4243 27.3022L20.6247 29.1268C20.6436 29.2983 20.7885 29.4281 20.961 29.4281C21.1289 29.4281 21.2713 29.305 21.2957 29.1389L21.5656 27.2996C21.7353 26.1424 22.6877 25.2593 23.8544 25.1772L26.6588 24.9799C26.8004 24.9699 26.9102 24.8521 26.9102 24.7102C26.9102 24.5715 26.8051 24.4553 26.6671 24.4413L23.743 24.1446C22.6324 24.0319 21.7387 23.1821 21.5704 22.0786Z" fill="#3A643C"/>
<path d="M42.2775 36.5536L42.2324 36.374C42.1771 36.1541 41.9794 36 41.7526 36C41.5182 36 41.3159 36.1646 41.2683 36.3941L41.2358 36.5502C41.0327 37.5285 40.2486 38.2809 39.2628 38.4437L38.3028 38.6021C38.1282 38.6309 38.0001 38.7819 38.0001 38.9588C38.0001 39.1403 38.1347 39.2937 38.3147 39.3173L39.1676 39.429C40.2024 39.5645 41.0356 40.3446 41.2389 41.3682L41.2717 41.5336C41.3173 41.7629 41.5185 41.9281 41.7523 41.9281C41.9787 41.9281 42.1756 41.7729 42.2286 41.5528L42.2737 41.3655C42.5216 40.3347 43.3771 39.562 44.4277 39.4197L45.1737 39.3187C45.3539 39.2943 45.4883 39.1404 45.4883 38.9586C45.4883 38.7816 45.3606 38.6303 45.1861 38.6005L44.3317 38.4547C43.3308 38.2839 42.5252 37.5383 42.2775 36.5536Z" fill="#3A643C"/>
<path d="M42.1308 37.3069L41.9591 36.1815C41.9432 36.0771 41.8534 36 41.7478 36C41.6391 36 41.5477 36.0815 41.5354 36.1895L41.408 37.3046C41.3294 37.9936 40.7803 38.5342 40.0902 38.6022L38.153 38.793C38.0663 38.8015 38.0001 38.8745 38.0001 38.9617C38.0001 39.0509 38.0692 39.1248 38.1581 39.1309L40.0209 39.2581C40.7457 39.3076 41.3309 39.8692 41.4102 40.5914L41.5362 41.7386C41.548 41.8465 41.6391 41.9281 41.7476 41.9281C41.8532 41.9281 41.9428 41.8507 41.9581 41.7463L42.1278 40.5898C42.2345 39.8621 42.8333 39.3069 43.5669 39.2553L45.3303 39.1312C45.4193 39.1249 45.4883 39.0509 45.4883 38.9616C45.4883 38.8744 45.4223 38.8014 45.3355 38.7926L43.4968 38.606C42.7985 38.5352 42.2366 38.0008 42.1308 37.3069Z" fill="#3A643C"/>
</svg>
