<svg width="64" height="64" viewBox="0 0 64 64" fill="none" xmlns="http://www.w3.org/2000/svg">
<circle cx="32" cy="32" r="32" fill="#E0E8E2"/>
<path d="M44.3904 36.7827C35.4386 38.7827 23.13 45.7827 25.3679 41.2827C21.4176 38.7907 45.9519 29.3851 34.3195 25.2834C40.3571 19.8851 42.1184 19.2908 46.0688 21.7828C50.0191 24.2748 48.4309 28.3586 44.3904 36.7827Z" fill="#FDF8E5"/>
<path d="M38.9751 38.5C37.2966 43 35.0587 45.5 30.0235 45C25.6976 45 23.3097 41.7615 23.3097 39C21.6312 35 26.2571 37 30.583 37C34.9089 37 38.9751 35.7386 38.9751 38.5Z" fill="#FDF8E5"/>
<path d="M14.509 35.1694C12.8351 36.4167 11.8757 38.3481 11.8757 40.4694V47.5864H11V40.4694C11 38.0616 12.0898 35.8687 13.991 34.4524C15.9303 33.0072 18.3739 32.6037 20.6959 33.347C22.8839 34.0467 24.5363 34.3968 25.4598 34.3501C29.0243 34.1851 32.0359 31.1461 32.0359 27.7144C32.0359 25.7825 31.5534 24.8137 31.0424 23.788C30.4736 22.6439 29.8278 21.3477 29.8278 18.6735V12.0013H30.7035V18.6735C30.7035 21.1356 31.2732 22.2796 31.8244 23.3863C32.3591 24.4601 32.9116 25.5704 32.9116 27.7144C32.9116 31.6069 29.5174 35.0529 25.5 35.2393C24.4518 35.2886 22.7503 34.9372 20.4327 34.1957C18.3805 33.5392 16.221 33.8937 14.509 35.1694ZM36.4626 25.859C36.4626 25.267 36.9364 24.7857 37.5188 24.7857C38.1015 24.7857 38.5753 25.2674 38.5753 25.859C38.5753 26.4506 38.1015 26.9324 37.5188 26.9324C36.9364 26.9319 36.4626 26.4506 36.4626 25.859ZM37.3384 25.859C37.3384 25.9605 37.4194 26.0428 37.5188 26.0428C37.6181 26.0428 37.6996 25.9605 37.6996 25.859C37.6996 25.7576 37.6181 25.6753 37.5188 25.6753C37.4194 25.6753 37.3384 25.7576 37.3384 25.859ZM36.2148 37.5794C36.2148 36.9878 36.6886 36.5061 37.2714 36.5061C37.8542 36.5061 38.3279 36.9878 38.3279 37.5794C38.3279 38.1715 37.8542 38.6528 37.2714 38.6528C36.6886 38.6528 36.2148 38.1715 36.2148 37.5794ZM37.0905 37.5794C37.0905 37.6808 37.172 37.7631 37.2714 37.7631C37.3708 37.7631 37.4522 37.6804 37.4522 37.5794C37.4522 37.4784 37.3712 37.3962 37.2714 37.3962C37.1715 37.3962 37.0905 37.4784 37.0905 37.5794ZM42.615 30.591C42.0326 30.591 41.5589 30.1092 41.5589 29.5176C41.5589 28.926 42.0326 28.4443 42.615 28.4443C43.1978 28.4443 43.6715 28.926 43.6715 29.5176C43.6715 30.1097 43.1978 30.591 42.615 30.591ZM42.615 29.7013C42.7148 29.7013 42.7958 29.6186 42.7958 29.5176C42.7958 29.4167 42.7144 29.3339 42.615 29.3339C42.5156 29.3339 42.4346 29.4162 42.4346 29.5176C42.4346 29.619 42.5156 29.7013 42.615 29.7013ZM43.8129 35.4532C43.8129 36.0453 43.3392 36.5266 42.7564 36.5266C42.174 36.5266 41.7003 36.0448 41.7003 35.4532C41.7003 34.8616 42.174 34.3799 42.7564 34.3799C43.3392 34.3799 43.8129 34.8616 43.8129 35.4532ZM42.9372 35.4532C42.9372 35.3518 42.8558 35.2695 42.7564 35.2695C42.657 35.2695 42.576 35.3518 42.576 35.4532C42.576 35.5546 42.657 35.6369 42.7564 35.6369C42.8558 35.6369 42.9372 35.5542 42.9372 35.4532ZM29.3532 39.6905C29.0624 39.1776 29.2358 38.5198 29.7402 38.224C30.2442 37.9286 30.8914 38.1043 31.1834 38.6167C31.3244 38.8654 31.3621 39.1545 31.2889 39.4316C31.2154 39.7083 31.0407 39.94 30.7964 40.0833C30.6304 40.1802 30.4491 40.2265 30.27 40.2265C29.9049 40.2265 29.5489 40.0339 29.3532 39.6905ZM30.1115 39.2457C30.161 39.3324 30.2709 39.3636 30.3581 39.3124C30.4145 39.2795 30.4356 39.2283 30.4426 39.2008C30.4496 39.1732 30.4566 39.1189 30.4242 39.0615C30.3909 39.0028 30.3296 38.9695 30.2674 38.9695C30.2372 38.9695 30.2057 38.9775 30.1777 38.9939C30.0918 39.0451 30.0621 39.1576 30.1115 39.2457ZM42.3006 31.6105L42.069 30.7524C40.3219 31.2391 39.2899 33.0792 39.7685 34.8545L40.6135 34.6196C40.2619 33.3177 41.0194 31.9677 42.3006 31.6105ZM37.1475 28.7294L36.9132 29.5866C37.2057 29.6693 37.503 29.7102 37.7985 29.7102C38.3573 29.7102 38.9094 29.5639 39.4094 29.277C40.1739 28.8384 40.7243 28.1236 40.9594 27.2647L40.1152 27.0267C39.9427 27.657 39.5395 28.181 38.9786 28.5026C38.4177 28.8237 37.7675 28.9042 37.1475 28.7294ZM35.1224 37.0314L35.5204 36.2392C33.9064 35.4025 31.923 36.055 31.0989 37.6946L31.8787 38.099C32.4834 36.8962 33.9367 36.4171 35.1224 37.0314ZM45.1072 24.3969L45.5972 23.6599C44.0967 22.6306 42.0497 23.0314 41.0352 24.5566L41.7603 25.0548C42.5051 23.9361 44.0065 23.6412 45.1072 24.3969ZM37.2862 35.6218L37.7517 34.8683C37.2928 34.5756 36.9736 34.1192 36.8523 33.5823C36.7311 33.0454 36.8234 32.4934 37.1111 32.0268L36.3698 31.554C35.9574 32.2212 35.8256 33.0121 35.9985 33.7803C36.1715 34.5489 36.629 35.2028 37.2862 35.6218ZM28.7822 40.5712L28.4394 39.7528C27.9437 39.9667 27.3968 39.9721 26.8986 39.7688C26.3994 39.5651 26.0088 39.1759 25.7978 38.6732L24.9921 39.022C25.2942 39.743 25.8556 40.3012 26.571 40.5944C26.92 40.7367 27.2852 40.8079 27.6499 40.8079C28.0344 40.8074 28.4184 40.7287 28.7822 40.5712ZM45.1256 31.098C45.299 31.9619 44.7486 32.8084 43.8979 32.9854L44.073 33.8568C45.3962 33.5819 46.2531 32.2644 45.983 30.9201L45.1256 31.098ZM44.4233 26.4653L43.5485 26.5098C43.5813 27.1739 43.8668 27.7851 44.3519 28.2312C44.8064 28.6485 45.3844 28.8744 45.9926 28.8744C46.0346 28.8744 46.0762 28.8735 46.1182 28.8713L46.0745 27.983C45.648 28.0004 45.2513 27.858 44.9391 27.572C44.6278 27.2842 44.4443 26.8919 44.4233 26.4653ZM29.4793 42.3403C28.907 42.3625 28.3557 42.1663 27.9306 41.7736L27.3412 42.4314C27.903 42.951 28.6202 43.2321 29.3751 43.2321C29.4232 43.2321 29.4723 43.2312 29.5204 43.2285C30.3278 43.1898 31.0722 42.8344 31.616 42.2268L30.9684 41.6281C30.5822 42.06 30.0533 42.3127 29.4793 42.3403ZM31.4956 41.0868L32.1432 41.6855C32.5303 41.254 33.0588 41.0009 33.6328 40.9733C34.2037 40.9413 34.7563 41.1468 35.181 41.5396L35.7704 40.8817C35.1732 40.3293 34.4043 40.0464 33.5912 40.0846C32.7838 40.1233 32.0394 40.4792 31.4956 41.0868ZM48.6863 42.9795C48.6863 46.2991 46.0276 49 42.7599 49C40.5303 49 38.5858 47.7416 37.5744 45.8881C34.9472 47.0201 32.289 47.6051 29.7534 47.6055C28.9412 47.6055 28.1412 47.5464 27.3592 47.4267C24.2106 46.9459 21.7012 45.0243 20.6473 42.286C20.3268 41.4524 19.5798 40.9142 18.7444 40.9142C17.5967 40.9142 16.6921 41.8332 16.6921 42.9626V47.5864H15.8164V42.9626C15.8164 41.3425 17.1138 40.0246 18.7085 40.0246C19.9423 40.0246 21.0098 40.7847 21.463 41.9613C22.4013 44.3993 24.6541 46.1132 27.4892 46.5464C30.5476 47.0139 33.8986 46.4984 37.2114 45.075C37.0489 44.6333 36.9338 44.1689 36.8777 43.6849C34.6022 44.6626 32.2518 45.1826 30.041 45.1826C29.3628 45.1826 28.6911 45.1328 28.0444 45.0349C25.7855 44.6889 23.8038 43.1418 22.9951 41.0934C22.6163 40.1353 22.4749 38.6403 22.5743 36.6507L22.601 36.1204L23.1107 36.2401C24.2824 36.515 25.2452 36.64 25.9615 36.6017C30.6444 36.3842 34.452 32.4925 34.452 27.9256C34.452 26.4311 34.3215 25.9004 34.2072 25.6055L34.0882 25.295L34.3478 25.0913C35.9687 23.8191 37.7828 22.6226 38.866 21.9073C39.1445 21.7236 39.3678 21.5764 39.518 21.4736C40.5785 20.7495 41.6644 20.3429 42.8378 20.2308C43.0331 20.2121 43.2306 20.2024 43.4232 20.2024C45.9773 20.2024 48.9604 21.9291 48.9604 26.7967C48.9604 30.5767 47.6175 34.2424 45.0744 37.4384C45.4974 37.6212 45.891 37.8579 46.257 38.1305C48.9709 34.657 50.4071 30.6661 50.4071 26.5587C50.4071 23.8685 49.569 21.672 47.9831 20.2068C46.5824 18.9124 44.7035 18.3061 42.6916 18.5001C41.2751 18.6366 39.9734 19.1188 38.7119 19.9746C37.8257 20.5756 36.7262 20.701 35.773 20.3113C34.5637 19.8171 33.7856 18.6504 33.7821 17.3355L33.7685 12.0022L34.6442 12L34.6578 17.3324C34.6604 18.2834 35.2231 19.1272 36.0913 19.4822C36.7845 19.766 37.5801 19.6726 38.225 19.2344C39.61 18.295 41.0439 17.7648 42.6084 17.614C44.8686 17.3974 46.9865 18.0828 48.572 19.5485C50.3453 21.1872 51.2828 23.611 51.2828 26.5587C51.2828 30.8783 49.7752 35.0676 46.9261 38.7035C48.012 39.795 48.6863 41.3083 48.6863 42.9795ZM36.8462 42.7286C36.9771 39.5255 39.5758 36.9585 42.7603 36.9585C43.2503 36.9585 43.724 37.0261 44.1799 37.1404C46.7334 34.0427 48.0847 30.4722 48.0847 26.7954C48.0847 22.5848 45.574 21.0906 43.4232 21.0906C43.2573 21.0906 43.087 21.0995 42.9197 21.1156C41.8956 21.2134 40.9428 21.5719 40.0071 22.2107C39.8543 22.3152 39.627 22.4656 39.3433 22.6524C38.3257 23.3241 36.6566 24.425 35.1276 25.6037C35.2375 26.0183 35.3277 26.6748 35.3277 27.9248C35.3277 32.96 31.1453 37.2512 26.0049 37.4896C25.328 37.5247 24.4601 37.4357 23.4285 37.2209C23.3834 38.7991 23.5131 40.0166 23.8077 40.7621C24.5035 42.5231 26.2177 43.8553 28.1749 44.1551C30.8633 44.563 33.9257 44.0434 36.8462 42.7286ZM47.8106 42.9795C47.8106 40.1504 45.5447 37.8485 42.7599 37.8485C39.9751 37.8485 37.7092 40.15 37.7092 42.9795C37.7092 45.8089 39.9751 48.1104 42.7599 48.1104C45.5447 48.1104 47.8106 45.8085 47.8106 42.9795ZM42.252 44.6391L40.5141 42.874L39.895 43.503L42.3785 46.026L45.6944 41.1041L44.9719 40.6015L42.252 44.6391Z" fill="#3A643C"/>
</svg>
