<svg width="14" height="18" viewBox="0 0 14 18" fill="none" xmlns="http://www.w3.org/2000/svg">
<path d="M13.6195 4.95245C13.574 4.88822 13.5233 4.82864 13.468 4.77292L9.32853 0.544784C9.27398 0.488295 9.21565 0.43645 9.15277 0.390022C8.83686 0.136223 8.44596 -0.00153228 8.04367 1.28582e-05H2.48615C1.48236 1.28582e-05 0.667969 0.831853 0.667969 1.85715V15.4762C0.667969 16.5015 1.48236 17.3333 2.48615 17.3333H12.1831C13.1869 17.3333 14.0013 16.5015 14.0013 15.4762V6.08529C14.0028 5.67441 13.868 5.27514 13.6195 4.95245ZM11.9346 4.95245H9.15277V2.11097L11.9346 4.95245ZM12.7892 15.4762C12.7892 15.6403 12.7255 15.7982 12.6119 15.9142C12.4983 16.0303 12.3437 16.0953 12.1831 16.0953H2.48616C2.1513 16.0953 1.8801 15.8183 1.8801 15.4762V1.85721C1.8801 1.51517 2.1513 1.23816 2.48616 1.23816H7.94069V4.95244C7.94069 5.28052 8.06873 5.59548 8.29599 5.82762C8.52326 6.05977 8.83159 6.19053 9.15281 6.19053H12.7892L12.7892 15.4762ZM3.69827 7.42864H10.971C11.3058 7.42864 11.577 7.70565 11.577 8.04768C11.577 8.38971 11.3058 8.66673 10.971 8.66673H3.69827C3.36341 8.66673 3.09221 8.38971 3.09221 8.04768C3.09221 7.70565 3.36341 7.42864 3.69827 7.42864ZM11.577 10.5239C11.577 10.6879 11.5134 10.8458 11.3998 10.9618C11.2861 11.0779 11.1316 11.1429 10.971 11.1429H3.69828C3.36342 11.1429 3.09222 10.8659 3.09222 10.5239C3.09222 10.1818 3.36342 9.90482 3.69828 9.90482H10.971C11.1316 9.90482 11.2861 9.96981 11.3998 10.0859C11.5134 10.202 11.577 10.3598 11.577 10.5239ZM9.15281 13.0001C9.15281 13.1641 9.08917 13.322 8.97553 13.438C8.8619 13.5541 8.70736 13.6191 8.54675 13.6191H3.69828C3.36342 13.6191 3.09222 13.3421 3.09222 13.0001C3.09222 12.658 3.36342 12.381 3.69828 12.381H8.54675C8.70736 12.381 8.86191 12.446 8.97553 12.5621C9.08917 12.6781 9.15281 12.836 9.15281 13.0001Z" fill="#3A643B"/>
</svg>
