<svg width="70" height="65" viewBox="0 0 70 65" fill="none" xmlns="http://www.w3.org/2000/svg">
<path d="M68.5307 15.183C63.5409 12.6527 57.7812 13.1549 52.5085 14.3842C47.9067 15.495 43.4264 17.1071 39.1498 19.0721C30.7265 22.9942 23.0543 28.5665 16.6798 35.3388C13.101 39.1527 9.88498 43.3621 7.22273 47.8904C6.53462 49.0271 8.34437 50.066 8.99272 48.9187C13.5865 41.1578 19.7224 34.3216 26.8933 28.8707C34.0138 23.4489 42.151 19.3222 50.7978 16.9515C56.1344 15.4837 62.3245 14.3297 67.5024 16.953C67.9873 17.2107 68.6186 17.0816 68.9161 16.6073C69.1739 16.1224 69.0156 15.4408 68.5307 15.183Z" fill="#3A643B"/>
<path d="M27.7364 44.0127C22.649 45.5047 17.5325 46.9463 12.445 48.4383C11.8429 48.6179 11.2912 48.7684 10.6891 48.948C10.1374 49.0984 9.55378 49.3682 8.95453 49.3781C8.17492 49.4249 8.03014 48.5338 7.99115 47.8841C7.73434 45.3437 7.65788 42.7663 7.5019 40.1676C7.32252 37.1791 7.10338 34.18 6.92401 31.1915C6.84601 29.8921 4.75928 29.887 4.87703 31.197C5.04861 34.0555 5.22018 36.9141 5.43152 39.7833C5.5953 42.5119 5.6689 45.259 5.96261 47.9798C6.09387 49.0803 6.37352 50.2632 7.30075 50.9378C8.44523 51.7559 9.8298 51.3598 11.034 51.0006C13.713 50.2269 16.392 49.4533 19.0709 48.6796C22.161 47.803 25.2113 46.9157 28.312 45.9993C29.556 45.6508 29.0201 43.6748 27.7364 44.0127Z" fill="#3A643B"/>
</svg>
