<svg width="12" height="8" viewBox="0 0 12 8" fill="#1D1B20" xmlns="http://www.w3.org/2000/svg">
<path id="Vector" d="M5.99571 7.23583C6.05214 7.23615 6.10808 7.22527 6.16031 7.20381C6.21255 7.18235 6.26006 7.15072 6.30013 7.11075L11.8739 1.50393C11.9139 1.46371 11.9456 1.41597 11.9672 1.36343C11.9889 1.31089 12 1.25458 12 1.19771C12 1.14084 11.9889 1.08452 11.9672 1.03198C11.9456 0.979442 11.9139 0.931701 11.8739 0.891488C11.8339 0.851275 11.7865 0.819376 11.7342 0.797613C11.682 0.77585 11.626 0.764648 11.5695 0.764648C11.513 0.764648 11.457 0.77585 11.4047 0.797613C11.3525 0.819376 11.3051 0.851275 11.2651 0.891488L5.99571 6.19641L0.734921 0.900114C0.654185 0.8189 0.544684 0.773274 0.430507 0.773274C0.316329 0.773274 0.206828 0.8189 0.126093 0.900114C0.0453568 0.981329 0 1.09148 0 1.20633C0 1.32119 0.0453568 1.43134 0.126093 1.51255L5.69987 7.11938C5.78002 7.19487 5.88591 7.23655 5.99571 7.23583Z" fill="#1D1B20"/>
</svg>
