<svg width="18" height="18" fill="black" viewBox="0 0 18 18"  xmlns="http://www.w3.org/2000/svg">
<path d="M13.8957 6.46069V13.0836C13.8957 13.6092 13.6802 14.0884 13.3327 14.436L13.3312 14.4375C12.9836 14.7846 12.5048 15 11.9792 15H7.93802C7.79689 15 7.6827 14.8858 7.6827 14.7447C7.6827 14.6036 7.79689 14.4894 7.93802 14.4894H11.9792C12.3662 14.4894 12.7173 14.3313 12.9716 14.0774C13.2269 13.8226 13.3845 13.4711 13.3845 13.0841V7.07015L8.62366 12.744C8.58576 12.7894 8.53489 12.8183 8.48104 12.8298L5.97174 13.4471C5.83511 13.4805 5.69698 13.3973 5.66356 13.2606C5.65708 13.2347 5.65508 13.2083 5.65658 13.1828L5.82962 10.5967C5.83311 10.5409 5.85505 10.49 5.88847 10.4501L8.6915 7.10948C8.78176 7.00177 8.94284 6.98731 9.05055 7.07757C9.15826 7.16783 9.17272 7.32891 9.08246 7.43661L6.48981 10.5264C6.80597 10.671 7.10368 10.848 7.37794 11.054L11.9548 5.59994L11.1734 4.94468L10.1576 6.15547C10.0673 6.26318 9.90627 6.27764 9.79856 6.18738C9.69085 6.09712 9.67638 5.93604 9.76664 5.82834L10.3496 5.13369H5.91595C5.52948 5.13369 5.17792 5.29177 4.9231 5.54609C4.66877 5.80091 4.51069 6.15248 4.51069 6.53894V13.0836C4.51069 13.47 4.66877 13.8211 4.9236 14.0759C5.17842 14.3308 5.52998 14.4888 5.91595 14.4888H6.74125C6.88238 14.4888 6.99657 14.603 6.99657 14.7442C6.99657 14.8853 6.88237 14.9995 6.74125 14.9995H5.91595C5.38935 14.9995 4.90963 14.784 4.5625 14.437C4.21536 14.0899 4 13.6102 4 13.0835V6.53889C4 6.01229 4.21543 5.53357 4.5625 5.18646C4.91058 4.83838 5.3893 4.62296 5.91595 4.62296H10.7785L11.8053 3.39971C12.0048 3.16334 12.2825 3.02921 12.5688 3.00426C12.856 2.97933 13.1527 3.0636 13.3906 3.26257L14.3984 4.10832C14.6363 4.30779 14.7714 4.58655 14.7963 4.87378C14.8213 5.16052 14.737 5.45822 14.5375 5.6956L13.8957 6.46069ZM7.76899 11.3821C8.01981 11.617 8.24672 11.8793 8.44319 12.165L13.1268 6.58334L12.3454 5.92759L7.769 11.3816L7.76899 11.3821ZM13.4548 6.19298L13.777 5.80851L11.8242 4.16986L11.5015 4.55434L13.4548 6.19298ZM14.1051 5.41805L14.1465 5.36868C14.2552 5.23903 14.3011 5.07595 14.2876 4.91788C14.2737 4.7603 14.2004 4.60771 14.0712 4.4995L13.0554 3.64727C12.9273 3.54305 12.7672 3.49967 12.6126 3.51312C12.458 3.52659 12.3084 3.5974 12.2007 3.72206L12.1523 3.77991L14.1051 5.41856L14.1051 5.41805ZM6.31389 11.0052L6.18922 12.8693L8.00289 12.423C7.78846 12.1178 7.53563 11.8426 7.25139 11.6042C6.96665 11.3653 6.65149 11.1634 6.31439 11.0053L6.31389 11.0052ZM9.60459 6.81542C9.51433 6.92313 9.35325 6.93759 9.24554 6.84733C9.13784 6.75707 9.12337 6.59599 9.21363 6.48829L9.24554 6.45039C9.3358 6.34267 9.49688 6.32821 9.60459 6.41847C9.7123 6.50873 9.72676 6.66981 9.6365 6.77752L9.60459 6.81542Z" />
</svg>
