<svg width="64" height="64" viewBox="0 0 64 64" fill="none" xmlns="http://www.w3.org/2000/svg">
<path d="M32 64C49.6731 64 64 49.6731 64 32C64 14.3269 49.6731 0 32 0C14.3269 0 0 14.3269 0 32C0 49.6731 14.3269 64 32 64Z" fill="#E0E8E2"/>
<path fill-rule="evenodd" clip-rule="evenodd" d="M31.8571 44C40.0625 44 46.7143 38.1256 46.7143 34.1176C46.7143 30.1096 40.0625 24.2353 31.8571 24.2353C23.6518 24.2353 17 30.1137 17 34.1176C17 38.1216 23.6518 44 31.8571 44Z" fill="#FDF8E5"/>
<path d="M31.8571 38.3529C34.5923 38.3529 36.8095 36.4567 36.8095 34.1176C36.8095 31.7786 34.5923 29.8824 31.8571 29.8824C29.122 29.8824 26.9048 31.7786 26.9048 34.1176C26.9048 36.4567 29.122 38.3529 31.8571 38.3529Z" fill="#FDF8E5"/>
<path d="M22.9954 23.0114L25.1369 25.5668L22.9954 23.0114Z" fill="#FDF8E5"/>
<path d="M41.4524 23.325L39.3108 25.8805L41.4524 23.325Z" fill="#FDF8E5"/>
<path d="M31.8644 20V24.2353V20Z" fill="#FDF8E5"/>
<path d="M22.9954 23.0114L25.1369 25.5668M41.4524 23.325L39.3108 25.8805M31.8644 20V24.2353M31.8571 44C40.0625 44 46.7143 38.1256 46.7143 34.1176C46.7143 30.1096 40.0625 24.2353 31.8571 24.2353C23.6518 24.2353 17 30.1137 17 34.1176C17 38.1216 23.6518 44 31.8571 44ZM31.8571 38.3529C34.5923 38.3529 36.8095 36.4567 36.8095 34.1176C36.8095 31.7786 34.5923 29.8824 31.8571 29.8824C29.122 29.8824 26.9048 31.7786 26.9048 34.1176C26.9048 36.4567 29.122 38.3529 31.8571 38.3529Z" stroke="#3A643C" stroke-linecap="round" stroke-linejoin="round"/>
</svg>
