<svg width="26" height="19" viewBox="0 0 29 29" fill="none" xmlns="http://www.w3.org/2000/svg">
	<path
		d="M10.5389 21.0798L8.85254 21.9229L12.2252 23.1877H15.1763L16.8626 22.3445L18.1274 21.5014L20.2353 18.9718L20.6569 18.1286L21.0785 16.8639L21.5001 15.5991L20.2353 16.0207H18.549H16.4411L14.3331 15.5991L12.2252 16.4423L10.9605 17.2855L10.5389 18.5502L10.1173 20.2366L10.5389 21.0798Z"
		fill="#3A643B" />
	<path
		d="M15.1756 11.3832L13.4893 12.2264L16.8619 13.4912H19.813L21.4994 12.648L22.7641 11.8048L24.872 9.27529L25.2936 8.43211L25.7152 7.16735L26.1368 5.90259L24.872 6.32418H23.1857H21.0778L18.9698 5.90259L16.8619 6.74576L15.5972 7.58894L15.1756 8.8537L14.754 10.5401L15.1756 11.3832Z"
		fill="#3A643B" />
	<path
		d="M2.10645 14.7557C3.11825 9.69661 6.74387 8.43184 8.4302 8.01025L8.00862 9.69661C8.14915 9.69661 8.68316 10.1182 9.69496 11.8045C10.7068 13.4909 9.55443 15.3178 8.85179 16.0204L7.16545 17.7068L5.9007 18.9715L4.63595 20.2363L3.79278 21.9227C2.44371 19.2245 2.10645 16.0204 2.10645 14.7557Z"
		fill="#3A643B" />
	<path
		d="M9.73658 20.709C8.65674 21.3151 7.73994 22.1739 7.06476 23.2119C7.03206 23.265 7.01024 23.324 7.00058 23.3856C6.99093 23.4471 6.99363 23.51 7.00853 23.5705C7.02343 23.631 7.05023 23.6879 7.08737 23.738C7.12451 23.788 7.17124 23.8301 7.22483 23.8619C7.27843 23.8937 7.33782 23.9145 7.39954 23.9231C7.46125 23.9317 7.52406 23.9279 7.5843 23.9119C7.64454 23.896 7.701 23.8682 7.75038 23.8302C7.79977 23.7922 7.84109 23.7448 7.87194 23.6906C8.15321 23.2365 8.50006 22.8263 8.90125 22.4736C10.4405 23.4122 11.9391 23.8846 13.3814 23.8846C14.1274 23.8847 14.868 23.7577 15.5714 23.5092C20.0703 21.9448 22.2165 15.9348 22.3041 15.6876C22.3447 15.5813 22.3475 15.4643 22.3122 15.3561C22.2769 15.2479 22.2056 15.1551 22.1102 15.0932C22.0221 15.038 21.9172 15.0162 21.8145 15.0317C21.7118 15.0472 21.618 15.099 21.5502 15.1776C21.4 15.2621 20.1485 15.8503 15.3274 15.4185C13.4909 15.2527 12.0643 15.6469 11.0913 16.5855C10.1183 17.5241 9.68966 18.8976 9.73658 20.709ZM15.2398 16.3728C18.3183 16.6481 20.0547 16.5261 21.0246 16.3321C20.2518 18.0278 18.3183 21.5632 15.2523 22.63C13.5284 23.2557 11.6575 22.9867 9.68965 21.8698C11.6356 20.5057 14.4795 19.5859 16.8354 19.3293C16.897 19.3227 16.9567 19.3041 17.0111 19.2744C17.0656 19.2448 17.1136 19.2047 17.1525 19.1565C17.1915 19.1082 17.2205 19.0528 17.238 18.9934C17.2555 18.9339 17.2612 18.8716 17.2546 18.81C17.248 18.7483 17.2294 18.6886 17.1997 18.6342C17.1701 18.5798 17.13 18.5317 17.0817 18.4928C17.0335 18.4539 16.9781 18.4248 16.9186 18.4073C16.8592 18.3898 16.7969 18.3842 16.7353 18.3907C14.6273 18.6449 12.5775 19.2531 10.672 20.1897C10.7158 18.9007 11.0694 17.9183 11.7389 17.2707C12.5085 16.5292 13.6849 16.2226 15.2398 16.3728ZM11.8891 13.8886C11.9945 13.9474 12.1187 13.963 12.2354 13.9321C12.3521 13.9011 12.4523 13.8261 12.5148 13.7228C12.7951 13.2679 13.142 12.8577 13.5441 12.5058C15.0802 13.4444 16.5819 13.9168 18.0242 13.9168C18.7703 13.9169 19.5109 13.7899 20.2142 13.5414C24.7132 11.9583 26.8563 5.96697 26.947 5.71981C26.9875 5.61349 26.9904 5.49648 26.9551 5.38831C26.9198 5.28013 26.8484 5.18733 26.753 5.12537C26.665 5.07024 26.5601 5.04845 26.4574 5.06395C26.3546 5.07944 26.2609 5.1312 26.193 5.20985C26.0397 5.29432 24.7914 5.8825 19.9702 5.45075C18.1306 5.28493 16.7071 5.67914 15.731 6.61773C14.7548 7.55631 14.3387 8.91414 14.3951 10.7413C13.3152 11.3473 12.3984 12.2061 11.7232 13.2442C11.6916 13.2973 11.6709 13.3562 11.6621 13.4174C11.6533 13.4786 11.6567 13.541 11.6722 13.6009C11.6876 13.6608 11.7147 13.717 11.7519 13.7664C11.7891 13.8158 11.8357 13.8573 11.8891 13.8886ZM16.3974 7.29977C17.167 6.55828 18.3433 6.25168 19.8983 6.38934C22.9768 6.66778 24.7132 6.54577 25.6862 6.35179C24.9103 8.05689 22.9831 11.5891 19.9139 12.6685C18.19 13.2629 16.3191 13.0032 14.3387 11.8863C16.2847 10.5222 19.1286 9.60243 21.4845 9.34589C21.6089 9.33261 21.723 9.27043 21.8016 9.17304C21.8803 9.07564 21.917 8.951 21.9037 8.82653C21.8904 8.70207 21.8282 8.58798 21.7308 8.50936C21.6334 8.43073 21.5088 8.39402 21.3843 8.4073C19.2768 8.65946 17.2269 9.26554 15.3211 10.2C15.3743 8.91726 15.7278 7.92549 16.3974 7.29977ZM3.6765 22.3172C3.71464 22.3181 3.75268 22.3128 3.78913 22.3015C3.89061 22.2792 3.98064 22.2211 4.04271 22.1377C4.10477 22.0544 4.13471 21.9515 4.12701 21.8479C4.17394 21.6789 4.64323 20.3774 8.35687 17.2769C9.77413 16.0943 10.5031 14.8085 10.525 13.4538C10.5469 12.0991 9.89927 10.8351 8.57275 9.58992C8.90435 8.39321 8.94085 7.13395 8.67912 5.92004C8.66753 5.85675 8.64304 5.79652 8.60719 5.7431C8.57134 5.68967 8.52489 5.64418 8.47071 5.60947C8.41654 5.57475 8.35581 5.55155 8.29229 5.54129C8.22877 5.53104 8.16382 5.53396 8.10148 5.54987C8.03913 5.56578 7.98073 5.59434 7.92989 5.63377C7.87905 5.67321 7.83686 5.72267 7.80594 5.7791C7.77503 5.83553 7.75604 5.89771 7.75018 5.96179C7.74431 6.02586 7.75168 6.09046 7.77183 6.15156C7.89494 6.67071 7.93924 7.20544 7.90323 7.73777C5.26582 8.3635 3.41682 9.69942 2.45009 11.7017C0.3946 16.0005 3.11648 21.754 3.23224 22.0043C3.27298 22.0885 3.33583 22.16 3.41408 22.2113C3.49233 22.2625 3.58303 22.2916 3.6765 22.2953V22.3172ZM3.30419 12.1053C4.09573 10.4565 5.60371 9.31773 7.78434 8.71703C7.37449 11.0572 6.01356 13.7228 4.52747 15.5625C4.48882 15.6105 4.46002 15.6657 4.44271 15.7249C4.42541 15.7841 4.41994 15.8461 4.42663 15.9074C4.43331 15.9688 4.45201 16.0281 4.48166 16.0822C4.51131 16.1363 4.55133 16.184 4.59943 16.2226C4.68308 16.2891 4.78667 16.3254 4.89352 16.3258C4.96481 16.3268 5.03539 16.3116 5.0999 16.2812C5.16441 16.2509 5.22115 16.2062 5.26582 16.1506C6.57619 14.4817 7.59676 12.6045 8.28492 10.5973C9.16718 11.5359 9.61144 12.4745 9.59267 13.4131C9.5739 14.4831 8.96695 15.5312 7.76244 16.5417C5.39097 18.5221 4.2459 19.8362 3.69527 20.659C3.03201 18.8976 1.89945 15.0337 3.30419 12.1053Z"
		fill="#FFF7E2" />
</svg>