<svg width="26" height="19" viewBox="0 0 26 19" fill="none" xmlns="http://www.w3.org/2000/svg">
	<path
		d="M8.73658 15.709C7.65674 16.3151 6.73994 17.1739 6.06476 18.2119C6.03206 18.265 6.01024 18.324 6.00058 18.3856C5.99093 18.4471 5.99363 18.51 6.00853 18.5705C6.02343 18.631 6.05023 18.6879 6.08737 18.738C6.12451 18.788 6.17124 18.8301 6.22483 18.8619C6.27843 18.8937 6.33782 18.9145 6.39954 18.9231C6.46125 18.9317 6.52406 18.9279 6.5843 18.9119C6.64454 18.896 6.701 18.8682 6.75038 18.8302C6.79977 18.7922 6.84109 18.7448 6.87194 18.6906C7.15321 18.2365 7.50006 17.8263 7.90125 17.4736C9.44052 18.4122 10.9391 18.8846 12.3814 18.8846C13.1274 18.8847 13.868 18.7577 14.5714 18.5092C19.0703 16.9448 21.2165 10.9348 21.3041 10.6876C21.3447 10.5813 21.3475 10.4643 21.3122 10.3561C21.2769 10.2479 21.2056 10.1551 21.1102 10.0932C21.0221 10.038 20.9172 10.0162 20.8145 10.0317C20.7118 10.0472 20.618 10.099 20.5502 10.1776C20.4 10.2621 19.1485 10.8503 14.3274 10.4185C12.4909 10.2527 11.0643 10.6469 10.0913 11.5855C9.11827 12.5241 8.68966 13.8976 8.73658 15.709ZM14.2398 11.3728C17.3183 11.6481 19.0547 11.5261 20.0246 11.3321C19.2518 13.0278 17.3183 16.5632 14.2523 17.63C12.5284 18.2557 10.6575 17.9867 8.68965 16.8698C10.6356 15.5057 13.4795 14.5859 15.8354 14.3293C15.897 14.3227 15.9567 14.3041 16.0111 14.2744C16.0656 14.2448 16.1136 14.2047 16.1525 14.1565C16.1915 14.1082 16.2205 14.0528 16.238 13.9934C16.2555 13.9339 16.2612 13.8716 16.2546 13.81C16.248 13.7483 16.2294 13.6886 16.1997 13.6342C16.1701 13.5798 16.13 13.5317 16.0817 13.4928C16.0335 13.4539 15.9781 13.4248 15.9186 13.4073C15.8592 13.3898 15.7969 13.3842 15.7353 13.3907C13.6273 13.6449 11.5775 14.2531 9.67203 15.1897C9.71583 13.9007 10.0694 12.9183 10.7389 12.2707C11.5085 11.5292 12.6849 11.2226 14.2398 11.3728ZM10.8891 8.88865C10.9945 8.94742 11.1187 8.96298 11.2354 8.93205C11.3521 8.90112 11.4523 8.82612 11.5148 8.72283C11.7951 8.26794 12.142 7.8577 12.5441 7.50579C14.0802 8.44438 15.5819 8.9168 17.0242 8.9168C17.7703 8.91691 18.5109 8.78995 19.2142 8.54137C23.7132 6.95829 25.8563 0.966973 25.947 0.719812C25.9875 0.613487 25.9904 0.49648 25.9551 0.388306C25.9198 0.280131 25.8484 0.187328 25.753 0.125373C25.665 0.0702426 25.5601 0.0484529 25.4574 0.0639474C25.3546 0.0794419 25.2609 0.131197 25.193 0.209846C25.0397 0.294319 23.7914 0.8825 18.9702 0.45075C17.1306 0.284933 15.7071 0.67914 14.731 1.61773C13.7548 2.55631 13.3387 3.91414 13.3951 5.74125C12.3152 6.34729 11.3984 7.20613 10.7232 8.24415C10.6916 8.29731 10.6709 8.35619 10.6621 8.41741C10.6533 8.47863 10.6567 8.54098 10.6722 8.60087C10.6876 8.66077 10.7147 8.71702 10.7519 8.76641C10.7891 8.81579 10.8357 8.85734 10.8891 8.88865ZM15.3974 2.29977C16.167 1.55828 17.3433 1.25168 18.8983 1.38934C21.9768 1.66778 23.7132 1.54577 24.6862 1.35179C23.9103 3.05689 21.9831 6.58911 18.9139 7.66848C17.19 8.26292 15.3191 8.00325 13.3387 6.88633C15.2847 5.52225 18.1286 4.60243 20.4845 4.34589C20.6089 4.33261 20.723 4.27043 20.8016 4.17304C20.8803 4.07564 20.917 3.951 20.9037 3.82653C20.8904 3.70207 20.8282 3.58798 20.7308 3.50936C20.6334 3.43073 20.5088 3.39402 20.3843 3.4073C18.2768 3.65946 16.2269 4.26554 14.3211 5.2C14.3743 3.91726 14.7278 2.92549 15.3974 2.29977ZM2.6765 17.3172C2.71464 17.3181 2.75268 17.3128 2.78913 17.3015C2.89061 17.2792 2.98064 17.2211 3.04271 17.1377C3.10477 17.0544 3.13471 16.9515 3.12701 16.8479C3.17394 16.6789 3.64323 15.3774 7.35687 12.2769C8.77413 11.0943 9.50309 9.80846 9.52499 8.45377C9.54689 7.09907 8.89927 5.83511 7.57275 4.58992C7.90435 3.39321 7.94085 2.13395 7.67912 0.920044C7.66753 0.856754 7.64304 0.796525 7.60719 0.743097C7.57134 0.689669 7.52489 0.644184 7.47071 0.609469C7.41654 0.574753 7.35581 0.551547 7.29229 0.541294C7.22877 0.531042 7.16382 0.53396 7.10148 0.549869C7.03913 0.565777 6.98073 0.594336 6.92989 0.633771C6.87905 0.673205 6.83686 0.722673 6.80594 0.779101C6.77503 0.83553 6.75604 0.897712 6.75018 0.961786C6.74431 1.02586 6.75168 1.09046 6.77183 1.15156C6.89494 1.67071 6.93924 2.20544 6.90323 2.73777C4.26582 3.3635 2.41682 4.69942 1.45009 6.70174C-0.6054 11.0005 2.11648 16.754 2.23224 17.0043C2.27298 17.0885 2.33583 17.16 2.41408 17.2113C2.49233 17.2625 2.58303 17.2916 2.6765 17.2953V17.3172ZM2.30419 7.10533C3.09573 5.45655 4.60371 4.31773 6.78434 3.71703C6.37449 6.05724 5.01356 8.72283 3.52747 10.5625C3.48882 10.6105 3.46002 10.6657 3.44271 10.7249C3.42541 10.7841 3.41994 10.8461 3.42663 10.9074C3.43331 10.9688 3.45201 11.0281 3.48166 11.0822C3.51131 11.1363 3.55133 11.184 3.59943 11.2226C3.68308 11.2891 3.78667 11.3254 3.89352 11.3258C3.96481 11.3268 4.03539 11.3116 4.0999 11.2812C4.16441 11.2509 4.22115 11.2062 4.26582 11.1506C5.57619 9.48175 6.59676 7.6045 7.28492 5.59733C8.16718 6.53592 8.61144 7.47451 8.59267 8.4131C8.5739 9.48308 7.96695 10.5312 6.76244 11.5417C4.39097 13.5221 3.2459 14.8362 2.69527 15.659C2.03201 13.8976 0.899454 10.0337 2.30419 7.10533Z"
		fill="#FFF7E2" />
</svg>