<svg width="18" height="16" viewBox="0 0 18 16" fill="none" xmlns="http://www.w3.org/2000/svg">
<path d="M16.0714 0.332031H1.92857C0.86544 0.332031 0 1.19747 0 2.2606V13.1892C0 14.2523 0.86544 15.1177 1.92857 15.1177H16.0714C16.7022 15.1177 17.2575 14.8092 17.6095 14.3399C17.6103 14.3383 17.6111 14.3375 17.6119 14.3367C17.853 14.0152 18 13.6207 18 13.1892V2.26062C18 1.19749 17.1346 0.332031 16.0714 0.332031ZM1.92857 1.61774H16.0714C16.4258 1.61774 16.7143 1.90622 16.7143 2.2606V12.4354L11.8277 5.71434C11.7088 5.55121 11.5208 5.45318 11.3191 5.44915C11.1254 5.44754 10.9253 5.53754 10.8016 5.69584L7.21043 10.294L5.51489 8.05045C5.39275 7.88973 5.20311 7.79491 5.00221 7.79491H4.99658C4.79328 7.79652 4.60283 7.89536 4.4831 8.05929L1.28568 12.4517V2.26083C1.28568 1.90644 1.57416 1.61797 1.92854 1.61797L1.92857 1.61774ZM5.01099 9.51758L7.59373 12.9343C7.80749 13.2171 8.21088 13.2734 8.49454 13.0596C8.77739 12.8459 8.83363 12.4425 8.61989 12.1588L8.0132 11.3561L11.2902 7.16055L16.1325 13.8205C16.1108 13.8213 16.0932 13.8318 16.0715 13.8318H1.92861C1.91093 13.8318 1.89566 13.823 1.87879 13.8213L5.01099 9.51758Z" fill="#3A643B"/>
<path d="M4.82139 7.27889C6.06209 7.27889 7.07149 6.26962 7.07149 5.02879C7.07149 3.78796 6.06222 2.77869 4.82139 2.77869C3.58056 2.77869 2.57129 3.78796 2.57129 5.02879C2.57129 6.26962 3.58056 7.27889 4.82139 7.27889ZM4.82139 4.06461C5.35335 4.06461 5.78568 4.49694 5.78568 5.02889C5.78568 5.56085 5.35335 5.99318 4.82139 5.99318C4.28943 5.99318 3.85711 5.56085 3.85711 5.02889C3.85711 4.49694 4.28943 4.06461 4.82139 4.06461Z" fill="#3A643B"/>
</svg>
