<svg width="62" height="62" viewBox="0 0 62 62" fill="none" xmlns="http://www.w3.org/2000/svg">
<circle cx="31" cy="31" r="31" fill="#EAF2EA"/>
<path d="M25.2147 42.7513C27.2036 43.9428 30.1143 44.9397 31.4483 44.9397C35.5718 44.9397 41.6114 39.1282 42.0723 32.5871C42.0965 32.3926 42.0238 32.1981 41.8782 32.0522C38.1914 27.8698 37.3424 22.5932 37.1727 21.3288C37.2211 21.1343 37.1484 21.037 37.1484 21.037C37.0999 20.9884 36.9543 21.11 36.9058 21.1829C36.3965 21.8638 35.8628 22.3744 35.4505 22.6662C35.2565 22.7878 34.9897 22.7148 34.9169 22.4717C34.359 20.8668 32.3701 19.7482 31.7394 19.4078C31.6181 19.3349 31.4726 19.3349 31.327 19.3835C29.9687 19.8212 22.4981 22.6905 21.5278 31.1768C21.3095 32.9519 21.3581 34.4838 21.552 35.7726C22.1827 40.1251 25.6512 40.6601 27.0095 40.7087C27.2036 40.7087 27.3006 40.9519 27.1551 41.0978C22.7937 43.8941 15.7793 38.423 15.7793 38.423" fill="#FDF8E5"/>
<path d="M25.2147 42.7513C27.2036 43.9428 30.1143 44.9397 31.4483 44.9397C35.5718 44.9397 41.6114 39.1282 42.0723 32.5871C42.0965 32.3926 42.0238 32.1981 41.8782 32.0522C38.1914 27.8698 37.3424 22.5932 37.1727 21.3288C37.2211 21.1343 37.1484 21.037 37.1484 21.037C37.0999 20.9884 36.9543 21.11 36.9058 21.1829C36.3965 21.8638 35.8628 22.3744 35.4505 22.6662C35.2565 22.7878 34.9897 22.7148 34.9169 22.4717C34.359 20.8668 32.3701 19.7482 31.7394 19.4078C31.6181 19.3349 31.4726 19.3349 31.327 19.3835C29.9687 19.8212 22.4981 22.6905 21.5278 31.1768C21.3095 32.9519 21.3581 34.4838 21.552 35.7726C22.1827 40.1251 25.6512 40.6601 27.0095 40.7087C27.2036 40.7087 27.3006 40.9519 27.1551 41.0978C22.7937 43.8941 15.7793 38.423 15.7793 38.423" stroke="#3A643C" stroke-miterlimit="10" stroke-linecap="round" stroke-linejoin="round"/>
<path d="M38.0213 27.9179C43.2324 27.9179 47.4567 23.683 47.4567 18.4589C47.4567 13.2349 43.2324 9 38.0213 9C32.8103 9 28.5859 13.2349 28.5859 18.4589C28.5859 23.683 32.8103 27.9179 38.0213 27.9179Z" stroke="#3A643C" stroke-miterlimit="10" stroke-linecap="round" stroke-linejoin="round"/>
<path d="M46.6312 22.0859L45.4531 24.1275L54.9642 29.6428L56.1422 27.6012L46.6312 22.0859Z" fill="#3A643C"/>
<path d="M19.0876 40.9149C14.1469 46.8724 12.6739 40.9026 12.5041 37.0121C12.3343 33.1215 17.5007 26.7507 18.6165 24.3434C19.7323 21.9604 18.1314 16.9513 24.4863 13.7659C29.7983 11.0912 33.1698 13.7902 34.1158 14.7385C34.2613 14.8844 34.5039 14.8844 34.6494 14.7385C37.366 11.8206 42.6779 15.1276 43.0661 20.8662C43.4784 26.7993 45.4674 28.4285 46.292 29.62C47.8444 31.8814 51.6768 39.6382 48.0141 42.1428C44.3273 44.6716 42.8478 41.5349 42.8478 41.5349C42.8478 41.5349 40.689 43.9421 38.0937 42.9695C37.6814 42.8236 37.3418 42.5561 37.0749 42.2887" stroke="#3A643C" stroke-miterlimit="10" stroke-linecap="round" stroke-linejoin="round"/>
<path d="M26.7188 43.5527V48.9995" stroke="#3A643C" stroke-miterlimit="10" stroke-linecap="round" stroke-linejoin="round"/>
<path d="M35.959 43.1641V49" stroke="#3A643C" stroke-miterlimit="10" stroke-linecap="round" stroke-linejoin="round"/>
</svg>
