<svg width="21" height="22" viewBox="0 0 21 22" fill="none" xmlns="http://www.w3.org/2000/svg">
<path d="M5.53781 19.235L6.84082 13.602L6.86524 13.4965L6.78336 13.4255L2.41308 9.63656L8.18748 9.13531L8.2955 9.12594L8.33772 9.02606L10.5823 3.7153L12.8268 9.02606L12.869 9.12594L12.977 9.13531L18.7514 9.63656L14.3812 13.4255L14.2993 13.4965L14.3237 13.602L15.6267 19.235L10.6752 16.2481L10.5823 16.192L10.4893 16.2481L5.53781 19.235Z" stroke="#3A643B" stroke-width="0.36"/>
<path d="M5.26659 19.6079L6.66545 13.5605L1.97388 9.49303L8.17192 8.95501L10.5823 3.25195V9.49303V12.4995V14.4995V16.4013L5.26659 19.6079Z" fill="#3A643B"/>
</svg>
