<svg width="25" height="22" viewBox="0 0 25 22" xmlns="http://www.w3.org/2000/svg">
	<path
		d="M12.6327 21.5616C9.83029 21.5616 3.65766 16.3873 1.44793 11.2927C-0.115451 7.73541 0.262512 4.5824 2.52598 2.15679C3.79247 0.755544 5.57173 0.000695115 7.51195 0.000695115H7.56564C9.39854 0.0280667 11.2041 0.701857 12.6052 1.88728C14.0065 0.701857 15.8394 0.0280775 17.6448 0.000695115C19.6388 -0.0266765 21.418 0.755544 22.7119 2.12941C24.9491 4.55501 25.326 7.70803 23.79 11.2653C21.6076 16.3871 15.4351 21.5616 12.6327 21.5616ZM7.51195 2.15679C6.16439 2.15679 4.95159 2.66843 4.08942 3.61172C2.44496 5.39093 2.23022 7.68189 3.41564 10.4306C5.54435 15.3355 11.1778 19.4057 12.6327 19.4057C14.0875 19.4057 19.7211 15.3355 21.8497 10.4306C23.0625 7.68189 22.8204 5.39104 21.1759 3.61172C20.2863 2.66843 19.0472 2.15679 17.6998 2.15679C16.109 2.18416 14.5193 2.88426 13.4412 4.09706C13.2254 4.31288 12.9559 4.44764 12.6327 4.44764C12.3095 4.44764 12.04 4.31288 11.8241 4.09706C10.7461 2.88426 9.1564 2.15679 7.56558 2.15679H7.51195Z"
		fill="currentColor" />
</svg>