<svg width="21" height="20" viewBox="0 0 21 20" fill="none" xmlns="http://www.w3.org/2000/svg">
<path d="M1 7.92703L9.45407 1.38999C10.1114 0.870002 11.0593 0.870002 11.7166 1.38999L19.0569 6.84463C20.9736 8.35775 19.5503 9.85842 18.4648 9.85842H17.5412V15.3109C17.5412 16.7966 16.0583 18 14.2238 18H9.83626" fill="#3A643B"/>
<path d="M1 7.92703L9.45407 1.38999C10.1114 0.870002 11.0593 0.870002 11.7166 1.38999L19.0569 6.84463C20.9736 8.35775 19.5503 9.85842 18.4648 9.85842H17.5412V15.3109C17.5412 16.7966 16.0583 18 14.2238 18H9.83626" stroke="#FFF7E2" stroke-width="1.63703" stroke-linecap="round" stroke-linejoin="round"/>
<path d="M8.48431 19L11.7158 16.2377C15.01 13.2593 13.7865 10.7593 13.7394 10.6667C12.7041 9.07716 11.4021 9 11.355 9C9.06473 9 8.5 10.6821 8.5 10.6821C8.5 10.6821 7.95096 9.01543 5.645 9C5.58225 9 4.29593 9.07716 3.2606 10.6667C3.21354 10.7593 1.98997 13.2593 5.2842 16.2377L8.51569 19H8.48431Z" fill="#3A643B" stroke="#FFF7E2" stroke-width="1.63703" stroke-linecap="round" stroke-linejoin="round"/>
</svg>
