<svg width="64" height="65" viewBox="0 0 64 65" fill="none" xmlns="http://www.w3.org/2000/svg">
<circle cx="32" cy="32" r="32" fill="#E0E8E2"/>
<path d="M49.8156 24.0955C49.8143 23.7252 49.6032 23.3671 49.273 23.1751L41.8719 18.9882C41.5695 18.8171 41.2009 18.8173 40.8913 18.9752C35.9365 21.5017 29.8617 21.5007 24.9077 18.972C24.6017 18.8157 24.2376 18.8136 23.9367 18.9796L16.5115 23.075C16.1813 23.267 15.9702 23.6252 15.9689 23.9955C15.9287 35.1038 23.1184 46.5205 32.8924 51.1487C33.2857 51.3664 33.1458 51.3664 33.5391 51.1487C43.4972 45.6309 49.8187 35.1687 49.8156 24.0955Z" fill="#FDF8E5" stroke="#3A643C" stroke-miterlimit="10"/>
<path opacity="0.5" d="M30.4117 27.4187C30.2791 27.7271 30.2791 28.118 30.2791 28.8999V30.4974C30.2791 30.5353 30.2791 30.5543 30.2669 30.5661C30.2546 30.5779 30.2349 30.5779 30.1955 30.5779H28.537C27.7253 30.5779 27.3194 30.5779 26.9993 30.7057C26.5724 30.876 26.2333 31.2026 26.0564 31.6138C25.9238 31.9222 25.9238 32.3131 25.9238 33.095C25.9238 33.8769 25.9238 34.2678 26.0564 34.5762C26.2333 34.9873 26.5724 35.314 26.9993 35.4843C27.3194 35.612 27.7253 35.612 28.537 35.612H30.1955C30.2349 35.612 30.2546 35.612 30.2669 35.6238C30.2791 35.6356 30.2791 35.6546 30.2791 35.6926V37.2901C30.2791 38.072 30.2791 38.4629 30.4117 38.7713C30.5885 39.1824 30.9277 39.5091 31.3546 39.6794C31.6747 39.8072 32.0806 39.8072 32.8923 39.8072C33.704 39.8072 34.1099 39.8072 34.43 39.6794C34.8569 39.5091 35.196 39.1824 35.3729 38.7713C35.5055 38.4629 35.5055 38.072 35.5055 37.2901V35.6926C35.5055 35.6546 35.5055 35.6356 35.5177 35.6238C35.53 35.612 35.5497 35.612 35.5891 35.612H37.2476C38.0593 35.612 38.4652 35.612 38.7853 35.4843C39.2122 35.314 39.5513 34.9873 39.7282 34.5762C39.8608 34.2678 39.8608 33.8769 39.8608 33.095C39.8608 32.3131 39.8608 31.9222 39.7282 31.6138C39.5513 31.2026 39.2122 30.876 38.7853 30.7057C38.4652 30.5779 38.0593 30.5779 37.2476 30.5779H35.5891C35.5497 30.5779 35.53 30.5779 35.5177 30.5661C35.5055 30.5543 35.5055 30.5353 35.5055 30.4974V28.8999C35.5055 28.118 35.5055 27.7271 35.3729 27.4187C35.196 27.0075 34.8569 26.6809 34.43 26.5105C34.1099 26.3828 33.704 26.3828 32.8923 26.3828C32.0806 26.3828 31.6747 26.3828 31.3546 26.5105C30.9277 26.6809 30.5885 27.0075 30.4117 27.4187Z" fill="#E0E8E2" stroke="#3A643C"/>
<ellipse opacity="0.5" cx="25.25" cy="46.1667" rx="3.125" ry="2.60417" stroke="#3A643C"/>
<path d="M25.25 43.25L25.25 43.4583" stroke="#3A643C" stroke-linecap="round"/>
<path d="M25.25 48.457V49.2904" stroke="#3A643C" stroke-linecap="round"/>
<path d="M22.6159 44.6105C22.828 44.7872 23.172 44.7872 23.3841 44.6105C23.5962 44.4337 23.5962 44.1471 23.3841 43.9703L22.6159 44.6105ZM22.3659 44.4021L22.6159 44.6105L23.3841 43.9703L23.1341 43.7619L22.3659 44.4021Z" fill="#3A643C"/>
<path d="M26.7409 44.2828C26.5288 44.4596 26.5288 44.7462 26.7409 44.923C26.953 45.0997 27.297 45.0997 27.5091 44.923L26.7409 44.2828ZM27.3659 43.7619L26.7409 44.2828L27.5091 44.923L28.1341 44.4021L27.3659 43.7619Z" fill="#3A643C"/>
<path d="M27.8841 47.7216C27.672 47.5448 27.328 47.5448 27.1159 47.7216C26.9038 47.8984 26.9038 48.185 27.1159 48.3618L27.8841 47.7216ZM28.1341 47.9299L27.8841 47.7216L27.1159 48.3618L27.3659 48.5701L28.1341 47.9299Z" fill="#3A643C"/>
<path d="M21.5 46.166L22 46.166" stroke="#3A643C" stroke-linecap="round"/>
<path d="M28 46.166L29 46.166" stroke="#3A643C" stroke-linecap="round"/>
<path d="M23.7591 48.0493C23.9712 47.8725 23.9712 47.5859 23.7591 47.4091C23.547 47.2323 23.203 47.2323 22.9909 47.4091L23.7591 48.0493ZM23.1341 48.5701L23.7591 48.0493L22.9909 47.4091L22.3659 47.9299L23.1341 48.5701Z" fill="#3A643C"/>
<path d="M25.5 44.9167C25.5 45.1468 25.2761 45.3333 25 45.3333C24.7239 45.3333 24.5 45.1468 24.5 44.9167C24.5 44.6865 24.7239 44.5 25 44.5C25.2761 44.5 25.5 44.6865 25.5 44.9167Z" stroke="#3A643C"/>
<path d="M24.5 46.5827C24.5 46.8128 24.2761 46.9993 24 46.9993C23.7239 46.9993 23.5 46.8128 23.5 46.5827C23.5 46.3526 23.7239 46.166 24 46.166C24.2761 46.166 24.5 46.3526 24.5 46.5827Z" stroke="#3A643C"/>
<path d="M27.25 46.9987C27.25 47.2288 27.0261 47.4154 26.75 47.4154C26.4739 47.4154 26.25 47.2288 26.25 46.9987C26.25 46.7686 26.4739 46.582 26.75 46.582C27.0261 46.582 27.25 46.7686 27.25 46.9987Z" stroke="#3A643C"/>
<ellipse cx="0.5" cy="0.416667" rx="0.5" ry="0.416667" transform="matrix(1 0 0 -1 24.75 43.041)" stroke="#3A643C"/>
<path d="M25.75 49.7083C25.75 49.4782 25.5261 49.2917 25.25 49.2917C24.9739 49.2917 24.75 49.4782 24.75 49.7083C24.75 49.9385 24.9739 50.125 25.25 50.125C25.5261 50.125 25.75 49.9385 25.75 49.7083Z" stroke="#3A643C"/>
<ellipse cx="0.5" cy="0.416667" rx="0.5" ry="0.416667" transform="matrix(1 0 0 -1 21.75 44.082)" stroke="#3A643C"/>
<ellipse cx="0.5" cy="0.416667" rx="0.5" ry="0.416667" transform="matrix(1 0 0 -1 27.75 44.082)" stroke="#3A643C"/>
<ellipse cx="0.5" cy="0.416667" rx="0.5" ry="0.416667" transform="matrix(1 0 0 -1 27.75 49.082)" stroke="#3A643C"/>
<path d="M21.5 46.1654C21.5 45.9352 21.2761 45.7487 21 45.7487C20.7239 45.7487 20.5 45.9352 20.5 46.1654C20.5 46.3955 20.7239 46.582 21 46.582C21.2761 46.582 21.5 46.3955 21.5 46.1654Z" stroke="#3A643C"/>
<path d="M30 46.1654C30 45.9352 29.7761 45.7487 29.5 45.7487C29.2239 45.7487 29 45.9352 29 46.1654C29 46.3955 29.2239 46.582 29.5 46.582C29.7761 46.582 30 46.3955 30 46.1654Z" stroke="#3A643C"/>
<ellipse cx="0.5" cy="0.416667" rx="0.5" ry="0.416667" transform="matrix(1 0 0 -1 21.75 49.082)" stroke="#3A643C"/>
</svg>
