<svg width="51" height="59" viewBox="0 0 51 59" fill="none" xmlns="http://www.w3.org/2000/svg">
<path d="M50.5435 0.766855C51.6961 6.2415 49.7203 11.675 47.1682 16.4499C44.9042 20.6073 42.1875 24.5177 39.1826 28.1401C33.214 35.2612 25.8459 41.2298 17.6545 45.6342C13.0443 48.104 8.1459 50.1209 3.08289 51.5205C1.80684 51.8909 1.27173 49.874 2.54778 49.5447C11.2331 47.1161 19.4245 42.9586 26.5456 37.4428C33.6256 31.9682 39.7177 25.1763 44.2456 17.4378C47.0447 12.6629 49.7614 6.98243 48.5677 1.30197C48.4442 0.766856 48.7323 0.190576 49.2675 0.025925C49.8026 -0.0975632 50.42 0.23174 50.5435 0.766855Z" fill="#3A643B"/>
<path d="M12.1392 32.7092C9.38133 37.2371 6.66459 41.8061 3.90669 46.334C3.57739 46.8691 3.28925 47.3631 2.95995 47.8982C2.67181 48.3922 2.2602 48.8861 2.09555 49.4624C1.84857 50.2033 2.67181 50.5738 3.28925 50.7796C5.67669 51.6852 8.14645 52.4261 10.6162 53.2494C13.4564 54.1961 16.2967 55.184 19.1369 56.1308C20.3718 56.5424 19.8367 58.5593 18.6018 58.1066C15.885 57.201 13.1683 56.2954 10.4516 55.3487C7.85832 54.4842 5.2239 53.7022 2.67181 52.7143C1.64274 52.3026 0.572519 51.7263 0.160892 50.6561C-0.33306 49.3389 0.407874 48.104 1.06648 47.0338C2.50717 44.6464 3.94787 42.2589 5.38856 39.8715C7.03507 37.1136 8.68157 34.3968 10.3692 31.6389C11.0278 30.5275 12.7978 31.5566 12.1392 32.7092Z" fill="#3A643B"/>
</svg>
