<svg width="65" height="64" viewBox="0 0 65 64" fill="none" xmlns="http://www.w3.org/2000/svg">
<path d="M32.5 64C50.4493 64 65 49.6731 65 32C65 14.3269 50.4493 0 32.5 0C14.5507 0 0 14.3269 0 32C0 49.6731 14.5507 64 32.5 64Z" fill="#E0E8E2"/>
<g clip-path="url(#clip0_2179_1963)">
<path d="M20.8796 49.6791C20.8585 49.6791 20.8374 49.6791 20.8158 49.6785C19.9371 49.6632 19.2157 48.4936 19.1011 46.8977C19.035 45.9863 18.8647 45.1031 18.6845 44.1672C18.5236 43.3319 18.3575 42.4677 18.2733 41.5851C17.9041 37.7101 17.7069 33.1292 19.0467 28.5311C19.1221 28.2717 19.2029 28.0123 19.2883 27.7541C19.8382 26.0877 20.4496 24.8224 21.213 23.7724C23.191 21.0504 26.6111 19.8581 31.6687 20.139C33.4431 20.2366 36.2717 20.6414 37.9735 21.0425C39.549 21.4129 41.183 21.5448 42.8305 21.4332C45.242 21.2694 47.9969 20.5438 49.5296 19.6686C50.4265 19.1571 51.4942 19.2963 52.2489 20.0256C52.9866 20.7383 53.203 21.8165 52.7994 22.7727C52.2623 24.0453 51.1203 25.5964 49.4039 27.3824C48.9259 27.8804 48.3011 28.5416 47.709 29.2352C46.1295 31.0875 40.3973 37.4397 32.9546 41.4115C31.4575 42.2101 29.9504 42.7602 28.4744 43.0454C26.9533 43.3392 24.8899 44.2433 23.6936 46.8769C23.6585 46.9535 23.6315 47.067 23.5947 47.1982C23.3876 47.9422 22.9038 49.6791 20.8796 49.6791ZM20.1658 28.8893C18.8864 33.2801 19.08 37.7095 19.438 41.4631C19.5164 42.2849 21.058 43.3607 21.213 44.1672C21.392 45.0982 25 44.9077 20.2676 46.8057C20.3425 47.8429 20.7193 48.3991 20.8638 48.4568C21.9355 48.4543 22.2164 47.7711 22.472 46.8536C22.5258 46.6598 18.6196 41.9819 18.6845 41.8384C20.167 38.5737 26.7983 42.1218 28.2626 41.8384C29.6275 41.5741 31.0281 41.0626 32.4245 40.318C39.6865 36.443 45.2923 30.2294 46.8379 28.4177C47.4504 27.7001 48.0911 27.0224 48.5807 26.5127C50.1931 24.8346 51.2526 23.4093 51.7305 22.2771C51.9704 21.7092 51.7463 21.2081 51.4573 20.9284C51.1543 20.6358 50.6365 20.4347 50.0901 20.7469C48.1349 21.8625 45.0735 22.5108 42.9065 22.658C41.1473 22.7757 39.4016 22.6359 37.7179 22.2397C36.0687 21.8514 33.3278 21.4589 31.6078 21.3645C26.8995 21.1038 23.8936 22.1078 22.1444 24.5163C21.4587 25.4596 20.903 26.6164 20.3952 28.1558C20.3133 28.3993 20.2372 28.644 20.1658 28.8893Z" fill="#3A643C"/>
<path d="M44.4998 27.4988C44.9998 31.9988 35.4998 40.4988 23.9998 43.9988C18.738 45.6002 17.9998 36.9988 19.9998 30.0375C19.9998 25.0669 24.9998 20.4988 31.4998 21.0375C37.851 21.0375 54.4998 29.4988 44.4998 27.4988Z" fill="#FDF8E5"/>
<path d="M21.9967 43.5448C21.947 43.5448 21.8973 43.5381 21.8475 43.5246C21.6311 43.4645 21.4655 43.2805 21.4228 43.0499C21.4129 42.9965 21.3936 42.9076 21.3678 42.7886C21.1005 41.5368 20.2867 37.7281 20.8378 34.8387C20.901 34.5069 21.2099 34.291 21.5264 34.3578C21.8434 34.4241 22.0488 34.7473 21.985 35.0797C21.6814 36.6701 21.8007 38.886 22.3378 41.6742C24.3942 39.66 26.739 39.0148 27.7324 38.8228C28.9018 38.5965 30.1421 37.9857 31.0922 37.4797C31.38 37.3257 31.7322 37.4459 31.8791 37.7483C32.0253 38.0501 31.9106 38.4193 31.6228 38.5732C30.6025 39.1179 29.2628 39.7747 27.9447 40.0299C26.9443 40.2231 24.4053 40.9327 22.4408 43.3326C22.3279 43.4688 22.1646 43.5448 21.9967 43.5448Z" fill="#3A643C"/>
<path d="M21.9954 30.6646C21.9322 30.6646 21.8673 30.6535 21.8041 30.6302C21.4987 30.5198 21.3367 30.1702 21.4426 29.8501C21.8773 28.5333 22.959 26.4283 23.5393 25.6292C24.707 24.0217 26.757 23.3047 30.1858 23.3047C30.5088 23.3047 30.7709 23.5795 30.7709 23.918C30.7709 24.2566 30.5088 24.5313 30.1858 24.5313C27.1583 24.5313 25.3956 25.0993 24.4701 26.3725C23.9518 27.0864 22.9426 29.0558 22.5483 30.2518C22.4646 30.5057 22.2376 30.6646 21.9954 30.6646Z" fill="#3A643C"/>
<path d="M36.6206 19.6253C36.2977 19.6253 36.0356 19.3506 36.0356 19.012C36.0356 17.3211 34.7233 15.9454 33.1104 15.9454C32.7875 15.9454 32.5254 15.6706 32.5254 15.3321C32.5254 14.9935 32.7875 14.7188 33.1104 14.7188C35.3686 14.7188 37.2056 16.6446 37.2056 19.012C37.2056 19.3506 36.9435 19.6253 36.6206 19.6253Z" fill="#3A643C"/>
<path d="M38.962 19.6253C38.639 19.6253 38.377 19.3506 38.377 19.012C38.377 18.6735 38.639 18.3987 38.962 18.3987C40.5749 18.3987 41.8871 17.023 41.8871 15.3321C41.8871 14.9935 42.1492 14.7188 42.4722 14.7188C42.7951 14.7188 43.0572 14.9935 43.0572 15.3321C43.0572 17.6995 41.2196 19.6253 38.962 19.6253Z" fill="#3A643C"/>
<path d="M38.9623 22.4719C38.9318 22.4719 38.902 22.4694 38.8716 22.4645C38.4855 22.4007 38.0999 22.329 37.7173 22.2388C37.3634 22.1554 36.9527 22.0726 36.5198 21.9923C36.2407 21.9408 36.0371 21.6856 36.0371 21.3888V14.7189C36.0371 13.7044 36.8246 12.8789 37.7922 12.8789C38.7598 12.8789 39.5473 13.7044 39.5473 14.7189V21.8586C39.5473 22.0377 39.4724 22.2082 39.3425 22.3247C39.2355 22.4204 39.1003 22.4719 38.9623 22.4719ZM37.9741 21.0422C38.1081 21.0735 38.2427 21.103 38.3772 21.1306V14.7189C38.3772 14.3809 38.1151 14.1056 37.7922 14.1056C37.4693 14.1056 37.2072 14.3809 37.2072 14.7189V20.8773C37.4804 20.9312 37.739 20.9864 37.9741 21.0422Z" fill="#3A643C"/>
<path d="M38.9618 37.4122C38.8238 37.4122 38.6845 37.3613 38.5734 37.2577C38.3317 37.0326 38.3101 36.6449 38.5248 36.3916C42.816 31.3305 39.7937 26.9244 39.6633 26.7392C39.4714 26.4675 39.5246 26.0835 39.7832 25.8817C40.0418 25.6793 40.4068 25.7345 40.6005 26.005C40.6385 26.0578 44.3406 31.3802 39.3994 37.2074C39.2836 37.3429 39.1233 37.4122 38.9618 37.4122Z" fill="#3A643C"/>
<path d="M34.8664 49.6779C33.8988 49.6779 33.1113 48.8523 33.1113 47.8379V40.2995C33.1113 40.0751 33.2277 39.869 33.4155 39.7617C34.1743 39.3268 34.9507 38.8453 35.7229 38.332C35.9031 38.2118 36.1313 38.2044 36.3185 38.3124C36.5057 38.4203 36.6215 38.6264 36.6215 38.8496V47.8379C36.6215 48.8523 35.8341 49.6779 34.8664 49.6779ZM34.2814 40.6614V47.8379C34.2814 48.1758 34.5435 48.4512 34.8664 48.4512C35.1894 48.4512 35.4514 48.1758 35.4514 47.8379V39.9493C35.0595 40.1965 34.6687 40.4345 34.2814 40.6614Z" fill="#3A643C"/>
<path d="M26.0476 21.8375C25.8586 21.8375 25.6772 21.7412 25.5661 21.5725C25.0162 20.7372 24.1193 20.2385 23.1663 20.2385H22.5813C21.6136 20.2385 20.8262 19.413 20.8262 18.3986C20.8262 17.3841 21.6136 16.5586 22.5813 16.5586H23.1663C25.6866 16.5586 27.9875 18.1189 29.0277 20.5342C29.1061 20.7157 29.095 20.9255 28.999 21.0966C28.9031 21.2683 28.7334 21.3805 28.5445 21.3977C27.6968 21.4738 26.9087 21.6148 26.202 21.816C26.1505 21.8307 26.099 21.8375 26.0476 21.8375ZM22.5813 17.7852C22.2583 17.7852 21.9962 18.0606 21.9962 18.3986C21.9962 18.7365 22.2583 19.0119 22.5813 19.0119H23.1663C24.3662 19.0119 25.5011 19.5731 26.2769 20.5305C26.6858 20.4287 27.1158 20.3446 27.5628 20.279C26.5992 18.7414 24.9495 17.7852 23.1663 17.7852H22.5813Z" fill="#3A643C"/>
<path d="M45.3976 41.7055H44.2275C41.482 41.7055 39.0371 39.8741 38.1449 37.1479C38.0619 36.894 38.1461 36.6125 38.3526 36.4542C39.0196 35.9421 39.697 35.395 40.3663 34.8277C40.5336 34.686 40.763 34.6517 40.9613 34.7394C41.1602 34.8271 41.2965 35.0221 41.3164 35.2478C41.4574 36.832 42.7088 38.0262 44.2275 38.0262H45.3976C46.3652 38.0262 47.1526 38.8517 47.1526 39.8661C47.1526 40.8806 46.3652 41.7055 45.3976 41.7055ZM39.4045 37.1638C40.2353 39.1633 42.1231 40.4789 44.2275 40.4789H45.3976C45.7205 40.4789 45.9826 40.2035 45.9826 39.8655C45.9826 39.5276 45.7205 39.2522 45.3976 39.2522H44.2275C42.4467 39.2522 40.9279 38.0789 40.3657 36.3947C40.0451 36.6572 39.7239 36.9142 39.4045 37.1638Z" fill="#3A643C"/>
<path d="M43.0001 32.5006C39.5635 35.1259 44.8544 31.6189 44.0001 30.5006C43.1458 29.3823 40.5635 27.1259 44.0001 24.5006C47.4367 21.8752 51.1458 19.8825 52.0001 21.0007C53.0001 22.3097 46.4367 29.8752 43.0001 32.5006Z" fill="#FDF8E5"/>
<path d="M48.5 22.0001C48.5 22.5525 45.9853 24.9999 43.5 24.9999C41.0147 24.9999 36.5 23.0526 36.5 22.5002C36.5 21.9478 41.0147 22.5002 43.5 22.5002C43.5 22.5002 48.5 21.4478 48.5 22.0001Z" fill="#FDF8E5"/>
<path d="M43.9794 30.5954C43.8628 30.4856 43.7476 30.3671 43.6078 30.2885C43.5926 30.28 43.5437 30.2664 43.5878 30.2634C43.6071 30.262 43.6294 30.2607 43.6489 30.2629C43.6922 30.2677 43.6952 30.3345 43.6956 30.365C43.6971 30.4919 43.6298 30.5764 43.5658 30.6786C43.4839 30.8091 43.378 30.943 43.2465 31.0276C43.1627 31.0814 43.3243 31.0758 43.3523 31.0758C43.3709 31.0758 43.4555 31.0884 43.4641 31.0645C43.4848 31.0072 43.561 30.9649 43.6191 30.9649" stroke="#FDF8E5" stroke-linecap="round"/>
<path d="M42.9998 31.5002C42.151 32.7542 41.1668 33.7749 41.4998 34.0002C41.8327 34.2256 44.151 31.2542 44.9998 30.0002C45.8486 28.7463 44.7286 29.6335 44.3957 29.4081C44.0627 29.1827 43.8486 30.2463 42.9998 31.5002Z" fill="#FDF8E5"/>
</g>
<defs>
<clipPath id="clip0_2179_1963">
<rect width="35" height="46" fill="white" transform="translate(18)"/>
</clipPath>
</defs>
</svg>
