<svg width="21" height="21" viewBox="0 0 21 21" fill="none" xmlns="http://www.w3.org/2000/svg">
<path d="M0.140625 16.7896C0.140625 17.8691 0.569427 18.9043 1.3327 19.6676C2.09597 20.4308 3.13119 20.8596 4.21062 20.8596H16.7906C17.8701 20.8596 18.9053 20.4308 19.6685 19.6676C20.4318 18.9043 20.8606 17.8691 20.8606 16.7896V4.20965C20.8606 3.13022 20.4318 2.095 19.6685 1.33172C18.9053 0.568451 17.8701 0.139648 16.7906 0.139648H4.21062C3.13119 0.139648 2.09597 0.568451 1.3327 1.33172C0.569427 2.095 0.140625 3.13022 0.140625 4.20965V16.7896ZM18.6406 4.20965V16.7896C18.6406 17.2803 18.4457 17.7509 18.0988 18.0978C17.7518 18.4447 17.2813 18.6396 16.7906 18.6396H8.28062V2.35965H16.7906C17.2813 2.35965 17.7518 2.55456 18.0988 2.9015C18.4457 3.24844 18.6406 3.719 18.6406 4.20965ZM2.36062 4.20965C2.36062 3.719 2.55554 3.24844 2.90248 2.9015C3.24942 2.55456 3.71997 2.35965 4.21062 2.35965H6.06062V18.6396H4.21062C3.71997 18.6396 3.24942 18.4447 2.90248 18.0978C2.55554 17.7509 2.36062 17.2803 2.36062 16.7896V4.20965Z" fill="#646665"/>
</svg>
