<svg width="24" height="24" viewBox="0 0 24 24" fill="currentColor" xmlns="http://www.w3.org/2000/svg">
	<path
		d="M18.8727 8.66602e-05H4.89272C2.32281 8.66602e-05 0.232361 2.09054 0.232361 4.66045V13.9801C0.232361 16.55 2.32281 18.6404 4.89272 18.6404H12.5652L16.8836 22.9588C17.1064 23.1816 17.4046 23.3007 17.7071 23.3007C17.8578 23.3007 18.0086 23.2712 18.1527 23.2122C18.5885 23.0309 18.8725 22.606 18.8725 22.1353V18.6403C21.4424 18.6403 23.5328 16.5499 23.5328 13.98V4.66036C23.5328 2.09045 21.4426 8.66602e-05 18.8727 8.66602e-05ZM21.2023 13.9801C21.2023 15.2656 20.1571 16.3097 18.8727 16.3097H17.7073C17.064 16.3097 16.5419 16.8317 16.5419 17.475V19.323L13.8705 16.6515C13.6531 16.4331 13.3561 16.3108 13.048 16.3108H4.89269C3.60718 16.3108 2.56307 15.2655 2.56307 13.9811V4.66042C2.56307 3.37491 3.6083 2.3308 4.89269 2.3308H18.8727C20.1582 2.3308 21.2023 3.37602 21.2023 4.66042L21.2023 13.9801Z"
		fill="#8D8D8D" />
</svg>