<svg width="64" height="64" viewBox="0 0 64 64" fill="none" xmlns="http://www.w3.org/2000/svg">
<circle cx="32" cy="32" r="32" fill="#E0E8E2"/>
<path d="M27.366 25.8512C27.2564 25.7569 27.1674 25.6408 27.1045 25.5103C27.0417 25.3797 27.0064 25.2376 27.0008 25.0927C26.9952 24.9478 27.0195 24.8033 27.0722 24.6683C27.1248 24.5333 27.2046 24.4107 27.3067 24.3081C27.4087 24.2056 27.5308 24.1254 27.6651 24.0725C27.7995 24.0196 27.9433 23.9952 28.0875 24.0008C28.2317 24.0064 28.3732 24.0419 28.5031 24.105C28.633 24.1682 28.7485 24.2576 28.8424 24.3677L36.6955 32.2583C36.8905 32.4554 37 32.7221 37 33C37 33.2779 36.8905 33.5446 36.6955 33.7417L28.8424 41.6323C28.7485 41.7424 28.633 41.8318 28.5031 41.895C28.3732 41.9581 28.2317 41.9936 28.0875 41.9992C27.9433 42.0048 27.7995 41.9804 27.6651 41.9275C27.5308 41.8746 27.4087 41.7944 27.3067 41.6919C27.2046 41.5893 27.1248 41.4667 27.0721 41.3317C27.0195 41.1967 26.9952 41.0522 27.0008 40.9073C27.0063 40.7624 27.0417 40.6203 27.1045 40.4897C27.1674 40.3592 27.2564 40.2431 27.366 40.1488L34.4757 33L27.366 25.8512Z" fill="#3A643B"/>
</svg>
