<svg width="36" height="36" viewBox="0 0 36 36" fill="none" xmlns="http://www.w3.org/2000/svg">
<path d="M23.9926 11.4419C22.946 10.3565 21.6455 9.55787 20.2317 9.13265C20.2111 9.12638 20.1901 9.12011 20.1691 9.11417V8.47601C20.1691 7.81442 19.9208 7.19278 19.47 6.72498C19.0191 6.25751 18.4199 6 17.7825 6C16.4667 6 15.396 7.11057 15.396 8.47601V9.11384C15.3753 9.11978 15.3543 9.12605 15.3336 9.13232C13.543 9.67044 11.9313 10.8183 10.795 12.364C9.62082 13.9619 9 15.8707 9 17.8849V27.3267C9 27.7827 9.35607 28.1521 9.79552 28.1521H14.5715C14.9288 29.6473 16.2347 30.7601 17.7825 30.7601C19.3303 30.7601 20.6362 29.6473 20.9935 28.1521H25.7695C26.2089 28.1521 26.565 27.7827 26.565 27.3267V17.8849C26.565 15.4508 25.6514 13.1626 23.9926 11.4419ZM24.974 26.5014H10.591V17.8849C10.591 14.5829 12.7233 11.6357 15.7765 10.7176C16.425 10.5229 17.0999 10.4238 17.7825 10.4238C18.4657 10.4238 19.1403 10.5229 19.7885 10.718C20.9455 11.0659 22.0102 11.7199 22.8674 12.6093C24.2259 14.0183 24.974 15.8918 24.974 17.8849V26.5014Z" fill="#3A643B"/>
<path d="M13.9074 18.1367H12.3164C12.3164 16.8667 12.7078 15.663 13.4486 14.6551C14.1649 13.6806 15.1812 12.9569 16.3105 12.6172L16.7535 14.2025C15.0778 14.7066 13.9074 16.3243 13.9074 18.1367Z" fill="#3A643B"/>
</svg>
