<svg width="24" height="25" viewBox="0 0 24 25" fill="none" xmlns="http://www.w3.org/2000/svg">
<path fill-rule="evenodd" clip-rule="evenodd" d="M10.7637 5.09091C10.7637 4.48836 11.252 4 11.8546 4C12.4571 4 12.9455 4.48836 12.9455 5.09091V5.8358C16.0411 6.35569 18.4 9.04809 18.4 12.2909V17.5273C19.1228 17.5273 19.7091 18.1137 19.7091 18.8364C19.7091 19.5591 19.1228 20.1455 18.4 20.1455H13.5446C13.3512 20.898 12.6676 21.4546 11.8546 21.4546C11.0415 21.4546 10.358 20.898 10.1645 20.1455H5.30909C4.58636 20.1455 4 19.5591 4 18.8364C4 18.1137 4.58636 17.5273 5.30909 17.5273V12.2909C5.30909 9.04809 7.66807 6.35573 10.7636 5.8358L10.7637 5.09091ZM11.2 5.77783C11.4157 5.75653 11.6339 5.74545 11.8546 5.74545C12.0753 5.74545 12.2935 5.75653 12.5091 5.77783V5.09091C12.5091 4.72956 12.2159 4.43636 11.8546 4.43636C11.4932 4.43636 11.2 4.72956 11.2 5.09091V5.77783ZM18.4 19.7092C18.8824 19.7092 19.2728 19.3188 19.2728 18.8365C19.2728 18.3541 18.8824 17.9637 18.4 17.9637H18.1819C18.0617 17.9637 17.9637 17.8657 17.9637 17.7455V12.291C17.9637 8.91681 15.2288 6.18191 11.8546 6.18191C8.48041 6.18191 5.7455 8.91681 5.7455 12.291V17.7455C5.7455 17.8657 5.64749 17.9637 5.52732 17.9637H5.30913C4.82676 17.9637 4.43641 18.3541 4.43641 18.8365C4.43641 19.3188 4.82676 19.7092 5.30913 19.7092H18.4ZM13.0895 20.1455H10.6197C10.7995 20.6543 11.2845 21.0183 11.8546 21.0183C12.4248 21.0183 12.9097 20.6543 13.0895 20.1455Z" fill="#3A643B" stroke="#3A643B" stroke-width="0.7"/>
</svg>
