<svg width="16" height="22" viewBox="0 0 16 22" fill="none" xmlns="http://www.w3.org/2000/svg">
<path d="M4.95385 4.16304L1.73384 8.02718L1.08984 11.0936V18.4L14.8894 18.975L15.4644 10.35L14.8894 8.02718L13.1644 5.175L8.81785 2.875L4.95385 4.16304Z" fill="#3A643B"/>
<path d="M13.6363 4.80234C12.7127 3.84443 11.5651 3.1397 10.3175 2.76446C10.2993 2.75893 10.2808 2.75339 10.2622 2.74815V2.185C10.2622 1.60117 10.0432 1.05259 9.64532 0.639768C9.24743 0.22724 8.71869 0 8.15625 0C6.99515 0 6.05027 0.980045 6.05027 2.185V2.74786C6.03202 2.7531 6.01349 2.75864 5.99524 2.76417C4.41519 3.23904 2.99295 4.25201 1.99023 5.61603C0.954085 7.02609 0.40625 8.71058 0.40625 10.488V18.8201C0.40625 19.2225 0.720462 19.5485 1.10824 19.5485H5.32273C5.63806 20.8679 6.79045 21.85 8.15625 21.85C9.52205 21.85 10.6744 20.8679 10.9898 19.5485H15.2043C15.592 19.5485 15.9063 19.2225 15.9063 18.8201V10.488C15.9063 8.34 15.1001 6.32077 13.6363 4.80234ZM14.5023 18.0918H1.81024V10.488C1.81024 7.57408 3.69186 4.97335 6.3861 4.16315C6.95837 3.99127 7.55394 3.90387 8.15625 3.90387C8.75912 3.90387 9.35441 3.99127 9.92639 4.16344C10.9474 4.47051 11.8869 5.04764 12.6434 5.83249C13.8421 7.0759 14.5023 8.72922 14.5023 10.488V18.0918Z" fill="#9DB29D"/>
<path d="M4.73211 10.7067H3.32812C3.32812 9.58598 3.67351 8.52378 4.3272 7.63434C4.95928 6.77432 5.85614 6.13572 6.85269 5.83594L7.24356 7.23492C5.76488 7.67979 4.73211 9.10732 4.73211 10.7067Z" fill="#9DB29D"/>
</svg>
