<svg width="16" height="22" viewBox="0 0 16 22" fill="none" xmlns="http://www.w3.org/2000/svg">
<path d="M4.40173 3.49322L1.64182 7.07054L1.08984 9.90935V18.3987H14.8894V9.45541L13.7854 6.47432L11.5775 3.49322L7.71362 2.30078L4.40173 3.49322Z" fill="#3A643B"/>
<path d="M13.6363 4.80172C12.7127 3.84394 11.5651 3.13929 10.3175 2.76411C10.2993 2.75857 10.2808 2.75304 10.2622 2.74779V2.18472C10.2622 1.60096 10.0432 1.05245 9.64532 0.639686C9.24743 0.227211 8.71869 0 8.15625 0C6.99515 0 6.05027 0.979919 6.05027 2.18472V2.7475C6.03202 2.75275 6.01349 2.75828 5.99524 2.76381C4.41519 3.23863 2.99295 4.25146 1.99023 5.61531C0.954085 7.02518 0.40625 8.70945 0.40625 10.4866V18.8177C0.40625 19.22 0.720462 19.5459 1.10824 19.5459H5.32273C5.63806 20.8652 6.79045 21.8472 8.15625 21.8472C9.52205 21.8472 10.6744 20.8652 10.9898 19.5459H15.2043C15.592 19.5459 15.9063 19.22 15.9063 18.8177V10.4866C15.9063 8.33892 15.1001 6.31995 13.6363 4.80172ZM14.5023 18.0895H1.81024V10.4866C1.81024 7.57311 3.69186 4.97271 6.3861 4.16262C6.95837 3.99075 7.55394 3.90336 8.15625 3.90336C8.75912 3.90336 9.35441 3.99075 9.92639 4.16291C10.9474 4.46993 11.8869 5.04699 12.6434 5.83174C13.8421 7.07499 14.5023 8.7281 14.5023 10.4866V18.0895Z" fill="#FFF7E2"/>
<path d="M4.73992 10.7139H3.33594C3.33594 9.59331 3.68132 8.53124 4.33501 7.64192C4.96709 6.78201 5.86395 6.14349 6.8605 5.84375L7.25137 7.24255C5.77269 7.68736 4.73992 9.11471 4.73992 10.7139Z" fill="#FFF7E2"/>
</svg>
