<svg width="23" height="23" viewBox="0 0 23 23" fill="none" xmlns="http://www.w3.org/2000/svg">
<path d="M19.7688 15.3323C19.6942 15.2424 19.621 15.1526 19.5491 15.0659C18.5608 13.8705 17.9629 13.1491 17.9629 9.76512C17.9629 8.01316 17.5438 6.57566 16.7177 5.49754C16.1086 4.70107 15.2851 4.09687 14.1998 3.65035C14.1859 3.64258 14.1734 3.63239 14.163 3.62025C13.7726 2.31303 12.7044 1.4375 11.4996 1.4375C10.2948 1.4375 9.22698 2.31303 8.8366 3.61891C8.82619 3.6306 8.81389 3.64047 8.80022 3.64811C6.26752 4.69074 5.03666 6.69111 5.03666 9.76377C5.03666 13.1491 4.43965 13.8705 3.45047 15.0646C3.3786 15.1512 3.30538 15.2393 3.2308 15.3309C3.03818 15.5632 2.91614 15.8459 2.87912 16.1454C2.8421 16.4449 2.89165 16.7487 3.02192 17.0209C3.29909 17.6049 3.88981 17.9674 4.56409 17.9674H18.44C19.1111 17.9674 19.6978 17.6053 19.9759 17.024C20.1067 16.7518 20.1567 16.4477 20.12 16.1478C20.0833 15.848 19.9614 15.565 19.7688 15.3323Z" fill="#3A643B"/>
<path d="M11.4991 21.5625C12.1483 21.562 12.7852 21.3858 13.3423 21.0526C13.8994 20.7194 14.3559 20.2416 14.6634 19.6699C14.6779 19.6425 14.6851 19.6119 14.6842 19.5809C14.6833 19.5499 14.6745 19.5197 14.6585 19.4931C14.6425 19.4666 14.6199 19.4447 14.5929 19.4294C14.5659 19.4142 14.5354 19.4062 14.5044 19.4063H8.49477C8.46374 19.4061 8.43321 19.4141 8.40616 19.4293C8.3791 19.4445 8.35644 19.4664 8.34038 19.4929C8.32433 19.5195 8.31542 19.5498 8.31453 19.5808C8.31364 19.6118 8.32079 19.6425 8.3353 19.6699C8.6428 20.2415 9.09926 20.7193 9.65627 21.0525C10.2133 21.3856 10.8501 21.5619 11.4991 21.5625Z" fill="#3A643B"/>
</svg>
