<svg width="20" height="24" viewBox="0 0 20 24" fill="none" xmlns="http://www.w3.org/2000/svg">
<path d="M18.9409 15.985L18.9414 15.9855C18.9731 16.0235 19.0149 16.0739 19.0579 16.1258C19.1064 16.1843 19.1566 16.2448 19.196 16.2919C19.3576 16.4857 19.4595 16.721 19.4902 16.9698C19.5209 17.2187 19.4791 17.4713 19.3694 17.6978L19.3691 17.6985C19.1347 18.1847 18.6359 18.5 18.0402 18.5H1.96576C1.36496 18.5 0.863151 18.1831 0.630303 17.6963L0.629605 17.6949C0.520436 17.4685 0.479011 17.2161 0.509985 16.9675C0.540961 16.7188 0.643122 16.4838 0.804893 16.2902L0.80491 16.2902L0.807844 16.2866C0.881914 16.1963 0.954785 16.1091 1.02817 16.0213C1.03857 16.0089 1.04898 15.9964 1.0594 15.984L1.05951 15.9838L1.07593 15.9642C1.63965 15.289 2.14753 14.6808 2.49381 13.733C2.83964 12.7865 3.01322 11.5379 3.01322 9.57048C3.01322 7.8706 3.35623 6.51095 4.01782 5.44423C4.67673 4.38181 5.67637 3.56986 7.06215 3.00382L7.0896 2.9926L7.11553 2.97822C7.17986 2.94255 7.23792 2.89637 7.28723 2.84147L7.36179 2.75845L7.39398 2.65161C7.7933 1.32617 8.86011 0.5 10.0001 0.5C11.1401 0.5 12.2074 1.32614 12.6068 2.65303L12.6375 2.75503L12.7071 2.83567C12.7579 2.89454 12.8187 2.9438 12.8866 2.98127L12.9122 2.99539L12.9392 3.00644C14.1292 3.49219 15.006 4.13775 15.649 4.97198L15.6493 4.97235C16.5214 6.10167 16.9876 7.63682 16.9876 9.57203C16.9876 11.5387 17.1614 12.787 17.5074 13.7335C17.8532 14.6797 18.3601 15.2879 18.9222 15.9625L18.9409 15.985Z" stroke="#9DB29D"/>
<path d="M12.0384 22.8737C11.4181 23.2847 10.7138 23.4993 9.99978 23.5C9.28585 23.4992 8.58166 23.2846 7.96141 22.8736C7.44474 22.5312 7.00128 22.0622 6.66569 21.5H13.3343C12.9987 22.0623 12.5551 22.5313 12.0384 22.8737Z" stroke="#9DB29D"/>
</svg>
