
<svg width="40" height="40" viewBox="0 0 40 40" fill="none" xmlns="http://www.w3.org/2000/svg">
<rect width="40" height="40" rx="8" fill="#F4F5FA"/>
<path d="M28.9362 14.8945H25.6804L22.5671 24.2976H12.2676" stroke="#9DB29D" stroke-width="1.5" stroke-linecap="round" stroke-linejoin="round"/>
<path d="M14.8648 27.3347C15.5884 27.3347 16.175 26.7482 16.175 26.0248C16.175 25.3013 15.5884 24.7148 14.8648 24.7148C14.1413 24.7148 13.5547 25.3013 13.5547 26.0248C13.5547 26.7482 14.1413 27.3347 14.8648 27.3347Z" stroke="#9DB29D" stroke-width="1.5" stroke-linecap="round" stroke-linejoin="round"/>
<path d="M19.5855 27.3347C20.3091 27.3347 20.8957 26.7482 20.8957 26.0248C20.8957 25.3013 20.3091 24.7148 19.5855 24.7148C18.862 24.7148 18.2754 25.3013 18.2754 26.0248C18.2754 26.7482 18.862 27.3347 19.5855 27.3347Z" stroke="#9DB29D" stroke-width="1.5" stroke-linecap="round" stroke-linejoin="round"/>
<path d="M21.2432 11.6089L21.2309 11.6048C19.9233 11.178 18.5172 11.8919 18.0903 13.1993L16.3553 18.5132C15.9284 19.8206 16.6423 21.2264 17.9499 21.6533L17.9623 21.6573C19.2698 22.0841 20.6759 21.3702 21.1028 20.0629L22.8379 14.7489C23.2648 13.4415 22.5508 12.0357 21.2432 11.6089Z" fill="#3A643B" stroke="#9DB29D" stroke-width="1.5" stroke-linecap="round" stroke-linejoin="round"/>
<path d="M14.7854 21.8042C16.4618 21.8042 17.8208 20.4454 17.8208 18.7693C17.8208 17.0932 16.4618 15.7344 14.7854 15.7344C13.109 15.7344 11.75 17.0932 11.75 18.7693C11.75 20.4454 13.109 21.8042 14.7854 21.8042Z" fill="#3A643B" stroke="#9DB29D" stroke-width="1.5" stroke-linecap="round" stroke-linejoin="round"/>
<path d="M17.3535 15.7344L21.9325 17.174" stroke="#9DB29D" stroke-width="1.5" stroke-linecap="round" stroke-linejoin="round"/>
</svg>