<svg width="18" height="18" stroke="black" viewBox="0 0 18 18" fill="none" xmlns="http://www.w3.org/2000/svg">
<path d="M4 12.8C4 13.8373 4 14.3554 4.3223 14.6777C4.6446 15 5.1627 15 6.2 15C7.2373 15 7.7554 15 8.0777 14.6777C8.4 14.3554 8.4 13.8373 8.4 12.8V6.2C8.4 5.1627 8.4 4.6446 8.0777 4.3223C7.7554 4 7.2373 4 6.2 4C5.1627 4 4.6446 4 4.3223 4.3223C4 4.6446 4 5.1627 4 6.2V10.6M15 6.2C15 5.1627 15 4.6446 14.6777 4.3223C14.3554 4 13.8373 4 12.8 4C11.7627 4 11.2446 4 10.9223 4.3223C10.6 4.6446 10.6 5.1627 10.6 6.2V12.8C10.6 13.8373 10.6 14.3554 10.9223 14.6777C11.2446 15 11.7627 15 12.8 15C13.8373 15 14.3554 15 14.6777 14.6777C15 14.3554 15 13.8373 15 12.8V8.4"  stroke-width="0.6" stroke-linecap="round"/>
</svg>
