<svg width="64" height="64" viewBox="0 0 64 64" fill="none" xmlns="http://www.w3.org/2000/svg">
<path d="M32 64C49.6731 64 64 49.6731 64 32C64 14.3269 49.6731 0 32 0C14.3269 0 0 14.3269 0 32C0 49.6731 14.3269 64 32 64Z" fill="#E0E8E2"/>
<path d="M29.7882 51.75C29.7148 51.6258 29.6766 51.4891 29.6546 51.3356C29.6406 51.2372 29.6336 51.1352 29.6275 51.0251C29.6265 51.0067 29.6255 50.988 29.6245 50.969C29.6196 50.8775 29.6144 50.7798 29.6051 50.684C29.5712 50.3381 29.5419 49.9848 29.5124 49.6294C29.4712 49.1323 29.4296 48.6308 29.3748 48.1392C29.3436 47.8597 29.326 47.5774 29.31 47.2891C29.3077 47.2482 29.3055 47.2073 29.3032 47.1662C29.2897 46.9189 29.2759 46.667 29.2542 46.416C29.2213 46.0362 29.1828 45.6572 29.1444 45.2802L29.1395 45.2322C29.1026 44.8708 29.0659 44.5112 29.0339 44.1515C29.0243 44.0436 29.0206 43.936 29.0166 43.8203C29.0159 43.7984 29.0151 43.7761 29.0143 43.7536C29.0093 43.6154 29.0024 43.4672 28.9817 43.3161C28.9636 43.1834 28.928 43.0481 28.8502 42.9279C28.7693 42.8029 28.6547 42.7122 28.5094 42.6516C28.0413 42.4564 27.6186 42.2126 27.2417 41.884C26.8514 41.5436 26.5918 41.1258 26.4174 40.6448C26.287 40.2853 26.2405 39.9006 26.2516 39.498C26.2595 39.209 26.2973 39.1289 26.3277 39.0971C26.3578 39.0657 26.4381 39.0221 26.7343 39.0033C26.7633 39.0015 26.787 39.0019 26.819 39.0025C26.8382 39.0028 26.8603 39.0032 26.8883 39.0032C27.7942 39.0032 28.7002 39.0031 29.6061 39.003C32.9766 39.0026 36.3469 39.0023 39.7172 39.0069C39.8652 39.0071 40.0122 39.0203 40.1721 39.0346C40.2041 39.0375 40.2367 39.0404 40.2699 39.0432C40.4627 39.0599 40.6722 39.0743 40.8869 39.057C41.0448 39.0443 41.1853 39.023 41.303 38.9827C41.4241 38.9411 41.5364 38.874 41.6149 38.7612C41.6918 38.6505 41.7154 38.5256 41.719 38.4094C41.7226 38.295 41.7073 38.1672 41.6866 38.0339C41.6274 37.654 41.6755 37.2631 41.7977 36.88C41.8417 36.7421 41.9174 36.6582 42.012 36.6029C42.1129 36.544 42.2483 36.5106 42.4139 36.5035C42.7423 36.4894 43.0669 36.4925 43.399 36.4956C43.556 36.4971 43.7146 36.4986 43.8761 36.4983C43.9596 36.4982 44.0434 36.4966 44.1161 36.4847C44.1903 36.4725 44.2858 36.4449 44.3637 36.3665C44.4416 36.2883 44.4688 36.1928 44.4807 36.1186C44.4924 36.0459 44.4939 35.9619 44.4939 35.8779C44.4941 33.4061 44.4941 30.9342 44.4941 28.4623C44.4941 27.5298 44.4941 26.5972 44.4941 25.6646C44.4941 25.4515 44.5377 25.3722 44.573 25.3377C44.6103 25.3014 44.6975 25.2571 44.9232 25.2566C44.9932 25.2565 45.0558 25.2546 45.1137 25.2528C45.2352 25.2492 45.3365 25.2461 45.4437 25.2609C45.5524 25.276 45.646 25.3088 45.7313 25.3816C45.75 31.389 45.75 37.3913 45.75 43.4197C45.6842 43.6194 45.5918 43.7418 45.4455 43.8218C45.3131 43.8941 45.2418 44.002 45.2007 44.102C45.1724 44.171 45.1537 44.2525 45.1414 44.3056C45.1385 44.3182 45.136 44.3292 45.1338 44.338C45.0168 44.8082 44.8996 45.2784 44.7824 45.7487C44.3237 47.5893 43.8648 49.4306 43.4149 51.274C43.3839 51.4011 43.3566 51.5022 43.3123 51.5921L43.5365 51.7026L43.3123 51.5921C43.2857 51.6461 43.2623 51.6776 43.2399 51.6976C43.2229 51.7127 43.1997 51.7275 43.1603 51.7372C38.6995 51.7499 34.2568 51.75 29.7882 51.75Z" fill="#FDF8E5" stroke="#3A643B" stroke-width="0.5"/>
<path d="M22.1232 14.2676C22.6883 14.251 23.2476 14.2501 23.8301 14.25C23.9044 14.3077 23.9838 14.3361 24.0524 14.3516C24.0945 14.3611 24.1359 14.3664 24.164 14.37C24.1663 14.3703 24.1685 14.3706 24.1707 14.3709C24.2039 14.3751 24.2184 14.3775 24.2284 14.3802C25.6163 14.7478 26.6233 15.5834 27.2615 16.8588C27.758 17.8508 27.8595 18.9116 27.6408 20.0197C27.4579 20.9467 27.0204 21.7358 26.3578 22.3872C25.6018 23.1303 24.6882 23.5699 23.6203 23.7037C22.5894 23.8329 21.6277 23.6992 20.7277 23.2084C19.9407 22.7792 19.3298 22.1732 18.8768 21.3881C18.3498 20.4748 18.1758 19.485 18.2778 18.4469C18.3806 17.3995 18.7983 16.4818 19.5327 15.7013C20.2405 14.949 21.1089 14.5132 22.1232 14.2676Z" fill="#FDF8E5" stroke="#3A643B" stroke-width="0.5"/>
<path d="M17.0586 29.111C17.0893 29.0649 17.1371 29.0502 17.1482 29.0219C17.3804 28.4297 17.458 28.5483 18.0346 28.717C18.3481 28.8088 18.6388 28.9665 18.9638 29.0345C19.161 29.0758 19.2862 29.021 19.3623 28.8427C19.42 28.7074 19.4994 28.5784 19.5383 28.4385C19.6173 28.1547 19.8291 28.125 20.05 28.2035C20.6221 28.4068 21.2158 28.5474 21.7772 28.7825C21.9925 28.8727 22.1613 28.7765 22.2791 28.5807C22.5421 28.1436 22.6569 28.1056 23.1592 28.2739C24.0391 28.5686 24.9197 28.8614 25.7963 29.1653C25.8614 29.1879 26.0387 29.1608 25.9784 29.3119C25.9334 29.425 25.8243 29.343 25.7343 29.3315C25.3199 29.2786 24.9021 29.2504 24.4879 29.1963C24.0658 29.1412 23.6376 29.1332 23.2208 29.0355C22.9281 28.9669 22.8049 29.037 22.7505 29.345C22.7212 29.5105 22.6468 29.5451 22.5022 29.538C21.9422 29.5106 21.3993 29.3743 20.8493 29.2861C20.7233 29.2659 20.5903 29.2445 20.462 29.2102C20.2219 29.1459 20.0397 29.2113 20.0084 29.5113C19.9877 29.7092 19.8633 29.835 19.6163 29.8239C19.0929 29.8004 18.5778 29.7162 18.0588 29.6605C17.7399 29.6263 17.411 29.6783 17.0807 29.5449C17.0586 29.4037 17.0586 29.2699 17.0586 29.111Z" fill="#3A643B"/>
<path d="M28.9322 20.6457L28.7488 20.484L28.9322 20.6457C29.3367 20.187 29.9139 19.8787 30.5507 19.7441C31.4367 19.5568 32.1981 19.7823 33.0021 20.2259C33.6513 20.584 34.2895 20.94 34.8996 21.3412C35.8712 21.9801 36.7385 22.7402 37.5091 23.5926C38.7283 24.9411 39.6024 26.4907 40.1411 28.2158C40.4175 29.1007 40.6131 29.9972 40.7156 30.9167C40.7992 31.6665 40.7932 32.4214 40.7493 33.1766C40.6908 34.184 40.5236 35.1423 39.9375 35.9501C39.2443 36.9054 38.3224 37.5108 37.1282 37.7114C36.4216 37.83 35.7214 37.7716 35.0252 37.5896C34.5125 37.4556 33.9908 37.3973 33.482 37.3798C33.1556 37.3686 32.83 37.3584 32.5049 37.3483C31.9744 37.3318 31.4452 37.3154 30.9156 37.2942C30.0433 37.2593 29.173 37.2528 28.3047 37.2607C27.5437 37.2677 26.7827 37.3089 26.0286 37.3497C25.9022 37.3566 25.7759 37.3634 25.6499 37.3701C25.387 37.384 25.1451 37.4386 24.9613 37.6106C24.7802 37.78 24.6989 38.023 24.6534 38.3043C24.5699 38.8207 24.5115 39.3422 24.4539 39.8563C24.4395 39.9851 24.4251 40.1135 24.4104 40.2412C24.3289 40.9494 24.2489 41.6598 24.1809 42.3717C24.1505 42.6902 24.1423 43.012 24.1344 43.3182L24.1339 43.337C24.1258 43.6545 24.107 43.9635 24.0879 44.2772C24.075 44.4907 24.0619 44.7063 24.0519 44.9283C24.0355 45.2925 24.0315 45.6572 24.0275 46.0167C24.0269 46.0738 24.0263 46.1307 24.0256 46.1875C24.0206 46.604 24.0131 47.014 23.9845 47.421C23.9745 47.5639 23.9714 47.7128 23.9684 47.8544C23.967 47.9228 23.9656 47.9896 23.9634 48.0531C23.9566 48.2561 23.9424 48.4465 23.9014 48.6317C23.6666 49.6923 22.5487 50.3079 21.4209 49.9937C20.6362 49.7752 20.1123 49.0271 20.0761 48.2318C19.9791 46.1007 19.9627 43.9689 19.9859 41.8346C19.9969 40.8201 20.0639 39.8021 20.1595 38.7869L20.1644 38.7347C20.2545 37.7773 20.3422 36.8449 20.6017 35.9392C20.9055 34.8791 21.4481 34.043 22.4475 33.5579C23.032 33.2741 23.6787 33.1436 24.3578 33.0105C24.5516 32.9725 24.7371 32.9429 24.9273 32.9125C25.0667 32.8903 25.2087 32.8676 25.3583 32.841C25.4221 32.8296 25.4514 32.8428 25.4755 32.8596C25.5125 32.8853 25.5525 32.9327 25.6102 33.0199L25.8187 32.882L25.6102 33.0199C25.9937 33.5995 26.5152 34.0337 27.2541 34.1835C27.7377 34.2815 28.2319 34.2416 28.6809 34.2054C28.8011 34.1956 28.918 34.1862 29.0307 34.1797C29.5525 34.1498 30.0728 34.0678 30.5798 33.9742C31.249 33.8507 31.8895 33.657 32.5162 33.4237C33.1475 33.1888 33.6887 32.8166 34.2011 32.4641L34.2126 32.4562L34.0709 32.2503L34.2126 32.4562C34.3448 32.3653 34.4936 32.2409 34.5847 32.0496C34.6851 32.0193 34.7658 31.9648 34.8301 31.9054C34.8774 31.8616 34.9162 31.8148 34.9464 31.7764C34.961 31.758 34.9724 31.7432 34.9823 31.7302C34.9966 31.7117 35.0081 31.6967 35.0226 31.6794C35.663 30.9126 36.0769 30.0394 36.2181 29.0431C36.4291 27.5546 36.0858 26.1702 35.5446 24.8331C34.9761 23.4288 34.1665 22.1685 33.1976 21.0195C32.4555 20.1397 31.0831 19.5289 29.8667 20.2874C29.2703 20.6593 28.812 21.4038 28.5933 22.1643C28.4038 22.8235 28.3758 23.5624 28.6557 24.1335C28.6332 24.1019 28.6114 24.0697 28.5904 24.0368C28.208 23.4371 28.148 22.7815 28.2462 22.066C28.3193 21.5331 28.569 21.0575 28.9322 20.6457Z" fill="#FDF8E5" stroke="#3A643B" stroke-width="0.5"/>
<path d="M34.4067 32.0229L34.3519 31.934C34.3613 31.9308 34.3722 31.9281 34.3845 31.9268C34.3874 31.9265 34.3904 31.9263 34.3933 31.9262C34.4146 31.9253 34.4366 31.9289 34.4575 31.9377C34.4487 31.9465 34.4399 31.9553 34.4311 31.9641C34.4183 31.9768 34.4129 31.9964 34.4067 32.0229ZM34.2658 31.9679C34.1427 32.0231 34.0386 32.0982 33.9459 32.1737C33.9013 32.2101 33.8574 32.2483 33.8156 32.2845C33.8047 32.294 33.794 32.3033 33.7835 32.3124C33.7313 32.3576 33.6816 32.3995 33.6309 32.4373C32.8565 33.015 31.9587 33.3199 31.0132 33.565C30.3842 33.7282 29.7374 33.8025 29.0758 33.8601C28.8089 33.8834 28.5521 33.8866 28.2894 33.8899C28.1169 33.892 27.9419 33.8942 27.7598 33.9021C27.0741 33.9319 26.5505 33.646 26.1713 33.1058C25.4409 32.0653 25.8915 30.5368 27.2921 30.2084C27.5215 30.1546 27.762 30.133 28.0127 30.1199C28.0973 30.1155 28.1843 30.1121 28.2725 30.1086C28.44 30.102 28.6115 30.0952 28.7781 30.0813C29.5383 30.0182 30.3093 29.9046 31.0205 29.5586C31.3337 29.4063 31.574 29.2024 31.7022 28.9125C31.8298 28.6241 31.8355 28.2752 31.7315 27.8547C31.4069 26.5432 30.7378 25.4094 29.943 24.3495C29.6502 23.959 29.4273 23.5812 29.3588 23.1097C29.299 22.6977 29.3934 22.3328 29.5866 21.9867C30.1699 20.9418 31.5959 20.776 32.5028 21.4115L32.5888 21.2886L32.5028 21.4115C32.6929 21.5447 32.8189 21.7168 32.9603 21.91C32.9926 21.9541 33.0257 21.9992 33.0605 22.0453C34.0362 23.3358 34.8307 24.7125 35.3304 26.2427C35.642 27.1967 35.7203 28.1746 35.6252 29.1553C35.5252 30.1865 35.0845 31.1023 34.3253 31.8578C34.2883 31.8945 34.2744 31.9377 34.268 31.96C34.2672 31.9626 34.2665 31.9653 34.2658 31.9679Z" fill="#FDF8E5" stroke="#3A643B" stroke-width="0.3"/>
<path d="M22.0265 30.4218C23.1538 30.2185 24.2601 30.0323 25.3637 29.8316C25.4958 29.8076 25.568 29.9146 25.6942 29.936C25.211 30.1031 24.7327 30.2856 24.2432 30.4333C23.6323 30.6175 23.0476 30.8743 22.423 31.022C22.067 31.1062 22.0119 31.2595 22.1663 31.5794C22.261 31.7756 22.2409 31.8531 21.9901 31.919C20.7822 32.236 19.5711 32.5391 18.3565 32.8308C18.1666 32.8764 18.0694 32.8478 18.0294 32.6608C17.9988 32.5177 17.959 32.3765 17.9295 32.2332C17.8973 32.0771 17.9674 31.9887 18.1294 31.964C19.0425 31.8248 19.9338 31.5761 20.8504 31.4533C21.3552 31.3857 21.4155 31.294 21.3595 30.7923C21.3451 30.6632 21.3909 30.5291 21.555 30.4984C21.7036 30.4707 21.8547 30.4554 22.0265 30.4218Z" fill="#3A643B"/>
<path d="M22.1503 25.6296C22.1887 25.6414 22.2041 25.6502 22.2186 25.6796C22.2873 25.7879 22.3603 25.8737 22.4986 25.9121C22.5154 25.9214 22.5107 25.9238 22.512 25.9216C22.6401 26.09 22.81 26.2077 23.0201 26.3069C23.0374 26.3165 23.0327 26.3188 23.034 26.3166C23.1621 26.4851 23.332 26.6028 23.5421 26.702C23.5594 26.7116 23.5547 26.7139 23.556 26.7117C23.6841 26.8802 23.854 26.9979 24.0641 27.0971C24.0814 27.1066 24.0767 27.109 24.078 27.1068C24.2061 27.2753 24.376 27.3929 24.5861 27.4921C24.6034 27.5017 24.5987 27.5041 24.6 27.5019C24.6201 27.7181 24.5689 27.7597 24.3518 27.684C24.0411 27.5758 23.771 27.3888 23.484 27.2362C22.9852 26.9711 22.4908 26.6976 21.9916 26.4329C21.7307 26.2946 21.5897 26.3386 21.4399 26.5831C21.4101 26.6317 21.3892 26.6842 21.367 26.7363C21.2303 27.0579 21.1973 27.0733 20.8236 26.9862C20.8018 26.9862 20.7899 26.9782 20.7855 26.9726C20.7006 26.7554 20.4955 26.6866 20.2994 26.588C20.2798 26.5911 20.2679 26.5831 20.2635 26.5775C20.1786 26.3603 19.9735 26.2915 19.7774 26.193C19.7578 26.196 19.746 26.188 19.7416 26.1825C19.7208 26.0437 19.6069 26.0112 19.487 25.9676C19.4678 25.9703 19.4559 25.9622 19.4515 25.9566C19.3666 25.7395 19.1615 25.6707 18.9654 25.5721C18.9458 25.5752 18.9339 25.5671 18.9295 25.5616C18.8446 25.3444 18.6395 25.2756 18.4434 25.177C18.4238 25.1801 18.4118 25.172 18.4074 25.1663C18.3653 24.966 18.4797 24.8235 18.5807 24.678C18.6694 24.5501 18.7449 24.4229 18.6431 24.249C18.7078 24.0411 18.7878 24.1454 18.8773 24.2225C19.5111 24.7687 20.1001 25.3596 20.707 25.9575C20.9103 26.2476 21.0742 26.2529 21.2698 25.9922C21.304 25.9467 21.3323 25.8973 21.3634 25.8497C21.5942 25.4959 21.7204 25.4581 22.1503 25.6296Z" fill="#3A643B"/>
<path d="M20.8125 27.0014C21.1098 27.0048 21.2522 26.8675 21.3676 26.5783C21.5185 26.2005 21.6948 26.1933 22.0694 26.3966C22.8177 26.8027 23.5707 27.2007 24.3257 27.5951C24.4127 27.6405 24.5549 27.7861 24.6007 27.5219C25.0302 27.722 25.3597 28.0741 25.7609 28.3318C25.8361 28.3801 25.7775 28.4411 25.7268 28.4521C25.6363 28.4717 25.5475 28.4762 25.4518 28.4236C24.3191 27.8005 23.158 27.2268 22.0433 26.5722C21.8548 26.4615 21.7046 26.5022 21.5969 26.6852C21.5646 26.74 21.552 26.8054 21.5236 26.8628C21.2063 27.5048 21.3601 27.4134 20.8125 27.0014Z" fill="#3A643B"/>
<path d="M22.161 25.6225C22.0937 25.6331 22.0119 25.6414 21.9433 25.6159C21.715 25.5312 21.5773 25.6343 21.4678 25.8117C21.4038 25.9155 21.3385 26.0185 21.2766 26.1234C21.1892 26.2716 21.0464 26.274 20.8989 26.2614C20.7468 26.2484 20.7279 26.1354 20.7148 25.9976C20.8883 26.0978 21.0154 26.0421 21.1173 25.8788C21.1516 25.8238 21.2021 25.7769 21.2288 25.7191C21.4645 25.2099 21.7551 25.2001 22.161 25.6225Z" fill="#3A643B"/>
<path d="M18.6249 24.25C18.891 24.2984 18.8043 24.4555 18.7236 24.5936C18.6222 24.7672 18.4704 24.9137 18.417 25.1405C18.216 25.0873 18.1697 24.9662 18.2765 24.797C18.3883 24.6199 18.5027 24.4443 18.6249 24.25Z" fill="#3A643B"/>
<path d="M18.9551 25.5887C19.1699 25.526 19.3979 25.6716 19.4591 25.9306C19.2658 25.8609 19.1019 25.7498 18.9551 25.5887Z" fill="#3A643B"/>
<path d="M19.7676 26.2098C19.9824 26.1471 20.2104 26.2927 20.2716 26.5517C20.0783 26.482 19.9144 26.3709 19.7676 26.2098Z" fill="#3A643B"/>
<path d="M20.2891 26.6063C20.5039 26.5436 20.7318 26.6892 20.793 26.9482C20.5998 26.8785 20.4359 26.7674 20.2891 26.6063Z" fill="#3A643B"/>
<path d="M18.4336 25.1942C18.6485 25.1315 18.8764 25.2771 18.9376 25.5361C18.7443 25.4664 18.5804 25.3553 18.4336 25.1942Z" fill="#3A643B"/>
<path d="M23.0284 26.2992C22.7734 26.3225 22.6081 26.1907 22.5117 25.9414C22.7177 25.9926 22.8678 26.1388 23.0284 26.2992Z" fill="#3A643B"/>
<path d="M23.5519 26.6938C23.2968 26.717 23.1316 26.5852 23.0352 26.3359C23.2411 26.3871 23.3913 26.5333 23.5519 26.6938Z" fill="#3A643B"/>
<path d="M24.0734 27.0883C23.8183 27.1116 23.6531 26.9798 23.5566 26.7305C23.7626 26.7817 23.9128 26.9278 24.0734 27.0883Z" fill="#3A643B"/>
<path d="M24.5948 27.4848C24.3398 27.5081 24.1745 27.3763 24.0781 27.127C24.2841 27.1782 24.4342 27.3243 24.5948 27.4848Z" fill="#3A643B"/>
<path d="M19.4766 25.9846C19.6506 25.8809 19.7502 25.9339 19.7491 26.1565C19.6275 26.1514 19.5538 26.0791 19.4766 25.9846Z" fill="#3A643B"/>
<path d="M22.5081 25.9043C22.3738 25.927 22.2257 25.9413 22.2227 25.7151C22.3618 25.6947 22.4095 25.82 22.5081 25.9043Z" fill="#3A643B"/>
</svg>
