<svg width="24" height="24" viewBox="0 0 24 24" fill="none" xmlns="http://www.w3.org/2000/svg">
<path d="M9 14C8.72386 14 8.5 14.2239 8.5 14.5C8.5 14.7761 8.72386 15 9 15H15C15.2761 15 15.5 14.7761 15.5 14.5C15.5 14.2239 15.2761 14 15 14H9Z" fill="#3A643B"/>
<path d="M8.5 11.5C8.5 11.2239 8.72386 11 9 11H15C15.2761 11 15.5 11.2239 15.5 11.5C15.5 11.7761 15.2761 12 15 12H9C8.72386 12 8.5 11.7761 8.5 11.5Z" fill="#3A643B"/>
<path fill-rule="evenodd" clip-rule="evenodd" d="M7.5 5C7.5 4.44772 7.94772 4 8.5 4H10.5854C10.7913 3.4174 11.3469 3 12 3C12.6531 3 13.2087 3.4174 13.4146 4H15.5C16.0523 4 16.5 4.44772 16.5 5H17C17.8284 5 18.5 5.67157 18.5 6.5V19.5C18.5 20.3284 17.8284 21 17 21H7C6.17157 21 5.5 20.3284 5.5 19.5V6.5C5.5 5.67157 6.17157 5 7 5H7.5ZM11.5 4.5C11.5 4.22386 11.7239 4 12 4C12.2761 4 12.5 4.22386 12.5 4.5C12.5 4.77614 12.7239 5 13 5H15.5V6H8.5V5H11C11.2761 5 11.5 4.77614 11.5 4.5ZM16.5 6C16.5 6.55228 16.0523 7 15.5 7H8.5C7.94772 7 7.5 6.55228 7.5 6H7C6.72386 6 6.5 6.22386 6.5 6.5V19.5C6.5 19.7761 6.72386 20 7 20H17C17.2761 20 17.5 19.7761 17.5 19.5V6.5C17.5 6.22386 17.2761 6 17 6H16.5Z" fill="#3A643B"/>
</svg>
