<svg width="195" height="140" viewBox="0 0 195 140" fill="none" xmlns="http://www.w3.org/2000/svg">
<g clip-path="url(#clip0_3962_1099)">
<rect width="195" height="140" rx="16" fill="#3A643B"/>
<path d="M18.022 31V21.2H24.21V22.348H19.422V25.484H23.79V26.604H19.422V29.852H24.21V31H18.022ZM25.95 31V23.944H27.21L27.294 25.148C27.518 24.728 27.8354 24.3967 28.246 24.154C28.6567 23.902 29.128 23.776 29.66 23.776C30.22 23.776 30.7007 23.888 31.102 24.112C31.5034 24.336 31.816 24.6767 32.04 25.134C32.264 25.582 32.376 26.1467 32.376 26.828V31H30.976V26.968C30.976 26.3147 30.8314 25.82 30.542 25.484C30.2527 25.148 29.8327 24.98 29.282 24.98C28.918 24.98 28.5914 25.0687 28.302 25.246C28.0127 25.414 27.7794 25.666 27.602 26.002C27.434 26.338 27.35 26.7487 27.35 27.234V31H25.95ZM37.0368 34.248C36.3928 34.248 35.8235 34.164 35.3288 33.996C34.8342 33.8373 34.4515 33.59 34.1808 33.254C33.9102 32.918 33.7748 32.5073 33.7748 32.022C33.7748 31.77 33.8308 31.5133 33.9428 31.252C34.0548 31 34.2368 30.7573 34.4888 30.524C34.7408 30.2907 35.0815 30.0807 35.5108 29.894L36.2948 30.524C35.8188 30.7013 35.4968 30.9113 35.3288 31.154C35.1702 31.406 35.0908 31.6487 35.0908 31.882C35.0908 32.162 35.1748 32.3953 35.3428 32.582C35.5108 32.7687 35.7395 32.9087 36.0288 33.002C36.3275 33.0953 36.6635 33.142 37.0368 33.142C37.4008 33.142 37.7182 33.0907 37.9888 32.988C38.2595 32.8853 38.4695 32.7407 38.6188 32.554C38.7682 32.3673 38.8428 32.148 38.8428 31.896C38.8428 31.5973 38.7308 31.3453 38.5068 31.14C38.2828 30.944 37.8535 30.8273 37.2188 30.79C36.6868 30.7527 36.2342 30.7013 35.8608 30.636C35.4968 30.5707 35.1842 30.4913 34.9228 30.398C34.6708 30.3047 34.4562 30.202 34.2788 30.09C34.1108 29.978 33.9662 29.8613 33.8448 29.74V29.418L35.2448 27.976L36.3788 28.368L34.8528 29.782L35.1468 29.152C35.2495 29.2173 35.3475 29.2827 35.4408 29.348C35.5342 29.404 35.6602 29.4553 35.8188 29.502C35.9775 29.5487 36.1922 29.5907 36.4628 29.628C36.7335 29.6653 37.0882 29.7027 37.5268 29.74C38.1615 29.7867 38.6702 29.8987 39.0528 30.076C39.4448 30.2533 39.7295 30.4913 39.9068 30.79C40.0842 31.0887 40.1728 31.4433 40.1728 31.854C40.1728 32.2553 40.0608 32.638 39.8368 33.002C39.6222 33.366 39.2815 33.6647 38.8148 33.898C38.3575 34.1313 37.7648 34.248 37.0368 34.248ZM37.0368 28.83C36.4395 28.83 35.9308 28.718 35.5108 28.494C35.1002 28.27 34.7828 27.9667 34.5588 27.584C34.3442 27.2013 34.2368 26.7767 34.2368 26.31C34.2368 25.834 34.3442 25.4093 34.5588 25.036C34.7828 24.6533 35.1048 24.35 35.5248 24.126C35.9448 23.8927 36.4488 23.776 37.0368 23.776C37.6248 23.776 38.1242 23.8927 38.5348 24.126C38.9548 24.35 39.2722 24.6533 39.4868 25.036C39.7108 25.4093 39.8228 25.834 39.8228 26.31C39.8228 26.7767 39.7108 27.2013 39.4868 27.584C39.2722 27.9667 38.9548 28.27 38.5348 28.494C38.1242 28.718 37.6248 28.83 37.0368 28.83ZM37.0368 27.71C37.4942 27.71 37.8582 27.5933 38.1288 27.36C38.3995 27.1173 38.5348 26.7673 38.5348 26.31C38.5348 25.8527 38.3995 25.5073 38.1288 25.274C37.8582 25.0313 37.4942 24.91 37.0368 24.91C36.5795 24.91 36.2108 25.0313 35.9308 25.274C35.6508 25.5073 35.5108 25.8527 35.5108 26.31C35.5108 26.7673 35.6508 27.1173 35.9308 27.36C36.2108 27.5933 36.5795 27.71 37.0368 27.71ZM38.1848 25.05L37.8488 23.944H40.7468V24.91L38.1848 25.05ZM44.4892 31.168C43.9106 31.168 43.4299 31.07 43.0472 30.874C42.6646 30.678 42.3799 30.4167 42.1932 30.09C42.0066 29.754 41.9132 29.3947 41.9132 29.012C41.9132 28.5453 42.0346 28.1487 42.2772 27.822C42.5199 27.486 42.8652 27.2293 43.3132 27.052C43.7612 26.8747 44.2979 26.786 44.9232 26.786H46.7572C46.7572 26.3753 46.6966 26.0347 46.5752 25.764C46.4539 25.4933 46.2719 25.2927 46.0292 25.162C45.7959 25.022 45.4972 24.952 45.1332 24.952C44.7132 24.952 44.3539 25.0547 44.0552 25.26C43.7566 25.456 43.5699 25.75 43.4952 26.142H42.0952C42.1512 25.6473 42.3192 25.2273 42.5992 24.882C42.8886 24.5273 43.2572 24.2567 43.7052 24.07C44.1532 23.874 44.6292 23.776 45.1332 23.776C45.7959 23.776 46.3512 23.8927 46.7992 24.126C47.2472 24.3593 47.5832 24.6907 47.8072 25.12C48.0406 25.54 48.1572 26.044 48.1572 26.632V31H46.9392L46.8272 29.81C46.7246 29.9967 46.6032 30.174 46.4632 30.342C46.3232 30.51 46.1552 30.6547 45.9592 30.776C45.7726 30.8973 45.5532 30.9907 45.3012 31.056C45.0586 31.1307 44.7879 31.168 44.4892 31.168ZM44.7552 30.034C45.0539 30.034 45.3246 29.9733 45.5672 29.852C45.8099 29.7307 46.0152 29.5673 46.1832 29.362C46.3606 29.1473 46.4912 28.9093 46.5752 28.648C46.6686 28.3773 46.7199 28.102 46.7292 27.822V27.78H45.0632C44.6619 27.78 44.3352 27.8313 44.0832 27.934C43.8406 28.0273 43.6632 28.158 43.5512 28.326C43.4392 28.494 43.3832 28.69 43.3832 28.914C43.3832 29.1473 43.4346 29.348 43.5372 29.516C43.6492 29.6747 43.8079 29.8007 44.0132 29.894C44.2186 29.9873 44.4659 30.034 44.7552 30.034ZM52.8142 34.248C52.1702 34.248 51.6009 34.164 51.1062 33.996C50.6115 33.8373 50.2289 33.59 49.9582 33.254C49.6875 32.918 49.5522 32.5073 49.5522 32.022C49.5522 31.77 49.6082 31.5133 49.7202 31.252C49.8322 31 50.0142 30.7573 50.2662 30.524C50.5182 30.2907 50.8589 30.0807 51.2882 29.894L52.0722 30.524C51.5962 30.7013 51.2742 30.9113 51.1062 31.154C50.9475 31.406 50.8682 31.6487 50.8682 31.882C50.8682 32.162 50.9522 32.3953 51.1202 32.582C51.2882 32.7687 51.5169 32.9087 51.8062 33.002C52.1049 33.0953 52.4409 33.142 52.8142 33.142C53.1782 33.142 53.4955 33.0907 53.7662 32.988C54.0369 32.8853 54.2469 32.7407 54.3962 32.554C54.5455 32.3673 54.6202 32.148 54.6202 31.896C54.6202 31.5973 54.5082 31.3453 54.2842 31.14C54.0602 30.944 53.6309 30.8273 52.9962 30.79C52.4642 30.7527 52.0115 30.7013 51.6382 30.636C51.2742 30.5707 50.9615 30.4913 50.7002 30.398C50.4482 30.3047 50.2335 30.202 50.0562 30.09C49.8882 29.978 49.7435 29.8613 49.6222 29.74V29.418L51.0222 27.976L52.1562 28.368L50.6302 29.782L50.9242 29.152C51.0269 29.2173 51.1249 29.2827 51.2182 29.348C51.3115 29.404 51.4375 29.4553 51.5962 29.502C51.7549 29.5487 51.9695 29.5907 52.2402 29.628C52.5109 29.6653 52.8655 29.7027 53.3042 29.74C53.9389 29.7867 54.4475 29.8987 54.8302 30.076C55.2222 30.2533 55.5069 30.4913 55.6842 30.79C55.8615 31.0887 55.9502 31.4433 55.9502 31.854C55.9502 32.2553 55.8382 32.638 55.6142 33.002C55.3995 33.366 55.0589 33.6647 54.5922 33.898C54.1349 34.1313 53.5422 34.248 52.8142 34.248ZM52.8142 28.83C52.2169 28.83 51.7082 28.718 51.2882 28.494C50.8775 28.27 50.5602 27.9667 50.3362 27.584C50.1215 27.2013 50.0142 26.7767 50.0142 26.31C50.0142 25.834 50.1215 25.4093 50.3362 25.036C50.5602 24.6533 50.8822 24.35 51.3022 24.126C51.7222 23.8927 52.2262 23.776 52.8142 23.776C53.4022 23.776 53.9015 23.8927 54.3122 24.126C54.7322 24.35 55.0495 24.6533 55.2642 25.036C55.4882 25.4093 55.6002 25.834 55.6002 26.31C55.6002 26.7767 55.4882 27.2013 55.2642 27.584C55.0495 27.9667 54.7322 28.27 54.3122 28.494C53.9015 28.718 53.4022 28.83 52.8142 28.83ZM52.8142 27.71C53.2715 27.71 53.6355 27.5933 53.9062 27.36C54.1769 27.1173 54.3122 26.7673 54.3122 26.31C54.3122 25.8527 54.1769 25.5073 53.9062 25.274C53.6355 25.0313 53.2715 24.91 52.8142 24.91C52.3569 24.91 51.9882 25.0313 51.7082 25.274C51.4282 25.5073 51.2882 25.8527 51.2882 26.31C51.2882 26.7673 51.4282 27.1173 51.7082 27.36C51.9882 27.5933 52.3569 27.71 52.8142 27.71ZM53.9622 25.05L53.6262 23.944H56.5242V24.91L53.9622 25.05ZM60.8471 31.168C60.1751 31.168 59.5778 31.014 59.0551 30.706C58.5325 30.398 58.1218 29.9687 57.8231 29.418C57.5338 28.8673 57.3891 28.228 57.3891 27.5C57.3891 26.7533 57.5338 26.1047 57.8231 25.554C58.1218 24.994 58.5325 24.56 59.0551 24.252C59.5778 23.9347 60.1845 23.776 60.8751 23.776C61.5658 23.776 62.1585 23.93 62.6531 24.238C63.1478 24.546 63.5305 24.9567 63.8011 25.47C64.0718 25.974 64.2071 26.534 64.2071 27.15C64.2071 27.2433 64.2025 27.346 64.1931 27.458C64.1931 27.5607 64.1885 27.6773 64.1791 27.808H58.4111V26.814H62.8071C62.7791 26.226 62.5831 25.7687 62.2191 25.442C61.8551 25.106 61.4025 24.938 60.8611 24.938C60.4785 24.938 60.1285 25.0267 59.8111 25.204C59.4938 25.372 59.2371 25.624 59.0411 25.96C58.8545 26.2867 58.7611 26.702 58.7611 27.206V27.598C58.7611 28.1207 58.8545 28.564 59.0411 28.928C59.2371 29.2827 59.4938 29.5533 59.8111 29.74C60.1285 29.9173 60.4738 30.006 60.8471 30.006C61.2951 30.006 61.6638 29.908 61.9531 29.712C62.2425 29.516 62.4571 29.25 62.5971 28.914H63.9971C63.8758 29.3433 63.6705 29.7307 63.3811 30.076C63.0918 30.412 62.7325 30.678 62.3031 30.874C61.8831 31.07 61.3978 31.168 60.8471 31.168ZM65.7625 31V23.944H67.0225L67.1205 24.938C67.3445 24.574 67.6432 24.2893 68.0165 24.084C68.3899 23.8787 68.8099 23.776 69.2765 23.776C69.6312 23.776 69.9532 23.8273 70.2425 23.93C70.5319 24.0233 70.7885 24.168 71.0125 24.364C71.2365 24.56 71.4185 24.8027 71.5585 25.092C71.8105 24.6813 72.1465 24.3593 72.5665 24.126C72.9959 23.8927 73.4485 23.776 73.9245 23.776C74.4939 23.776 74.9839 23.8927 75.3945 24.126C75.8052 24.35 76.1179 24.6907 76.3325 25.148C76.5472 25.596 76.6545 26.156 76.6545 26.828V31H75.2685V26.968C75.2685 26.3147 75.1332 25.82 74.8625 25.484C74.6012 25.148 74.2139 24.98 73.7005 24.98C73.3552 24.98 73.0472 25.0687 72.7765 25.246C72.5059 25.4233 72.2912 25.68 72.1325 26.016C71.9832 26.352 71.9085 26.7627 71.9085 27.248V31H70.5085V26.968C70.5085 26.3147 70.3732 25.82 70.1025 25.484C69.8412 25.148 69.4539 24.98 68.9405 24.98C68.6139 24.98 68.3152 25.0687 68.0445 25.246C67.7739 25.4233 67.5592 25.68 67.4005 26.016C67.2419 26.352 67.1625 26.7627 67.1625 27.248V31H65.7625ZM81.6557 31.168C80.9837 31.168 80.3864 31.014 79.8637 30.706C79.3411 30.398 78.9304 29.9687 78.6317 29.418C78.3424 28.8673 78.1977 28.228 78.1977 27.5C78.1977 26.7533 78.3424 26.1047 78.6317 25.554C78.9304 24.994 79.3411 24.56 79.8637 24.252C80.3864 23.9347 80.9931 23.776 81.6837 23.776C82.3744 23.776 82.9671 23.93 83.4617 24.238C83.9564 24.546 84.3391 24.9567 84.6097 25.47C84.8804 25.974 85.0157 26.534 85.0157 27.15C85.0157 27.2433 85.0111 27.346 85.0017 27.458C85.0017 27.5607 84.9971 27.6773 84.9877 27.808H79.2197V26.814H83.6157C83.5877 26.226 83.3917 25.7687 83.0277 25.442C82.6637 25.106 82.2111 24.938 81.6697 24.938C81.2871 24.938 80.9371 25.0267 80.6197 25.204C80.3024 25.372 80.0457 25.624 79.8497 25.96C79.6631 26.2867 79.5697 26.702 79.5697 27.206V27.598C79.5697 28.1207 79.6631 28.564 79.8497 28.928C80.0457 29.2827 80.3024 29.5533 80.6197 29.74C80.9371 29.9173 81.2824 30.006 81.6557 30.006C82.1037 30.006 82.4724 29.908 82.7617 29.712C83.0511 29.516 83.2657 29.25 83.4057 28.914H84.8057C84.6844 29.3433 84.4791 29.7307 84.1897 30.076C83.9004 30.412 83.5411 30.678 83.1117 30.874C82.6917 31.07 82.2064 31.168 81.6557 31.168ZM86.5711 31V23.944H87.8311L87.9151 25.148C88.1391 24.728 88.4565 24.3967 88.8671 24.154C89.2778 23.902 89.7491 23.776 90.2811 23.776C90.8411 23.776 91.3218 23.888 91.7231 24.112C92.1245 24.336 92.4371 24.6767 92.6611 25.134C92.8851 25.582 92.9971 26.1467 92.9971 26.828V31H91.5971V26.968C91.5971 26.3147 91.4525 25.82 91.1631 25.484C90.8738 25.148 90.4538 24.98 89.9031 24.98C89.5391 24.98 89.2125 25.0687 88.9231 25.246C88.6338 25.414 88.4005 25.666 88.2231 26.002C88.0551 26.338 87.9711 26.7487 87.9711 27.234V31H86.5711ZM97.6999 31C97.2519 31 96.8646 30.93 96.5379 30.79C96.2113 30.65 95.9593 30.4167 95.7819 30.09C95.6046 29.7633 95.5159 29.32 95.5159 28.76V25.134H94.2979V23.944H95.5159L95.6839 22.18H96.9159V23.944H98.9179V25.134H96.9159V28.774C96.9159 29.1753 96.9999 29.4507 97.1679 29.6C97.3359 29.74 97.6253 29.81 98.0359 29.81H98.8479V31H97.6999ZM106.396 31V22.348H103.498V21.2H110.708V22.348H107.796V31H106.396ZM112.154 31V23.944H113.554V31H112.154ZM112.868 22.614C112.597 22.614 112.373 22.53 112.196 22.362C112.028 22.194 111.944 21.9793 111.944 21.718C111.944 21.466 112.028 21.2607 112.196 21.102C112.373 20.934 112.597 20.85 112.868 20.85C113.129 20.85 113.348 20.934 113.526 21.102C113.703 21.2607 113.792 21.466 113.792 21.718C113.792 21.9793 113.703 22.194 113.526 22.362C113.348 22.53 113.129 22.614 112.868 22.614ZM115.556 31V23.944H116.816L116.914 24.938C117.138 24.574 117.436 24.2893 117.81 24.084C118.183 23.8787 118.603 23.776 119.07 23.776C119.424 23.776 119.746 23.8273 120.036 23.93C120.325 24.0233 120.582 24.168 120.806 24.364C121.03 24.56 121.212 24.8027 121.352 25.092C121.604 24.6813 121.94 24.3593 122.36 24.126C122.789 23.8927 123.242 23.776 123.718 23.776C124.287 23.776 124.777 23.8927 125.188 24.126C125.598 24.35 125.911 24.6907 126.126 25.148C126.34 25.596 126.448 26.156 126.448 26.828V31H125.062V26.968C125.062 26.3147 124.926 25.82 124.656 25.484C124.394 25.148 124.007 24.98 123.494 24.98C123.148 24.98 122.84 25.0687 122.57 25.246C122.299 25.4233 122.084 25.68 121.926 26.016C121.776 26.352 121.702 26.7627 121.702 27.248V31H120.302V26.968C120.302 26.3147 120.166 25.82 119.896 25.484C119.634 25.148 119.247 24.98 118.734 24.98C118.407 24.98 118.108 25.0687 117.838 25.246C117.567 25.4233 117.352 25.68 117.194 26.016C117.035 26.352 116.956 26.7627 116.956 27.248V31H115.556ZM131.449 31.168C130.777 31.168 130.179 31.014 129.657 30.706C129.134 30.398 128.723 29.9687 128.425 29.418C128.135 28.8673 127.991 28.228 127.991 27.5C127.991 26.7533 128.135 26.1047 128.425 25.554C128.723 24.994 129.134 24.56 129.657 24.252C130.179 23.9347 130.786 23.776 131.477 23.776C132.167 23.776 132.76 23.93 133.255 24.238C133.749 24.546 134.132 24.9567 134.403 25.47C134.673 25.974 134.809 26.534 134.809 27.15C134.809 27.2433 134.804 27.346 134.795 27.458C134.795 27.5607 134.79 27.6773 134.781 27.808H129.013V26.814H133.409C133.381 26.226 133.185 25.7687 132.821 25.442C132.457 25.106 132.004 24.938 131.463 24.938C131.08 24.938 130.73 25.0267 130.413 25.204C130.095 25.372 129.839 25.624 129.643 25.96C129.456 26.2867 129.363 26.702 129.363 27.206V27.598C129.363 28.1207 129.456 28.564 129.643 28.928C129.839 29.2827 130.095 29.5533 130.413 29.74C130.73 29.9173 131.075 30.006 131.449 30.006C131.897 30.006 132.265 29.908 132.555 29.712C132.844 29.516 133.059 29.25 133.199 28.914H134.599C134.477 29.3433 134.272 29.7307 133.983 30.076C133.693 30.412 133.334 30.678 132.905 30.874C132.485 31.07 131.999 31.168 131.449 31.168Z" fill="white"/>
<path d="M22.976 65.216C22.028 65.216 21.224 65.042 20.564 64.694C19.916 64.346 19.394 63.878 18.998 63.29C18.614 62.702 18.332 62.048 18.152 61.328C17.984 60.596 17.9 59.858 17.9 59.114C17.9 57.698 18.098 56.474 18.494 55.442C18.89 54.41 19.46 53.612 20.204 53.048C20.948 52.472 21.848 52.184 22.904 52.184C23.792 52.184 24.542 52.358 25.154 52.706C25.766 53.042 26.24 53.486 26.576 54.038C26.912 54.59 27.11 55.184 27.17 55.82H24.902C24.806 55.292 24.584 54.89 24.236 54.614C23.888 54.326 23.438 54.182 22.886 54.182C22.37 54.182 21.92 54.338 21.536 54.65C21.152 54.962 20.852 55.43 20.636 56.054C20.432 56.678 20.312 57.464 20.276 58.412C20.276 58.424 20.276 58.442 20.276 58.466C20.276 58.49 20.276 58.508 20.276 58.52C20.468 58.196 20.72 57.908 21.032 57.656C21.344 57.404 21.704 57.206 22.112 57.062C22.52 56.918 22.952 56.846 23.408 56.846C24.104 56.846 24.752 57.014 25.352 57.35C25.952 57.686 26.438 58.16 26.81 58.772C27.182 59.384 27.368 60.11 27.368 60.95C27.368 61.706 27.182 62.414 26.81 63.074C26.45 63.722 25.94 64.244 25.28 64.64C24.62 65.024 23.852 65.216 22.976 65.216ZM22.832 63.128C23.264 63.128 23.642 63.038 23.966 62.858C24.302 62.678 24.566 62.432 24.758 62.12C24.95 61.796 25.046 61.43 25.046 61.022C25.046 60.59 24.95 60.218 24.758 59.906C24.566 59.594 24.302 59.348 23.966 59.168C23.63 58.988 23.246 58.898 22.814 58.898C22.394 58.898 22.016 58.988 21.68 59.168C21.344 59.348 21.074 59.6 20.87 59.924C20.678 60.236 20.582 60.596 20.582 61.004C20.582 61.424 20.678 61.796 20.87 62.12C21.074 62.432 21.344 62.678 21.68 62.858C22.028 63.038 22.412 63.128 22.832 63.128ZM29.5962 65V55.928H31.7382L31.9362 57.134C32.2242 56.702 32.6022 56.36 33.0702 56.108C33.5502 55.844 34.0962 55.712 34.7082 55.712C35.1642 55.712 35.5722 55.772 35.9322 55.892C36.2922 56.012 36.6102 56.186 36.8862 56.414C37.1742 56.642 37.4082 56.93 37.5882 57.278C37.9242 56.786 38.3622 56.402 38.9022 56.126C39.4422 55.85 40.0302 55.712 40.6662 55.712C41.4582 55.712 42.1182 55.874 42.6462 56.198C43.1742 56.51 43.5702 56.966 43.8342 57.566C44.1102 58.166 44.2482 58.904 44.2482 59.78V65H41.8362V59.996C41.8362 59.276 41.6922 58.724 41.4042 58.34C41.1282 57.956 40.6962 57.764 40.1082 57.764C39.7242 57.764 39.3822 57.86 39.0822 58.052C38.7822 58.244 38.5482 58.52 38.3802 58.88C38.2242 59.24 38.1462 59.672 38.1462 60.176V65H35.7162V59.996C35.7162 59.276 35.5722 58.724 35.2842 58.34C34.9962 57.956 34.5522 57.764 33.9522 57.764C33.5802 57.764 33.2442 57.86 32.9442 58.052C32.6562 58.244 32.4282 58.52 32.2602 58.88C32.1042 59.24 32.0262 59.672 32.0262 60.176V65H29.5962ZM54.9898 65.216C54.1738 65.216 53.4238 65.066 52.7398 64.766C52.0558 64.466 51.5098 64.01 51.1018 63.398C50.6938 62.786 50.4778 62.012 50.4538 61.076H52.8298C52.8418 61.472 52.9318 61.832 53.0998 62.156C53.2678 62.468 53.5138 62.72 53.8378 62.912C54.1618 63.092 54.5458 63.182 54.9898 63.182C55.4098 63.182 55.7698 63.098 56.0698 62.93C56.3698 62.762 56.5978 62.54 56.7538 62.264C56.9098 61.988 56.9878 61.67 56.9878 61.31C56.9878 60.89 56.8798 60.542 56.6638 60.266C56.4598 59.978 56.1718 59.762 55.7998 59.618C55.4398 59.474 55.0258 59.402 54.5578 59.402H53.6218V57.404H54.5578C55.1458 57.404 55.6378 57.266 56.0338 56.99C56.4418 56.714 56.6458 56.3 56.6458 55.748C56.6458 55.292 56.4958 54.926 56.1958 54.65C55.9078 54.374 55.4998 54.236 54.9718 54.236C54.3958 54.236 53.9458 54.404 53.6218 54.74C53.2978 55.076 53.1178 55.49 53.0818 55.982H50.7058C50.7418 55.19 50.9398 54.512 51.2998 53.948C51.6718 53.372 52.1698 52.934 52.7938 52.634C53.4178 52.334 54.1438 52.184 54.9718 52.184C55.8478 52.184 56.5858 52.34 57.1858 52.652C57.7978 52.952 58.2598 53.36 58.5718 53.876C58.8838 54.392 59.0398 54.95 59.0398 55.55C59.0398 56.042 58.9438 56.48 58.7518 56.864C58.5718 57.248 58.3258 57.566 58.0138 57.818C57.7018 58.07 57.3598 58.25 56.9878 58.358C57.4558 58.454 57.8638 58.64 58.2118 58.916C58.5718 59.18 58.8478 59.522 59.0398 59.942C59.2438 60.362 59.3458 60.848 59.3458 61.4C59.3458 62.084 59.1778 62.72 58.8418 63.308C58.5178 63.884 58.0258 64.346 57.3658 64.694C56.7178 65.042 55.9258 65.216 54.9898 65.216ZM65.8355 65.216C65.0195 65.216 64.2695 65.066 63.5855 64.766C62.9015 64.466 62.3555 64.01 61.9475 63.398C61.5395 62.786 61.3235 62.012 61.2995 61.076H63.6755C63.6875 61.472 63.7775 61.832 63.9455 62.156C64.1135 62.468 64.3595 62.72 64.6835 62.912C65.0075 63.092 65.3915 63.182 65.8355 63.182C66.2555 63.182 66.6155 63.098 66.9155 62.93C67.2155 62.762 67.4435 62.54 67.5995 62.264C67.7555 61.988 67.8335 61.67 67.8335 61.31C67.8335 60.89 67.7255 60.542 67.5095 60.266C67.3055 59.978 67.0175 59.762 66.6455 59.618C66.2855 59.474 65.8715 59.402 65.4035 59.402H64.4675V57.404H65.4035C65.9915 57.404 66.4835 57.266 66.8795 56.99C67.2875 56.714 67.4915 56.3 67.4915 55.748C67.4915 55.292 67.3415 54.926 67.0415 54.65C66.7535 54.374 66.3455 54.236 65.8175 54.236C65.2415 54.236 64.7915 54.404 64.4675 54.74C64.1435 55.076 63.9635 55.49 63.9275 55.982H61.5515C61.5875 55.19 61.7855 54.512 62.1455 53.948C62.5175 53.372 63.0155 52.934 63.6395 52.634C64.2635 52.334 64.9895 52.184 65.8175 52.184C66.6935 52.184 67.4315 52.34 68.0315 52.652C68.6435 52.952 69.1055 53.36 69.4175 53.876C69.7295 54.392 69.8855 54.95 69.8855 55.55C69.8855 56.042 69.7895 56.48 69.5975 56.864C69.4175 57.248 69.1715 57.566 68.8595 57.818C68.5475 58.07 68.2055 58.25 67.8335 58.358C68.3015 58.454 68.7095 58.64 69.0575 58.916C69.4175 59.18 69.6935 59.522 69.8855 59.942C70.0895 60.362 70.1915 60.848 70.1915 61.4C70.1915 62.084 70.0235 62.72 69.6875 63.308C69.3635 63.884 68.8715 64.346 68.2115 64.694C67.5635 65.042 66.7715 65.216 65.8355 65.216ZM76.1773 65.216C75.3493 65.216 74.6293 65.084 74.0173 64.82C73.4053 64.556 72.9253 64.19 72.5773 63.722C72.2293 63.254 72.0313 62.726 71.9833 62.138H74.3953C74.4553 62.366 74.5573 62.576 74.7013 62.768C74.8453 62.948 75.0373 63.092 75.2773 63.2C75.5173 63.308 75.8053 63.362 76.1413 63.362C76.4653 63.362 76.7293 63.32 76.9333 63.236C77.1373 63.14 77.2873 63.014 77.3833 62.858C77.4913 62.702 77.5453 62.54 77.5453 62.372C77.5453 62.12 77.4733 61.928 77.3293 61.796C77.1853 61.652 76.9753 61.538 76.6993 61.454C76.4233 61.37 76.0873 61.286 75.6913 61.202C75.2593 61.118 74.8333 61.016 74.4133 60.896C74.0053 60.764 73.6393 60.602 73.3153 60.41C72.9913 60.218 72.7333 59.972 72.5413 59.672C72.3493 59.372 72.2533 59 72.2533 58.556C72.2533 58.016 72.3973 57.536 72.6853 57.116C72.9733 56.684 73.3933 56.342 73.9453 56.09C74.4973 55.838 75.1633 55.712 75.9433 55.712C77.0353 55.712 77.8993 55.958 78.5353 56.45C79.1713 56.942 79.5493 57.62 79.6693 58.484H77.3833C77.3113 58.208 77.1493 57.992 76.8973 57.836C76.6573 57.668 76.3333 57.584 75.9253 57.584C75.4933 57.584 75.1633 57.662 74.9353 57.818C74.7073 57.974 74.5933 58.178 74.5933 58.43C74.5933 58.598 74.6653 58.748 74.8093 58.88C74.9653 59.012 75.1813 59.126 75.4573 59.222C75.7333 59.306 76.0693 59.39 76.4653 59.474C77.1613 59.618 77.7733 59.786 78.3013 59.978C78.8293 60.158 79.2433 60.422 79.5433 60.77C79.8433 61.106 79.9933 61.598 79.9933 62.246C79.9933 62.822 79.8373 63.338 79.5253 63.794C79.2133 64.238 78.7693 64.586 78.1933 64.838C77.6293 65.09 76.9573 65.216 76.1773 65.216Z" fill="white"/>
<path d="M-19 114L5.01308 103.468C7.84362 102.226 11.0892 102.364 13.8048 103.84L26.9457 110.981C30.3381 112.825 34.4888 112.551 37.6094 110.277L63.5561 91.3734C66.0451 89.56 69.2308 88.9945 72.1919 89.8405L110.69 100.84C112.208 101.274 113.808 101.342 115.358 101.039L159 92.5" stroke="white"/>
<path d="M5.01308 103.468L-13.0166 111.376C-16.652 112.97 -19 116.564 -19 120.534V145C-19 150.523 -14.5229 155 -9 155H149.032C154.343 155 158.721 150.867 158.946 145.561C159.697 127.799 160.788 91.2423 157 92C153.106 92.7789 148.908 94.1645 147.242 94.7391C146.746 94.91 146.242 95.0501 145.727 95.15L115.35 101.044C113.805 101.344 112.211 101.275 110.698 100.842L72.1919 89.8405C69.2308 88.9945 66.0451 89.56 63.5561 91.3734L37.6094 110.277C34.4888 112.551 30.3381 112.825 26.9457 110.981L13.8048 103.84C11.0892 102.364 7.84362 102.226 5.01308 103.468Z" fill="url(#paint0_linear_3962_1099)" fill-opacity="0.4"/>
<circle cx="158" cy="93" r="5" fill="#FFF7E2"/>
<g filter="url(#filter0_d_3962_1099)">
<circle cx="158" cy="93" r="3" fill="#FFF7E2"/>
</g>
</g>
<defs>
<filter id="filter0_d_3962_1099" x="151" y="86" width="14" height="14" filterUnits="userSpaceOnUse" color-interpolation-filters="sRGB">
<feFlood flood-opacity="0" result="BackgroundImageFix"/>
<feColorMatrix in="SourceAlpha" type="matrix" values="0 0 0 0 0 0 0 0 0 0 0 0 0 0 0 0 0 0 127 0" result="hardAlpha"/>
<feOffset/>
<feGaussianBlur stdDeviation="2"/>
<feComposite in2="hardAlpha" operator="out"/>
<feColorMatrix type="matrix" values="0 0 0 0 0 0 0 0 0 0 0 0 0 0 0 0 0 0 0.25 0"/>
<feBlend mode="normal" in2="BackgroundImageFix" result="effect1_dropShadow_3962_1099"/>
<feBlend mode="normal" in="SourceGraphic" in2="effect1_dropShadow_3962_1099" result="shape"/>
</filter>
<linearGradient id="paint0_linear_3962_1099" x1="70" y1="88.5" x2="70" y2="155" gradientUnits="userSpaceOnUse">
<stop stop-color="#FFF7E2"/>
<stop offset="1" stop-color="#999488"/>
</linearGradient>
<clipPath id="clip0_3962_1099">
<rect width="195" height="140" rx="16" fill="white"/>
</clipPath>
</defs>
</svg>
