<svg width="55" height="55" viewBox="0 0 55 55" fill="none" xmlns="http://www.w3.org/2000/svg">
<path fill-rule="evenodd" clip-rule="evenodd" d="M27.5 55C12.3117 55 0 42.6882 0 27.5C0 12.3117 12.3117 0 27.5 0C42.6882 0 55 12.3117 55 27.5C55 42.6882 42.6882 55 27.5 55ZM21.3143 16.5C21.3143 15.9534 21.5313 15.4292 21.9175 15.0425C22.3042 14.6563 22.8284 14.4393 23.375 14.4393C23.9216 14.4393 24.4458 14.6563 24.8325 15.0425L35.8325 26.0425C36.2187 26.4292 36.4357 26.9534 36.4357 27.5C36.4357 28.0466 36.2187 28.5708 35.8325 28.9575L24.8325 39.9575C24.4415 40.3218 23.9244 40.5202 23.3901 40.5107C22.8557 40.5013 22.3459 40.2848 21.968 39.907C21.5902 39.5291 21.3737 39.0193 21.3643 38.4849C21.3548 37.9506 21.5532 37.4335 21.9175 37.0425L31.46 27.5L21.9175 17.9575C21.5313 17.5708 21.3143 17.0466 21.3143 16.5Z" fill="#3A643B"/>
<path d="M21.9175 15.0425C21.5313 15.4292 21.3143 15.9534 21.3143 16.5C21.3143 17.0466 21.5313 17.5708 21.9175 17.9575L31.46 27.5L21.9175 37.0425C21.5532 37.4335 21.3548 37.9506 21.3643 38.4849C21.3737 39.0193 21.5902 39.5291 21.968 39.907C22.3459 40.2848 22.8557 40.5013 23.3901 40.5107C23.9244 40.5202 24.4415 40.3218 24.8325 39.9575L35.8325 28.9575C36.2187 28.5708 36.4357 28.0466 36.4357 27.5C36.4357 26.9534 36.2187 26.4292 35.8325 26.0425L24.8325 15.0425C24.4458 14.6563 23.9216 14.4393 23.375 14.4393C22.8284 14.4393 22.3042 14.6563 21.9175 15.0425Z" fill="white"/>
</svg>