<svg width="55" height="55" viewBox="0 0 55 55" fill="none" xmlns="http://www.w3.org/2000/svg">
<path fill-rule="evenodd" clip-rule="evenodd" d="M27.5 0C42.6883 0 55 12.3118 55 27.5C55 42.6883 42.6883 55 27.5 55C12.3118 55 0 42.6883 0 27.5C0 12.3118 12.3118 0 27.5 0ZM33.6857 38.5C33.6857 39.0466 33.4687 39.5708 33.0825 39.9575C32.6958 40.3437 32.1716 40.5607 31.625 40.5607C31.0784 40.5607 30.5542 40.3437 30.1675 39.9575L19.1675 28.9575C18.7813 28.5708 18.5643 28.0466 18.5643 27.5C18.5643 26.9534 18.7813 26.4292 19.1675 26.0425L30.1675 15.0425C30.5585 14.6782 31.0756 14.4798 31.6099 14.4893C32.1443 14.4987 32.6541 14.7152 33.032 15.093C33.4098 15.4709 33.6263 15.9807 33.6357 16.5151C33.6452 17.0494 33.4468 17.5665 33.0825 17.9575L23.54 27.5L33.0825 37.0425C33.4687 37.4292 33.6857 37.9534 33.6857 38.5Z" fill="#3A643B"/>
<path d="M33.0825 39.9575C33.4687 39.5708 33.6857 39.0466 33.6857 38.5C33.6857 37.9534 33.4687 37.4292 33.0825 37.0425L23.54 27.5L33.0825 17.9575C33.4468 17.5665 33.6452 17.0494 33.6357 16.5151C33.6263 15.9807 33.4098 15.4709 33.032 15.093C32.6541 14.7152 32.1443 14.4987 31.6099 14.4893C31.0756 14.4798 30.5585 14.6782 30.1675 15.0425L19.1675 26.0425C18.7813 26.4292 18.5643 26.9534 18.5643 27.5C18.5643 28.0466 18.7813 28.5708 19.1675 28.9575L30.1675 39.9575C30.5542 40.3437 31.0784 40.5607 31.625 40.5607C32.1716 40.5607 32.6958 40.3437 33.0825 39.9575Z" fill="white"/>
</svg>
