<svg width="64" height="66" viewBox="0 0 64 66" fill="none" xmlns="http://www.w3.org/2000/svg">
<path d="M32 64C49.6731 64 64 49.6731 64 32C64 14.3269 49.6731 0 32 0C14.3269 0 0 14.3269 0 32C0 49.6731 14.3269 64 32 64Z" fill="#E0E8E2"/>
<g clip-path="url(#clip0_2179_1936)">
<path d="M26.1562 44.4004V47.1004H23.2188C23.024 47.1004 22.8372 47.1715 22.6995 47.2981C22.5617 47.4247 22.4844 47.5964 22.4844 47.7754C22.4844 47.9544 22.5617 48.1261 22.6995 48.2527C22.8372 48.3793 23.024 48.4504 23.2188 48.4504H26.1562V51.8254C26.1562 52.0044 26.2336 52.1761 26.3713 52.3027C26.5091 52.4293 26.6959 52.5004 26.8906 52.5004C27.0854 52.5004 27.2722 52.4293 27.4099 52.3027C27.5476 52.1761 27.625 52.0044 27.625 51.8254V48.4504H30.5625C30.7573 48.4504 30.9441 48.3793 31.0818 48.2527C31.2195 48.1261 31.2969 47.9544 31.2969 47.7754C31.2969 47.5964 31.2195 47.4247 31.0818 47.2981C30.9441 47.1715 30.7573 47.1004 30.5625 47.1004H27.625V44.4004H26.1562Z" fill="#3A643C"/>
<path d="M26.8904 43.0509C29.3278 43.0533 31.6738 42.1982 33.447 40.661C35.2202 39.1239 36.2861 37.0213 36.426 34.7846C36.5659 32.5479 35.7692 30.3469 34.1993 28.6331C32.6294 26.9193 30.4055 25.8227 27.9839 25.5684C27.8228 25.9952 27.7149 26.4375 27.6622 26.8866C29.5982 27.0573 31.4022 27.8643 32.7429 29.1593C34.0836 30.4544 34.871 32.1505 34.9604 33.9363C35.0498 35.722 34.4353 37.4775 33.2298 38.8803C32.0242 40.283 30.3084 41.2389 28.3977 41.5724C26.4869 41.9058 24.5094 41.5945 22.8284 40.6955C21.1473 39.7965 19.8756 38.3702 19.2467 36.6786C18.6178 34.987 18.674 33.1436 19.405 31.487C20.136 29.8305 21.4926 28.4719 23.2258 27.6609C23.2258 27.6156 23.2185 27.5711 23.2185 27.5259C23.2225 27.0598 23.261 26.5946 23.3338 26.1333C21.2763 26.8931 19.5707 28.2873 18.5097 30.0769C17.4487 31.8665 17.0984 33.9397 17.5191 35.9407C17.9398 37.9417 19.1051 39.7457 20.8151 41.0431C22.5251 42.3405 24.6731 43.0504 26.8904 43.0509Z" fill="#3A643C"/>
<path d="M31.3892 30.1689C32.3093 31.0147 32.9199 32.0948 33.147 33.2605C31.8544 33.0535 30.6621 32.4852 29.7346 31.6327C28.8144 30.7869 28.2038 29.7068 27.9768 28.5411C29.2694 28.7481 30.4617 29.3164 31.3892 30.1689Z" fill="#FDF8E5" stroke="#3A643C" stroke-width="0.5"/>
<path d="M34.2353 20.1C36.0492 20.1009 37.8101 20.6629 39.2342 21.6956C40.6584 22.7283 41.6629 24.1715 42.0861 25.7928C42.5093 27.4141 42.3264 29.1192 41.567 30.6333C40.8076 32.1475 39.5159 33.3827 37.8998 34.14C37.8998 34.1852 37.9071 34.2297 37.9071 34.275C37.9033 34.7372 37.865 35.1986 37.7926 35.656C39.9536 34.8573 41.7227 33.3605 42.7674 31.4471C43.812 29.5336 44.0603 27.3353 43.4654 25.2655C42.8705 23.1956 41.4735 21.3968 39.537 20.2072C37.6006 19.0176 35.258 18.5191 32.9498 18.8055C30.6415 19.092 28.5266 20.1436 27.0027 21.7626C25.4787 23.3816 24.6507 25.4565 24.6743 27.5973C24.6979 29.738 25.5715 31.7971 27.1308 33.3874C28.6901 34.9777 30.8277 35.9897 33.1418 36.2331C33.3028 35.8061 33.4107 35.3636 33.4634 34.9142C31.4013 34.7275 29.4961 33.8196 28.1417 32.3782C26.7873 30.9368 26.0872 29.0722 26.1863 27.1698C26.2855 25.2674 27.1761 23.4727 28.6742 22.1569C30.1723 20.8411 32.1632 20.1047 34.2353 20.1Z" fill="#3A643C"/>
<path d="M21.4919 31.1865C21.934 30.5402 22.5104 29.9797 23.1881 29.5369C23.6176 31.5557 24.6907 33.4116 26.2712 34.8669C27.847 36.3179 29.8518 37.3014 32.028 37.6996C31.5522 38.3002 30.9542 38.8138 30.2643 39.2109C29.4543 39.6772 28.5392 39.9704 27.587 40.0679C26.6348 40.1654 25.6712 40.0645 24.768 39.773C23.8648 39.4815 23.0463 39.0073 22.3725 38.3869C21.6989 37.7666 21.1875 37.0164 20.8746 36.1927C20.5617 35.3691 20.4549 34.4921 20.5615 33.6263C20.6681 32.7605 20.9857 31.9266 21.4919 31.1865Z" fill="#FDF8E5" stroke="#3A643C" stroke-width="0.5"/>
<path d="M40.8438 15.3742C40.8438 15.5532 40.9211 15.7249 41.0588 15.8515C41.1966 15.9781 41.3834 16.0492 41.5781 16.0492H43.9076C44.0528 16.0492 44.1947 16.0889 44.3155 16.163C44.4362 16.2372 44.5303 16.3426 44.5859 16.4659C44.6415 16.5892 44.656 16.7249 44.6277 16.8559C44.5994 16.9868 44.5294 17.107 44.4268 17.2014L41.5407 19.8535L42.5798 20.808L45.4652 18.1566C45.5679 18.0622 45.6987 17.9979 45.8411 17.9719C45.9836 17.9459 46.1312 17.9592 46.2654 18.0103C46.3996 18.0614 46.5142 18.1479 46.5949 18.2589C46.6756 18.3698 46.7187 18.5003 46.7188 18.6338V20.7742C46.7188 20.9532 46.7961 21.1249 46.9338 21.2515C47.0716 21.3781 47.2584 21.4492 47.4531 21.4492C47.6479 21.4492 47.8347 21.3781 47.9724 21.2515C48.1101 21.1249 48.1875 20.9532 48.1875 20.7742V15.3742C48.1875 15.1952 48.1101 15.0235 47.9724 14.8969C47.8347 14.7703 47.6479 14.6992 47.4531 14.6992H41.5781C41.3834 14.6992 41.1966 14.7703 41.0588 14.8969C40.9211 15.0235 40.8438 15.1952 40.8438 15.3742Z" fill="#3A643C"/>
<path d="M39.6252 30.605C39.1827 31.2515 38.6057 31.8119 37.9271 32.2544C37.4873 30.2423 36.4113 28.3941 34.8337 26.943C33.2608 25.4962 31.2632 24.5119 29.0938 24.1065C29.5685 23.5047 30.166 22.9898 30.8557 22.5916C31.6647 22.1245 32.579 21.8304 33.5307 21.732C34.4824 21.6336 35.4457 21.7337 36.3488 22.0244C37.2519 22.3151 38.0704 22.7887 38.7442 23.4084C39.4179 24.0281 39.9294 24.7779 40.2424 25.6012C40.5554 26.4243 40.6622 27.301 40.5556 28.1663C40.4491 29.0317 40.1315 29.8653 39.6252 30.605Z" fill="#FDF8E5" stroke="#3A643C" stroke-width="0.5"/>
</g>
<defs>
<clipPath id="clip0_2179_1936">
<rect width="47" height="54" fill="white" transform="translate(10 12)"/>
</clipPath>
</defs>
</svg>
