<svg width="64" height="65" viewBox="0 0 64 65" fill="none" xmlns="http://www.w3.org/2000/svg">
<circle cx="32" cy="33" r="32" fill="#EAF2EA"/>
<path d="M45.64 25.262C45.1089 35.3916 39.1642 23.4546 31.8311 23.4546C29.9911 24.1937 19.1222 35.9205 18.3066 25.26C18.3066 18.7823 24.498 13 31.8311 13C39.1642 13 45.64 18.7843 45.64 25.262Z" fill="#FDF8E5"/>
<path d="M42.7673 51.3276C40.4995 50.8986 38.851 49.7559 37.8591 47.9366C36.4295 45.3089 36.8626 42.2273 37.0535 41.7777C38.7579 40.6226 40.0245 39.1128 40.9652 37.079C42.3482 37.0501 43.7173 36.1055 44.644 34.542C45.417 33.2343 45.8268 31.4316 44.9932 30.3631C44.8256 30.1445 44.5695 29.9176 44.1876 29.7567C45.1935 28.0654 45.3984 26.6463 45.3984 24.8229C45.3984 18.3051 39.326 13 31.8659 13C28.8251 13 26.0124 13.8828 23.7492 15.3679C23.7399 15.372 23.7306 15.3761 23.7213 15.3803C23.6933 15.3968 23.67 15.4174 23.6468 15.438C20.415 17.5996 18.3288 21.003 18.3288 24.8229C18.3288 26.8154 18.3753 27.9045 19.3765 29.5175C18.9062 29.6783 18.6035 29.9382 18.4126 30.1857C17.579 31.2583 17.9842 33.0569 18.7619 34.3646C19.7025 35.9569 21.1042 36.9058 22.5105 36.9058C22.5757 36.9058 22.6363 36.8893 22.6875 36.8645C23.698 39.0179 25.0391 40.6721 26.6783 41.7777C26.8646 42.2232 27.3023 45.3047 25.8727 47.9366C24.8808 49.7559 23.2277 50.8986 20.9645 51.3317C20.7596 51.3688 20.6292 51.5504 20.6711 51.7319C20.7084 51.8886 20.8667 52 21.0437 52C21.0716 52 21.0949 51.9959 21.1228 51.9917C25.2254 51.2121 26.7575 48.4523 27.3209 46.2742C27.6795 44.8963 27.7121 43.3618 27.577 42.3593C28.853 43.073 30.3431 43.4566 31.8659 43.4566C33.3887 43.4566 34.8835 43.0689 36.1548 42.3593C36.015 43.3659 36.0523 44.8963 36.4109 46.2742C36.9743 48.4523 38.5064 51.2121 42.609 51.9917C42.6369 51.9959 42.6649 52 42.6881 52C42.8651 52 43.0234 51.8927 43.0607 51.7319C43.1026 51.5421 42.9722 51.3647 42.7673 51.3276ZM44.6347 24.8188C44.6347 26.8649 44.318 28.1314 43.4332 29.5628C43.2749 29.5463 43.1073 29.5381 42.921 29.5422C43.7592 20.3305 37.0861 18.0905 37.0162 18.0699C36.816 18.008 36.6018 18.0988 36.5273 18.2721C36.4574 18.4453 36.5599 18.6392 36.7555 18.7052C36.8113 18.7217 41.3703 20.2604 42.12 26.2626C39.4703 20.4626 31.3211 20.5121 31.2233 20.5203C31.0137 20.5244 30.8461 20.6771 30.8507 20.8627C30.8554 21.0483 31.023 21.1927 31.2326 21.1927C31.2372 21.1927 31.2372 21.1927 31.2372 21.1927C31.6237 21.1845 40.1875 21.1391 41.8825 27.8797C41.0536 26.9598 39.8429 26.1389 38.227 25.3963C37.305 24.9714 36.3317 24.6167 35.391 24.2743C34.3945 23.9113 33.3654 23.5359 32.4061 23.0821C28.7925 21.3577 26.4827 18.5361 24.4477 15.7515C26.5386 14.4438 29.0998 13.6724 31.8612 13.6724C38.9069 13.6724 44.6347 18.6722 44.6347 24.8188ZM19.0925 24.8188C19.0925 21.3247 20.9459 18.2019 23.8377 16.1558C25.7656 18.796 27.9542 21.4691 31.2745 23.2677C30.5341 24.1216 27.144 27.7147 21.5838 29.1874C21.8772 26.5638 24.6107 23.9608 24.6386 23.936C24.783 23.7999 24.7737 23.5854 24.6247 23.4575C24.471 23.3296 24.2289 23.3378 24.0892 23.4699C23.9588 23.5936 20.9738 26.4276 20.8062 29.3772C20.8015 29.3772 20.7968 29.3772 20.7922 29.3813C20.564 29.3607 20.3545 29.3566 20.1635 29.3648C19.139 27.7972 19.0925 26.8195 19.0925 24.8188ZM27.1999 41.2785C25.4629 40.1193 24.0752 38.3042 23.0833 35.9033L22.4407 33.9768C22.3801 33.7994 22.1706 33.6963 21.9657 33.7499C21.7654 33.8036 21.649 33.9892 21.7096 34.1707L22.3615 36.1178C22.3755 36.155 22.3941 36.188 22.4081 36.2251C21.1368 36.1673 20.0471 35.0741 19.4417 34.0511C18.6501 32.7145 18.4871 31.2831 19.0459 30.5694C19.3765 30.1445 19.9586 29.9754 20.7782 30.0661C20.7875 30.0661 20.8015 30.0661 20.8108 30.0661C20.8155 30.0661 20.8201 30.0661 20.8248 30.0661C20.8294 30.0661 20.8341 30.0661 20.8388 30.0661C20.862 30.0661 20.8853 30.062 20.9086 30.0579C20.9133 30.0579 20.9133 30.0579 20.9179 30.0579H20.9226C20.9272 30.0579 20.9319 30.0579 20.9365 30.0537C21.025 30.0331 21.1135 30.0125 21.1973 29.9919C21.2485 29.9877 21.2998 29.9754 21.3463 29.9589C27.619 28.4614 31.2559 24.4352 31.9404 23.6184C31.9823 23.639 32.0242 23.6637 32.0661 23.6844C33.058 24.1546 34.1058 24.5383 35.1163 24.9054C36.0383 25.2437 36.9976 25.5902 37.8917 26.0027C40.1828 27.0506 41.5845 28.251 42.1852 29.666C42.1852 29.6701 42.1899 29.6701 42.1899 29.6742C42.1945 29.6825 42.1992 29.6948 42.2038 29.7031C42.2085 29.7113 42.2132 29.7196 42.2225 29.7278C42.2271 29.7361 42.2364 29.7443 42.2411 29.7526C42.2411 29.7526 42.2411 29.7567 42.2458 29.7567C42.2132 29.8145 42.1945 29.8846 42.2038 29.9547C42.2271 30.1404 42.4181 30.2724 42.6276 30.2476C43.4472 30.161 44.0293 30.3301 44.3599 30.7509C44.9187 31.4646 44.7557 32.9001 43.9641 34.2326C43.4006 35.1855 42.4181 36.1921 41.2585 36.3777C41.3656 36.1096 41.4727 35.8332 41.5705 35.5485L42.0176 33.882C42.0641 33.7004 41.9384 33.5189 41.7335 33.4777C41.5286 33.4364 41.3237 33.5478 41.2772 33.7293L40.8348 35.3753C39.8988 38.0649 38.5343 39.9419 36.518 41.2909C36.5133 41.2909 36.5133 41.295 36.5087 41.295C35.2048 42.2521 33.5563 42.7801 31.8612 42.7801C30.1708 42.776 28.5177 42.2479 27.1999 41.2785Z" fill="#3A643C"/>
<path d="M28.6916 30.9282C26.8755 32.1658 24.6635 30.9612 24.5658 30.9117C24.3888 30.8127 24.1513 30.8581 24.0395 31.0148C23.9278 31.1716 23.979 31.382 24.156 31.481C24.2305 31.5222 25.3947 32.1617 26.8196 32.1617C27.5647 32.1617 28.3796 31.9884 29.148 31.4645C29.3156 31.3531 29.3482 31.1386 29.2178 30.9901C29.0968 30.8457 28.8593 30.8168 28.6916 30.9282Z" fill="#3A643C"/>
<path d="M39.5693 31.4814C39.7462 31.3824 39.7975 31.1761 39.6857 31.0152C39.5739 30.8585 39.3411 30.809 39.1595 30.908C39.0663 30.9616 36.8544 32.1621 35.0336 30.9245C34.866 30.809 34.6285 30.8379 34.4981 30.9864C34.3677 31.1349 34.4003 31.3453 34.5679 31.4608C35.3363 31.9847 36.1512 32.1579 36.8963 32.1579C38.3306 32.1621 39.4994 31.5227 39.5693 31.4814Z" fill="#3A643C"/>
<path d="M16.704 30.3127C14.9531 30.1683 14.8134 27.6024 14.8134 27.5776C14.8041 27.3961 14.6364 27.2559 14.4315 27.2559C14.2266 27.2559 14.059 27.4002 14.0497 27.5776C14.0497 27.6024 13.91 30.1683 12.1591 30.3127C11.9635 30.3292 11.8145 30.4735 11.8145 30.6468C11.8145 30.8201 11.9635 30.9644 12.1591 30.981C13.612 31.1006 14.0171 33.5716 14.0497 34.5122C14.0543 34.6937 14.2266 34.838 14.4315 34.838C14.6364 34.838 14.8041 34.6937 14.8134 34.5122C14.846 33.5716 15.2511 31.1006 16.704 30.981C16.8996 30.9644 17.0486 30.8201 17.0486 30.6468C17.0486 30.4735 16.8996 30.3292 16.704 30.3127ZM14.4315 32.4372C14.2034 31.7606 13.8355 31.08 13.2534 30.6757C13.8355 30.3415 14.2034 29.7929 14.4315 29.2484C14.6597 29.7929 15.0276 30.3415 15.6097 30.6757C15.0276 31.08 14.6597 31.7606 14.4315 32.4372Z" fill="#3A643C"/>
<path d="M51.8388 19.7482C50.0879 19.6038 49.9482 17.0379 49.9482 17.0132C49.9388 16.8317 49.7712 16.6914 49.5663 16.6914C49.3614 16.6914 49.1938 16.8358 49.1845 17.0132C49.1845 17.0379 49.0448 19.6038 47.2938 19.7482C47.0982 19.7647 46.9492 19.9091 46.9492 20.0824C46.9492 20.2556 47.0982 20.4 47.2938 20.4165C48.7467 20.5361 49.1519 23.0071 49.1845 23.9477C49.1891 24.1292 49.3614 24.2736 49.5663 24.2736C49.7712 24.2736 49.9388 24.1292 49.9482 23.9477C49.9808 23.0071 50.3859 20.5361 51.8388 20.4165C52.0344 20.4 52.1834 20.2556 52.1834 20.0824C52.1834 19.9091 52.0344 19.7647 51.8388 19.7482ZM49.571 21.8727C49.3428 21.1962 48.9749 20.5155 48.3928 20.1112C48.9749 19.7771 49.3428 19.2284 49.571 18.6839C49.7991 19.2284 50.167 19.7771 50.7491 20.1112C50.1624 20.5155 49.7991 21.1962 49.571 21.8727Z" fill="#3A643C"/>
<path d="M19.4428 37.2488C18.6512 37.1828 18.586 35.9906 18.586 35.9782C18.5813 35.8586 18.4696 35.7637 18.3345 35.7637C18.1995 35.7637 18.0877 35.8586 18.0831 35.9782C18.0831 35.9906 18.0086 37.1828 17.2262 37.2488C17.0958 37.2611 16.998 37.356 16.998 37.4715C16.998 37.587 17.0958 37.686 17.2262 37.6943C17.8782 37.7479 18.0644 38.936 18.0831 39.3485C18.0877 39.4681 18.1995 39.5671 18.3345 39.5671C18.4696 39.5671 18.586 39.4723 18.586 39.3485C18.6 38.936 18.7909 37.7479 19.4428 37.6943C19.5732 37.6819 19.671 37.587 19.671 37.4715C19.671 37.356 19.5732 37.2611 19.4428 37.2488ZM18.3345 38.1357C18.2321 37.8882 18.0831 37.6572 17.8782 37.4921C18.0831 37.3519 18.2321 37.158 18.3345 36.9559C18.437 37.158 18.586 37.3519 18.7909 37.4921C18.586 37.6572 18.437 37.8882 18.3345 38.1357Z" fill="#3A643C"/>
</svg>
