<svg width="18" height="18" viewBox="0 0 18 18" fill="black" xmlns="http://www.w3.org/2000/svg">
<path d="M6.37201 8.72969C6.37201 8.83769 6.40801 8.94569 6.49801 9.05369C7.18201 9.73769 7.88401 10.4397 8.56801 11.1237C8.98201 11.5377 9.61201 10.9077 9.19801 10.4937C8.74801 10.0437 8.31601 9.61169 7.86601 9.16169C10.332 9.16169 12.816 9.16169 15.282 9.16169C15.39 9.16169 15.498 9.12569 15.552 9.07169C15.66 8.99969 15.732 8.87369 15.714 8.71169C15.696 6.24569 14.436 3.95969 12.294 2.68169C8.38801 0.35969 3.15001 2.48369 1.96201 6.89369C0.774007 11.3397 4.21201 15.6417 8.73001 15.7317C9.30601 15.7497 9.30601 14.8497 8.73001 14.8317C6.24601 14.7777 3.97801 13.3197 3.06001 10.9797C2.16001 8.72969 2.71801 6.10169 4.41001 4.39169C6.12001 2.68169 8.74801 2.14169 10.998 3.04169C13.176 3.90569 14.616 5.97569 14.814 8.26169C12.51 8.26169 10.224 8.26169 7.92001 8.26169C8.37001 7.81169 8.80201 7.37969 9.25201 6.92969C9.66601 6.51569 9.01801 5.88569 8.62201 6.29969C7.92001 7.00169 7.21801 7.70369 6.49801 8.42369C6.39001 8.51369 6.35401 8.62169 6.37201 8.72969Z"/>
</svg>
