<svg xmlns="http://www.w3.org/2000/svg" xmlns:xlink="http://www.w3.org/1999/xlink" version="1.1" width="141.732" height="141.732" viewBox="0 0 141.732 141.732">
<defs>
<clipPath id="clip_2">
<path transform="matrix(1,0,0,-1,0,141.732)" d="M0 141.732H141.732V0H0Z"/>
</clipPath>
</defs>
<g id="layer_1" data-name="Layer 1">
<g clip-path="url(#clip_2)">
<path transform="matrix(1,0,0,-1,117.5687,137.8021)" d="M0 0H-93.513C-104.49 0-113.388 8.898-113.388 19.875V113.388C-113.388 124.365-104.49 133.263-93.513 133.263H0C10.977 133.263 19.875 124.365 19.875 113.388V19.875C19.875 8.898 10.977 0 0 0" fill="#fef8e4"/>
<path transform="matrix(1,0,0,-1,79.2927,64.2523)" d="M0 0C4.639-4.639 4.637-12.225-.017-16.879-4.681-21.543-12.245-21.524-16.884-16.884-21.527-12.242-21.538-4.686-16.874-.022-12.22 4.631-4.643 4.643 0 0M-24.214-5.672-48.082 .341C-49.256 .668-50.492-.106-50.718-1.263-51.086-2.435-50.359-3.632-49.139-3.959L-24.429-10.144C-24.309-11.224-24.122-12.281-23.801-13.338L-37.48-16.756C-38.671-17.038-39.386-18.198-39.104-19.373-38.841-20.573-37.597-21.304-36.473-21.022L-21.698-17.384C-21.106-18.243-20.74-19.211-19.975-19.975-13.601-26.35-3.275-26.387 3.108-20.004 4.213-18.899 4.89-17.546 5.611-16.234L23.182-20.927C23.935-21.167 24.738-20.922 25.319-20.341 25.564-20.096 25.776-19.794 25.874-19.378 26.175-18.207 25.5-17.018 24.272-16.684L7.17-12.125C7.371-11.299 7.583-10.507 7.661-9.669L32.38-.842C32.687-.726 32.96-.574 33.217-.318 33.742 .207 34.028 1.147 33.736 1.998 33.328 3.119 32.04 3.694 30.921 3.317L7.251-5.153C7.006-3.925 6.774-2.734 6.239-1.595L20.188 8.18C20.289 8.281 20.445 8.348 20.501 8.404 21.226 9.129 21.376 10.362 20.681 11.28 20.037 12.304 18.673 12.529 17.674 11.787L3.797 2.096C3.523 2.413 3.423 2.826 3.124 3.124 2.795 3.454 2.346 3.568 1.992 3.856L11.929 28.379C12.399 29.562 11.865 30.854 10.705 31.301 9.617 31.763 8.319 31.186 7.834 30.109L-1.777 6.353C-2.963 6.892-4.221 7.079-5.499 7.307L-2.935 24.719C-2.762 25.907-3.601 27.082-4.827 27.258-5.984 27.433-7.181 26.6-7.288 25.389L-9.927 7.583C-11.232 7.461-12.515 7.27-13.769 6.827L-26.348 29.317C-26.909 30.391-28.309 30.787-29.358 30.207-30.416 29.612-30.798 28.298-30.196 27.204L-17.624 4.657C-18.41 4.105-19.295 3.783-19.987 3.091-20.31 2.768-20.414 2.357-20.699 2.017L-33.426 10.884C-34.394 11.607-35.828 11.3-36.492 10.357-37.159 9.372-36.925 7.999-35.898 7.263L-23.11-1.621C-23.709-2.918-23.977-4.28-24.214-5.672" fill="#3b653c"/>
</g>
<text fill="#3b653c" xml:space="preserve" transform="matrix(1 0 -0 1 0 141.732)" font-size="8.977" font-family="DINPro" font-weight="bold"><tspan y="-33.5083" x="24.9492 29.689057 31.83456 37.74143 39.886934 44.71656 46.862066 51.628854 53.774358 57.84094 59.986444 64.726299 66.871799 72.77866 74.924167 77.5634 79.7089 84.332057 86.477558 90.45437 92.59987 97.285869 99.431369 104.20713 106.35263 111.09248 113.23798">A M R U T A M . G L O B A L</tspan></text>
</g>
</svg>
