<svg width="21" height="19" viewBox="0 0 21 19" fill="none" xmlns="http://www.w3.org/2000/svg">
<path d="M3.43799 7.50977H17.879V15.6799C17.879 17.0416 16.7716 18.1489 15.4098 18.1489H5.92215C4.56035 18.1489 3.45294 17.0416 3.45294 15.6799V7.50977H3.43799Z" fill="#3A643B" stroke="#FFF7E2" stroke-width="1.5" stroke-linecap="round" stroke-linejoin="round"/>
<path d="M19.8407 6.3869C19.8407 6.3869 19.8107 6.31209 19.7808 6.2672L17.8055 2.63104C17.2518 1.62847 16.2042 1 15.0669 1H6.2676C5.17518 1 4.17254 1.56862 3.60388 2.49636L1.28433 6.28216C1.28433 6.28216 1.23945 6.35698 1.22449 6.40187C1.07484 6.76099 1 7.16501 1 7.56903C1 9.30481 2.42166 10.7114 4.1875 10.7114C5.5493 10.7114 6.71656 9.85846 7.1655 8.66137C7.24032 8.48181 7.49472 8.48181 7.55458 8.66137C8.00352 9.85846 9.17078 10.7114 10.5326 10.7114C11.8944 10.7114 13.0766 9.85846 13.5255 8.66137C13.6003 8.48181 13.8547 8.48181 13.9146 8.66137C14.3635 9.85846 15.5308 10.7114 16.8926 10.7114C18.6584 10.7114 20.0801 9.30481 20.0801 7.56903C20.0801 7.16501 20.0053 6.76099 19.8556 6.40187L19.8407 6.3869Z" fill="#3A643B" stroke="#FFF7E2" stroke-width="1.5" stroke-linecap="round" stroke-linejoin="round"/>
<path d="M7.25244 8.63631L8.06053 5.22461" stroke="#FFF7E2" stroke-width="1.5" stroke-linecap="round" stroke-linejoin="round"/>
<path d="M13.8258 8.61546L12.9878 5.17383" stroke="#FFF7E2" stroke-width="1.5" stroke-linecap="round" stroke-linejoin="round"/>
<path d="M7.68912 18.1316C7.67415 17.982 7.65918 17.8323 7.65918 17.6677C7.65918 15.902 9.0958 14.4805 10.8467 14.4805C12.5976 14.4805 14.0342 15.917 14.0342 17.6677C14.0342 17.8323 14.0342 17.982 14.0042 18.1316" fill="#3A643B"/>
<path d="M7.68912 18.1316C7.67415 17.982 7.65918 17.8323 7.65918 17.6677C7.65918 15.902 9.0958 14.4805 10.8467 14.4805C12.5976 14.4805 14.0342 15.917 14.0342 17.6677C14.0342 17.8323 14.0342 17.982 14.0042 18.1316" stroke="#FFF7E2" stroke-width="1.5" stroke-linecap="round" stroke-linejoin="round"/>
</svg>
