<svg width="22" height="21" viewBox="0 0 22 21" fill="none" xmlns="http://www.w3.org/2000/svg">
<path d="M12.7356 2.8672C12.7357 3.11248 12.6874 3.35538 12.5937 3.58202C12.4999 3.80866 12.3623 4.01461 12.189 4.18811C12.0156 4.36161 11.8097 4.49925 11.5831 4.59319C11.3565 4.68713 11.1137 4.73552 10.8684 4.7356C10.6231 4.73568 10.3802 4.68745 10.1536 4.59365C9.92694 4.49986 9.72099 4.36234 9.54749 4.18896C9.37399 4.01557 9.23635 3.80971 9.14241 3.58313C9.04847 3.35655 9.00008 3.11368 9 2.8684C8.99984 2.37303 9.19647 1.89788 9.54664 1.54749C9.89681 1.1971 10.3718 1.00016 10.8672 1C11.3626 0.999841 11.8377 1.19647 12.1881 1.54664C12.5385 1.89681 12.7354 2.37183 12.7356 2.8672Z" fill="#11161A"/>
<path d="M10.8672 11.1448C11.8984 11.1448 12.7344 10.3088 12.7344 9.2776C12.7344 8.24638 11.8984 7.4104 10.8672 7.4104C9.83597 7.4104 9 8.24638 9 9.2776C9 10.3088 9.83597 11.1448 10.8672 11.1448Z" fill="#11161A"/>
<path d="M10.8672 17.5564C11.8984 17.5564 12.7344 16.7204 12.7344 15.6892C12.7344 14.658 11.8984 13.822 10.8672 13.822C9.83597 13.822 9 14.658 9 15.6892C9 16.7204 9.83597 17.5564 10.8672 17.5564Z" fill="#11161A"/>
</svg>
