<svg width="24" height="24" viewBox="0 0 24 24" fill="none" xmlns="http://www.w3.org/2000/svg">
<path d="M16 11.7503H13.6775C13.5826 11.7503 13.4896 11.7774 13.4095 11.8283C13.3293 11.8792 13.2653 11.9519 13.225 12.0378L12.61 13.3478L11.86 8.91531C11.8414 8.80455 11.7861 8.70328 11.7029 8.62781C11.6198 8.55233 11.5136 8.50705 11.4016 8.49925C11.2896 8.49146 11.1782 8.5216 11.0854 8.58483C10.9926 8.64806 10.9237 8.7407 10.89 8.84781L9.9575 11.7503H8C7.86739 11.7503 7.74021 11.803 7.64645 11.8968C7.55268 11.9905 7.5 12.1177 7.5 12.2503C7.5 12.3829 7.55268 12.5101 7.64645 12.6039C7.74021 12.6976 7.86739 12.7503 8 12.7503H10.3225C10.4287 12.7506 10.5322 12.7171 10.618 12.6546C10.7039 12.5921 10.7676 12.5039 10.8 12.4028L11.21 11.1078L11.895 15.0853C11.9122 15.1908 11.9627 15.2881 12.0392 15.3628C12.1157 15.4375 12.2141 15.4857 12.32 15.5003H12.3875C12.4824 15.5003 12.5754 15.4732 12.6555 15.4223C12.7357 15.3714 12.7997 15.2987 12.84 15.2128L14 12.7503H16C16.1326 12.7503 16.2598 12.6976 16.3536 12.6039C16.4473 12.5101 16.5 12.3829 16.5 12.2503C16.5 12.1177 16.4473 11.9905 16.3536 11.8968C16.2598 11.803 16.1326 11.7503 16 11.7503Z" fill="#3A643B"/>
<path d="M20.4999 10.5H19.8574C19.6398 9.37278 19.1829 8.30538 18.5174 7.36992C17.8519 6.43445 16.9934 5.65271 15.9999 5.0775V2.25C15.9999 1.78587 15.8155 1.34075 15.4873 1.01256C15.1592 0.684374 14.714 0.5 14.2499 0.5H9.7499C9.28577 0.5 8.84066 0.684374 8.51247 1.01256C8.18428 1.34075 7.9999 1.78587 7.9999 2.25V5.0775C6.78642 5.78041 5.77903 6.78995 5.07872 8.00493C4.3784 9.21991 4.00977 10.5976 4.00977 12C4.00977 13.4024 4.3784 14.7801 5.07872 15.9951C5.77903 17.21 6.78642 18.2196 7.9999 18.9225V21.75C7.9999 22.2141 8.18428 22.6592 8.51247 22.9874C8.84066 23.3156 9.28577 23.5 9.7499 23.5H14.2499C14.714 23.5 15.1592 23.3156 15.4873 22.9874C15.8155 22.6592 15.9999 22.2141 15.9999 21.75V18.9225C16.9934 18.3473 17.8519 17.5655 18.5174 16.6301C19.1829 15.6946 19.6398 14.6272 19.8574 13.5H20.4999C20.8977 13.5 21.2793 13.342 21.5606 13.0607C21.8419 12.7794 21.9999 12.3978 21.9999 12C21.9999 11.6022 21.8419 11.2206 21.5606 10.9393C21.2793 10.658 20.8977 10.5 20.4999 10.5ZM8.9999 2.25C8.9999 2.05109 9.07892 1.86032 9.21957 1.71967C9.36023 1.57902 9.55099 1.5 9.7499 1.5H14.2499C14.4488 1.5 14.6396 1.57902 14.7802 1.71967C14.9209 1.86032 14.9999 2.05109 14.9999 2.25V4.585C13.0759 3.80502 10.9239 3.80502 8.9999 4.585V2.25ZM14.9999 21.75C14.9999 21.9489 14.9209 22.1397 14.7802 22.2803C14.6396 22.421 14.4488 22.5 14.2499 22.5H9.7499C9.55099 22.5 9.36023 22.421 9.21957 22.2803C9.07892 22.1397 8.9999 21.9489 8.9999 21.75V19.415C10.9239 20.195 13.0759 20.195 14.9999 19.415V21.75ZM11.9999 19C10.6154 19 9.26206 18.5895 8.11091 17.8203C6.95977 17.0511 6.06256 15.9579 5.53275 14.6788C5.00293 13.3997 4.86431 11.9922 5.13441 10.6344C5.4045 9.2765 6.07119 8.02922 7.05016 7.05025C8.02912 6.07128 9.2764 5.4046 10.6343 5.1345C11.9921 4.86441 13.3996 5.00303 14.6787 5.53284C15.9578 6.06266 17.051 6.95986 17.8202 8.11101C18.5894 9.26215 18.9999 10.6155 18.9999 12C18.9999 13.8565 18.2624 15.637 16.9497 16.9497C15.6369 18.2625 13.8564 19 11.9999 19ZM20.8574 12.3525C20.8106 12.3996 20.7549 12.4369 20.6935 12.4622C20.6321 12.4875 20.5663 12.5004 20.4999 12.5H19.9824C19.9824 12.335 19.9999 12.1675 19.9999 12C19.9999 11.8325 19.9999 11.665 19.9824 11.5H20.4999C20.6325 11.5 20.7597 11.5527 20.8535 11.6464C20.9472 11.7402 20.9999 11.8674 20.9999 12C21.0007 12.1317 20.9495 12.2583 20.8574 12.3525Z" fill="#3A643B"/>
</svg>
