<svg width="18" height="18" viewBox="0 0 18 18" fill="black" xmlns="http://www.w3.org/2000/svg">
<path d="M5.712 14.9994C5.376 14.9994 5.09 14.8814 4.854 14.6454C4.618 14.4094 4.5 14.1236 4.5 13.7881V4.49937H3.75V3.74937H6.75V3.17188H11.25V3.74937H14.25V4.49937H13.5V13.7881C13.5 14.1331 13.3845 14.4214 13.1535 14.6529C12.9225 14.8844 12.634 14.9999 12.288 14.9994H5.712ZM12.75 4.49937H5.25V13.7881C5.25 13.9226 5.29325 14.0331 5.37975 14.1196C5.46625 14.2061 5.577 14.2494 5.712 14.2494H12.2887C12.4038 14.2494 12.5095 14.2014 12.606 14.1054C12.7025 14.0094 12.7505 13.9034 12.75 13.7874V4.49937ZM7.356 12.7494H8.106V5.99937H7.356V12.7494ZM9.894 12.7494H10.644V5.99937H9.894V12.7494Z" />
</svg>
