<svg width="22" height="14" viewBox="0 0 22 14" fill="none" xmlns="http://www.w3.org/2000/svg">
<path d="M21.1943 2.53378C20.6988 2.23211 20.0985 2.20829 19.5791 2.4663L16.383 3.85561V2.18184C16.383 0.97911 15.4025 0 14.198 0H2.18502C0.980537 0 0 0.97911 0 2.18184V11.8182C0 13.0209 0.980537 14 2.18502 14H14.2007C15.4052 14 16.3857 13.0209 16.3857 11.8182V10.0571L19.5606 11.4927C19.8044 11.6184 20.0654 11.6792 20.3278 11.6792C20.6233 11.6792 20.9214 11.5985 21.1864 11.4384C21.6952 11.1341 22 10.5982 22 10.0055L21.9987 3.95995C21.9987 3.36982 21.6965 2.83809 21.1943 2.53378ZM14.1966 12.6453H2.18502C1.72654 12.6453 1.35686 12.2762 1.35686 11.8184V2.17799C1.35686 1.72017 1.72654 1.35103 2.18502 1.35103H14.2007C14.6592 1.35103 15.0289 1.72017 15.0289 2.17799V4.89173V4.8957V11.8158C15.0276 12.2723 14.6551 12.6453 14.1966 12.6453ZM20.6417 10.0097C20.6417 10.1658 20.5463 10.2465 20.4894 10.2809C20.4311 10.3153 20.3158 10.3616 20.1766 10.2875C20.1634 10.2809 20.1501 10.2743 20.1356 10.2677L16.3842 8.56745V5.32974L20.1393 3.697C20.1525 3.69038 20.1658 3.68376 20.1804 3.67715C20.3155 3.6057 20.4308 3.65333 20.4891 3.68773C20.5474 3.72213 20.6415 3.80285 20.6415 3.95501L20.6417 10.0097Z" fill="#3A643B"/>
</svg>
