<svg width="40" height="40" viewBox="0 0 40 40" fill="none" xmlns="http://www.w3.org/2000/svg">
<rect width="40" height="40" rx="8" fill="#F4F5FA"/>
<g clip-path="url(#clip0_175_643)">
<g clip-path="url(#clip1_175_643)">
<path opacity="0.4" d="M17.2331 28.3307H23.8998C26.1998 28.3307 28.0665 26.4641 28.0665 24.1641V15.8307C28.0665 13.5307 26.1998 11.6641 23.8998 11.6641H17.2331C14.9331 11.6641 13.0664 13.5307 13.0664 15.8307V24.1641C13.0664 26.4641 14.9331 28.3307 17.2331 28.3307Z" fill="#AED5B2"/>
<path d="M23.0667 14.7578H18.0667C17.2083 14.7578 16.5 15.4578 16.5 16.3245V17.1578C16.5 18.0162 17.2 18.7245 18.0667 18.7245H23.0667C23.925 18.7245 24.6333 18.0245 24.6333 17.1578V16.3245C24.6333 15.4578 23.9333 14.7578 23.0667 14.7578Z" fill="#3A643B"/>
<path d="M17.3651 22.433C17.2484 22.433 17.1401 22.408 17.0401 22.3664C16.9401 22.3247 16.8484 22.2664 16.7734 22.1914C16.6151 22.033 16.5234 21.8247 16.5234 21.5997C16.5234 21.4914 16.5484 21.383 16.5901 21.283C16.6318 21.1747 16.6901 21.0914 16.7734 21.008C16.9651 20.8164 17.2568 20.7247 17.5234 20.783C17.5734 20.7914 17.6318 20.808 17.6818 20.833C17.7318 20.8497 17.7818 20.8747 17.8234 20.908C17.8734 20.933 17.9151 20.9747 17.9484 21.008C18.0234 21.0914 18.0901 21.1747 18.1318 21.283C18.1734 21.383 18.1901 21.4914 18.1901 21.5997C18.1901 21.8247 18.1068 22.033 17.9484 22.1914C17.7901 22.3497 17.5818 22.433 17.3651 22.433Z" fill="#3A643B"/>
<path d="M20.6927 22.4297C20.476 22.4297 20.2677 22.3464 20.1093 22.188C19.951 22.0297 19.8594 21.8214 19.8594 21.5964C19.8594 21.3797 19.951 21.163 20.1093 21.0047C20.4177 20.6964 20.976 20.6964 21.2843 21.0047C21.3593 21.088 21.426 21.1714 21.4677 21.2797C21.5093 21.3797 21.526 21.488 21.526 21.5964C21.526 21.8214 21.4427 22.0297 21.2843 22.188C21.126 22.3464 20.9177 22.4297 20.6927 22.4297Z" fill="#3A643B"/>
<path d="M24.0247 22.4297C23.8081 22.4297 23.5997 22.3464 23.4414 22.188C23.2831 22.0297 23.1914 21.8214 23.1914 21.5964C23.1914 21.3797 23.2831 21.163 23.4414 21.0047C23.7497 20.6964 24.3081 20.6964 24.6164 21.0047C24.7747 21.163 24.8664 21.3797 24.8664 21.5964C24.8664 21.7047 24.8414 21.813 24.7997 21.913C24.7581 22.013 24.6997 22.1047 24.6164 22.188C24.4581 22.3464 24.2497 22.4297 24.0247 22.4297Z" fill="#3A643B"/>
<path d="M17.3651 25.7641C17.1401 25.7641 16.9318 25.6807 16.7734 25.5224C16.6151 25.3641 16.5234 25.1557 16.5234 24.9307C16.5234 24.7141 16.6151 24.4974 16.7734 24.3391C16.8484 24.2641 16.9401 24.2057 17.0401 24.1641C17.2484 24.0807 17.4734 24.0807 17.6818 24.1641C17.7318 24.1807 17.7818 24.2057 17.8234 24.2391C17.8734 24.2641 17.9151 24.3057 17.9484 24.3391C18.1068 24.4974 18.1984 24.7141 18.1984 24.9307C18.1984 25.1557 18.1068 25.3641 17.9484 25.5224C17.7901 25.6807 17.5818 25.7641 17.3651 25.7641Z" fill="#3A643B"/>
<path d="M20.6927 25.7636C20.476 25.7636 20.2677 25.6803 20.1093 25.5219C19.951 25.3636 19.8594 25.1553 19.8594 24.9303C19.8594 24.8719 19.8677 24.8219 19.876 24.7636C19.8927 24.7136 19.9094 24.6636 19.926 24.6136C19.951 24.5636 19.976 24.5136 20.001 24.4636C20.0343 24.4219 20.0677 24.3803 20.1093 24.3386C20.1843 24.2636 20.276 24.2053 20.376 24.1636C20.6843 24.0386 21.051 24.1053 21.2843 24.3386C21.4427 24.4969 21.526 24.7136 21.526 24.9303C21.526 25.1553 21.4427 25.3636 21.2843 25.5219C21.2093 25.5969 21.1177 25.6553 21.0177 25.6969C20.9177 25.7386 20.8093 25.7636 20.6927 25.7636Z" fill="#3A643B"/>
<path d="M24.0281 25.7636C23.9198 25.7636 23.8114 25.7386 23.7114 25.6969C23.6114 25.6553 23.5198 25.5969 23.4448 25.5219C23.2864 25.3636 23.2031 25.1553 23.2031 24.9303C23.2031 24.7136 23.2864 24.4969 23.4448 24.3386C23.6698 24.1053 24.0448 24.0386 24.3531 24.1636C24.4531 24.2053 24.5448 24.2636 24.6198 24.3386C24.7781 24.4969 24.8614 24.7136 24.8614 24.9303C24.8614 25.1553 24.7781 25.3636 24.6198 25.5219C24.4614 25.6803 24.2531 25.7636 24.0281 25.7636Z" fill="#3A643B"/>
</g>
</g>
<defs>
<clipPath id="clip0_175_643">
<rect width="21" height="20" fill="white" transform="translate(10 10)"/>
</clipPath>
<clipPath id="clip1_175_643">
<rect width="21" height="20" fill="white" transform="translate(10 10)"/>
</clipPath>
</defs>
</svg>
