<svg width="32" height="24" viewBox="0 0 32 24" fill="none" xmlns="http://www.w3.org/2000/svg">
<path d="M28.9286 4.10715L28.6436 2.51495C28.5749 2.11981 28.4286 1.74219 28.2133 1.40384C27.9979 1.06549 27.7177 0.773087 27.3889 0.543492C27.06 0.313897 26.689 0.151644 26.2972 0.0660802C25.9053 -0.0194836 25.5004 -0.0266665 25.1058 0.044946L3.79162 3.81835C3.35259 3.89656 2.93615 4.0704 2.57182 4.32755C2.08256 4.58541 1.67292 4.97185 1.387 5.44525C1.10108 5.91866 0.949718 6.4611 0.949219 7.01415V20.9677C0.949219 21.774 1.2695 22.5472 1.83961 23.1174C2.40973 23.6875 3.18296 24.0077 3.98922 24.0077H28.009C28.8153 24.0077 29.5885 23.6875 30.1586 23.1174C30.7287 22.5472 31.049 21.774 31.049 20.9677V7.01415C31.051 6.367 30.8465 5.73609 30.4651 5.21325C30.0837 4.6904 29.5455 4.30291 28.9286 4.10715ZM29.168 16.1949H27.154C26.929 16.2016 26.7051 16.1614 26.4965 16.077C26.2878 15.9927 26.099 15.8659 25.9418 15.7047C25.7922 15.5556 25.6744 15.3777 25.5954 15.1818C25.5163 14.9858 25.4778 14.776 25.482 14.5647C25.5104 14.1397 25.704 13.7426 26.0215 13.4585C26.339 13.1744 26.755 13.0259 27.1806 13.0447H29.1718L29.168 16.1949ZM25.4402 1.92975C25.5891 1.9019 25.742 1.90398 25.89 1.93587C26.038 1.96776 26.1782 2.02883 26.3024 2.1155C26.4266 2.20217 26.5322 2.31271 26.6132 2.44067C26.6942 2.56862 26.7488 2.71143 26.774 2.86075L26.9678 3.96655H13.9034L25.4402 1.92975ZM28.0128 22.1191H4.00062C3.69827 22.1191 3.40831 21.999 3.19452 21.7852C2.98073 21.5715 2.86062 21.2815 2.86062 20.9791V7.01415C2.85979 6.79798 2.92044 6.58603 3.03549 6.40303C3.15054 6.22002 3.31526 6.0735 3.51042 5.98055C3.66644 5.90351 3.83802 5.86322 4.01202 5.86275H28.0622C28.3586 5.87164 28.6399 5.99566 28.8463 6.2085C29.0528 6.42133 29.1682 6.70623 29.168 7.00275V11.1561H27.2034C26.5062 11.1235 25.8154 11.3023 25.2217 11.6692C24.6279 12.036 24.1589 12.5738 23.8762 13.212C23.5935 13.8501 23.5103 14.5588 23.6375 15.2451C23.7647 15.9313 24.0964 16.5631 24.589 17.0575C25.2527 17.7201 26.1516 18.0931 27.0894 18.0949H29.168V20.9525C29.1716 21.1061 29.1442 21.2588 29.0873 21.4014C29.0304 21.5441 28.9453 21.6738 28.8371 21.7828C28.7288 21.8917 28.5997 21.9777 28.4574 22.0355C28.3151 22.0933 28.1626 22.1217 28.009 22.1191H28.0128Z" fill="#646665"/>
</svg>
