<svg width="36" height="36" viewBox="0 0 36 36" fill="none" xmlns="http://www.w3.org/2000/svg">
<path d="M27.8465 11.9895L27.6393 10.8317C27.5893 10.5444 27.4829 10.2698 27.3263 10.0237C27.1697 9.77766 26.966 9.56503 26.7269 9.39807C26.4877 9.23111 26.2179 9.11312 25.933 9.05089C25.648 8.98867 25.3536 8.98345 25.0666 9.03553L9.56699 11.7795C9.24773 11.8364 8.94489 11.9628 8.67995 12.1498C8.32416 12.3373 8.02627 12.6184 7.81835 12.9626C7.61043 13.3069 7.50036 13.7013 7.5 14.1035V24.2505C7.5 24.8368 7.73291 25.3991 8.14749 25.8137C8.56208 26.2283 9.12437 26.4612 9.71068 26.4612H27.1778C27.7641 26.4612 28.3264 26.2283 28.741 25.8137C29.1556 25.3991 29.3885 24.8368 29.3885 24.2505V14.1035C29.39 13.6329 29.2412 13.1741 28.9639 12.7939C28.6865 12.4137 28.2951 12.1319 27.8465 11.9895ZM28.0206 20.7798H26.5561C26.3925 20.7846 26.2296 20.7554 26.0779 20.694C25.9262 20.6327 25.7888 20.5405 25.6746 20.4233C25.5658 20.3148 25.4801 20.1854 25.4226 20.043C25.3651 19.9005 25.3371 19.7479 25.3402 19.5943C25.3608 19.2852 25.5016 18.9964 25.7325 18.7899C25.9634 18.5833 26.2659 18.4753 26.5754 18.4889H28.0234L28.0206 20.7798ZM25.3098 10.4061C25.418 10.3859 25.5292 10.3874 25.6369 10.4106C25.7445 10.4338 25.8465 10.4782 25.9368 10.5412C26.0271 10.6043 26.1039 10.6846 26.1628 10.7777C26.2217 10.8707 26.2614 10.9746 26.2797 11.0832L26.4207 11.8873H16.9203L25.3098 10.4061ZM27.1806 25.0878H9.71897C9.4991 25.0878 9.28824 25.0005 9.13277 24.845C8.97731 24.6895 8.88997 24.4787 8.88997 24.2588V14.1035C8.88936 13.9463 8.93347 13.7922 9.01713 13.6591C9.1008 13.526 9.22058 13.4195 9.3625 13.3519C9.47595 13.2959 9.60073 13.2666 9.72726 13.2662H27.2165C27.432 13.2727 27.6366 13.3629 27.7867 13.5176C27.9368 13.6724 28.0207 13.8796 28.0206 14.0952V17.1156H26.592C26.085 17.0918 25.5827 17.2218 25.1509 17.4886C24.7191 17.7554 24.378 18.1465 24.1725 18.6105C23.9669 19.0746 23.9064 19.59 23.9989 20.089C24.0914 20.5881 24.3326 21.0475 24.6908 21.407C25.1734 21.8889 25.8271 22.1601 26.5091 22.1614H28.0206V24.2395C28.0233 24.3511 28.0033 24.4622 27.9619 24.5659C27.9206 24.6697 27.8587 24.764 27.78 24.8432C27.7013 24.9224 27.6073 24.985 27.5039 25.027C27.4004 25.069 27.2895 25.0897 27.1778 25.0878H27.1806Z" fill="#3A643B" stroke="#3A643B" stroke-width="0.327407"/>
</svg>
