<svg width="64" height="64" viewBox="0 0 64 64" fill="none" xmlns="http://www.w3.org/2000/svg">
<circle cx="32" cy="32" r="32" fill="#E0E8E2"/>
<path d="M30 10H34C46.7025 10 57 20.2975 57 33C57 45.7025 46.7025 56 34 56H30C17.2975 56 7 45.7025 7 33C7 20.2975 17.2975 10 30 10Z" fill="#FDF8E5"/>
<path d="M42.5849 50.8865C50.3966 47.4184 55.7868 40.2691 55.7868 32.283C55.7868 21.0768 45.2515 11.9297 32.001 11.9297C31.0615 11.9297 30.1196 11.9947 29.1641 12.0737C29.2427 12.2572 29.32 12.4389 29.3967 12.6191C29.9089 13.8224 30.3916 14.9565 31.0118 16.0976L31.0178 16.1088L31.0233 16.1202C31.841 17.8254 32.896 19.5379 33.9558 21.055C35.1395 22.681 36.3159 24.1952 37.724 25.7066L37.7295 25.7125L37.7348 25.7186C39.1886 27.383 40.397 29.1481 41.4808 31.0092L41.4884 31.0223L41.4952 31.0359C43.4246 34.8669 44.6454 39.0361 44.5249 43.2281C44.5235 45.8044 43.8282 48.5213 42.5849 50.8865Z" fill="#E0E8E2" stroke="#3A643C"/>
<path d="M40.5518 43.4873L40.5505 43.4758C40.2016 39.8804 38.92 36.3655 37.1511 32.9226L37.145 32.9103C36.3348 31.2208 35.2891 29.721 33.9912 28.1C32.6667 26.4457 31.4562 24.6802 30.4851 22.804C29.5229 20.9451 28.6708 18.9639 28.1816 16.9688L28.1794 16.9596L28.1775 16.9504C27.8543 15.3779 27.6273 13.8049 27.4966 12.3047C25.4079 12.6122 23.48 13.2047 21.6289 13.894C22.6863 18.624 24.3528 22.4594 28.9172 27.6544C30.554 29.3739 33.5988 33.1551 35.428 37.8671C37.1708 42.3567 37.8267 47.7433 35.0406 52.98C36.6261 52.7746 38.2067 52.432 39.7106 52.0123C40.6796 49.2054 40.8911 46.3041 40.5518 43.4873Z" fill="#E0E8E2" stroke="#3A643C"/>
<path d="M16.3949 39.6195L16.4045 39.614L16.4143 39.6089C16.4545 39.5882 16.4572 39.5747 16.4594 39.5687C16.4665 39.5499 16.4757 39.5026 16.462 39.4163C16.4406 39.2815 16.3766 39.1344 16.3131 39.0261C15.6439 38.7275 15.2602 38.2811 15.1684 37.749C15.1167 37.4495 15.1661 37.1669 15.2634 36.9264C15.1827 36.8372 15.1176 36.7359 15.069 36.6246C14.951 36.3545 14.9496 36.0701 14.9893 35.8314C15.0295 35.5897 15.1173 35.3593 15.22 35.1669C15.3119 34.9948 15.4306 34.8253 15.5664 34.6982C15.6094 34.6403 15.6311 34.5599 15.5819 34.4332C15.5192 34.2716 15.3262 34.0149 14.8473 33.7407L14.8407 33.7369L14.8342 33.733C14.3446 33.4327 14.0468 33.0546 14.0165 32.6126C13.9879 32.196 14.2093 31.8798 14.4025 31.7097C15.55 30.6256 16.2515 29.9246 18.613 27.3206C18.3571 25.5018 18.5756 23.4391 18.9509 21.5922C19.3293 19.7301 19.8756 18.0471 20.2976 16.9873C20.2387 16.5585 20.1358 16.1405 20.0154 15.7041C19.9793 15.5731 19.9411 15.4388 19.9021 15.3017C19.8561 15.1401 19.809 14.9747 19.763 14.8066C12.819 18.2905 8.0957 24.8368 8.0957 32.2845C8.0957 43.5037 18.7649 53.149 31.8814 53.149H32.4538C32.4949 53.0836 32.5355 53.0142 32.5802 52.9374L32.5854 52.9285C32.6453 52.8256 32.7134 52.7087 32.7959 52.5869C32.6223 50.9415 31.5212 48.5783 30.0371 46.5879C29.275 45.5658 28.4329 44.671 27.6013 44.043C26.7606 43.4081 25.9897 43.0899 25.354 43.1086C21.3063 43.313 19.964 43.3149 18.0185 43.1061C16.8774 42.9836 16.1808 42.3217 15.9066 41.5816C15.7732 41.2217 15.7389 40.8403 15.8069 40.4988C15.8738 40.1629 16.0534 39.815 16.3949 39.6195Z" fill="#E0E8E2" stroke="#3A643C"/>
<path d="M20.0957 29.4226C21.4052 29.5248 24.3814 29.5249 25.5719 28.0938C24.5005 28.2982 22.1195 28.7071 20.9291 28.0938C20.691 29.1159 20.691 29.2181 20.0957 29.4226Z" fill="#6B8E70"/>
<path d="M19.7378 25.6395C20.214 25.1284 23.0711 25.1284 24.4997 25.2306C23.4283 24.7195 20.9283 24.924 19.7378 25.0262C19.4997 25.4351 19.1426 26.1506 19.7378 25.6395Z" fill="#3A643C"/>
</svg>
