<svg width="21" height="21" viewBox="0 0 21 21" fill="none" xmlns="http://www.w3.org/2000/svg">
<path d="M5.53781 18.5651L6.84082 12.9321L6.86524 12.8265L6.78336 12.7555L2.41308 8.96664L8.18748 8.46539L8.2955 8.45601L8.33772 8.35614L10.5823 3.04538L12.8268 8.35614L12.869 8.45601L12.977 8.46539L18.7514 8.96664L14.3812 12.7555L14.2993 12.8265L14.3237 12.9321L15.6267 18.5651L10.6752 15.5782L10.5823 15.5221L10.4893 15.5782L5.53781 18.5651Z" stroke="#F7C81F" stroke-width="0.36"/>
<path d="M5.26659 18.938L6.66545 12.8906L1.97388 8.82311L8.17192 8.28509L10.5823 2.58203V8.82311V11.8296V13.8296V15.7313L5.26659 18.938Z" fill="#F7C81F"/>
</svg>
